SplineFontDB: 3.2
FontName: CLMunicipalBook
FullName: CL Municipal Book
FamilyName: CL Municipal
Weight: Book
Copyright: Copyright (c) 2020-2023 R.R. Daud\nCopyright (c) 2023 Carretel de Linha digital foundry\n\nPermission is hereby granted, free of charge, to any person obtaining a copy of this software and associated documentation files (the "Software"), to deal in the Software without restriction, including without limitation the rights to use, copy, modify, merge, publish, distribute, sublicense, and/or sell copies of the Software, and to permit persons to whom the Software is furnished to do so, subject to the following conditions:\n\nThe above copyright notice and this permission notice shall be included in all copies or substantial portions of the Software.\n\nTHE SOFTWARE IS PROVIDED "AS IS", WITHOUT WARRANTY OF ANY KIND, EXPRESS OR IMPLIED, INCLUDING BUT NOT LIMITED TO THE WARRANTIES OF MERCHANTABILITY, FITNESS FOR A PARTICULAR PURPOSE AND NONINFRINGEMENT. IN NO EVENT SHALL THE AUTHORS OR COPYRIGHT HOLDERS BE LIABLE FOR ANY CLAIM, DAMAGES OR OTHER LIABILITY, WHETHER IN AN ACTION OF CONTRACT, TORT OR OTHERWISE, ARISING FROM, OUT OF OR IN CONNECTION WITH THE SOFTWARE OR THE USE OR OTHER DEALINGS IN THE SOFTWARE.
Version: 1.14
ItalicAngle: 0
UnderlinePosition: -100
UnderlineWidth: 50
Ascent: 800
Descent: 200
InvalidEm: 0
sfntRevision: 0x000123d7
LayerCount: 2
Layer: 0 0 "Back" 1
Layer: 1 0 "Fore" 0
XUID: [1021 501 1327166919 2674392]
StyleMap: 0x0040
FSType: 0
OS2Version: 4
OS2_WeightWidthSlopeOnly: 0
OS2_UseTypoMetrics: 1
CreationTime: 1684586749
ModificationTime: 1701977270
PfmFamily: 17
TTFWeight: 400
TTFWidth: 5
LineGap: 200
VLineGap: 0
Panose: 2 0 5 3 0 0 0 0 0 0
OS2TypoAscent: 975
OS2TypoAOffset: 0
OS2TypoDescent: -260
OS2TypoDOffset: 0
OS2TypoLinegap: 200
OS2WinAscent: 975
OS2WinAOffset: 0
OS2WinDescent: 260
OS2WinDOffset: 0
HheadAscent: 975
HheadAOffset: 0
HheadDescent: -260
HheadDOffset: 0
OS2SubXSize: 650
OS2SubYSize: 700
OS2SubXOff: 0

StartChar: .notdef
Encoding: 65536 -1 0
Width: 500
GlyphClass: 1
Flags: W
HStem: 0 50<100 400> 483 50<100 400>
VStem: 50 50<50 483> 400 50<50 483>
LayerCount: 2
Fore
SplineSet
50 0 m 1
 50 533 l 1
 450 533 l 1
 450 0 l 1
 50 0 l 1
100 50 m 1
 400 50 l 1
 400 483 l 1
 100 483 l 1
 100 50 l 1
EndSplineSet
EndChar

StartChar: uni001A
Encoding: 26 26 1
Width: 700
GlyphClass: 2
Flags: W
HStem: 0 66<212 488> 600 66<212 488>
VStem: 145 67<66 600> 488 67<66 600>
LayerCount: 2
Fore
SplineSet
212 600 m 1
 212 66 l 1
 488 66 l 1
 488 600 l 1
 212 600 l 1
145 666 m 1
 555 666 l 1
 555 0 l 1
 145 0 l 1
 145 666 l 1
EndSplineSet
EndChar

StartChar: exclam
Encoding: 33 33 3
Width: 480
GlyphClass: 1
Flags: W
HStem: -10 72<203 275> 0 72<205 277> 646 20G<199 281>
VStem: 203 74<0 62 152 666>
LayerCount: 2
Fore
SplineSet
277 72 m 1x70
 277 0 l 1x70
 203 -10 l 1
 203 62 l 1xb0
 277 72 l 1x70
281 666 m 1
 275 152 l 1
 205 152 l 1
 199 666 l 1
 281 666 l 1
EndSplineSet
EndChar

StartChar: quotedbl
Encoding: 34 34 4
Width: 335
GlyphClass: 1
Flags: W
HStem: 389 287<71 134 201 264>
VStem: 71 63<389 676> 201 63<389 676>
LayerCount: 2
Fore
SplineSet
270 676 m 1
 264 389 l 1
 201 389 l 1
 195 676 l 1
 270 676 l 1
140 676 m 1
 134 389 l 1
 71 389 l 1
 65 676 l 1
 140 676 l 1
EndSplineSet
EndChar

StartChar: numbersign
Encoding: 35 35 5
Width: 636
GlyphClass: 2
Flags: W
HStem: 0 21G<104 180.41 314 390.41> 195 66<60 147 234 357 444 527> 410 66<109 195 282 405 492 576> 646 20G<247.579 324 457.579 534>
VStem: 104 72<0 72> 252 72<594 666> 314 72<0 72> 462 72<594 666>
DStem2: 104 0 176 0 0.21693 0.976187<15.619 199.684 282.986 419.977 503.279 682.246> 314 0 386 0 0.21693 0.976187<15.619 199.684 282.986 419.977 503.279 682.246>
LayerCount: 2
Fore
SplineSet
45 195 m 1xfb
 60 261 l 1
 162 261 l 1
 195 410 l 1
 94 410 l 1
 109 476 l 1
 210 476 l 1
 252 666 l 1
 324 666 l 1xfd
 282 476 l 1
 420 476 l 1
 462 666 l 1
 534 666 l 1
 492 476 l 1
 591 476 l 1
 576 410 l 1
 477 410 l 1
 444 261 l 1
 542 261 l 1
 527 195 l 1
 429 195 l 1
 386 0 l 1
 314 0 l 1
 357 195 l 1
 219 195 l 1
 176 0 l 1
 104 0 l 1
 147 195 l 1
 45 195 l 1xfb
372 261 m 1
 405 410 l 1
 267 410 l 1
 234 261 l 1
 372 261 l 1
EndSplineSet
EndChar

StartChar: dollar
Encoding: 36 36 6
Width: 533
GlyphClass: 1
Flags: W
HStem: -14 76<296 345.211> 601 77<201.523 260>
VStem: 95 78<447.322 570.981> 390 78<104.958 237.702>
DStem2: 219 -77 287 -81 0.059941 0.998202<0.0831835 70.7116 143.366 367.742 480.875 673.273 753.934 817.47>
LayerCount: 2
Fore
SplineSet
268 739 m 1
 336 735 l 1
 332 669 l 1
 384 654 423 626 433 613 c 1
 399 541 l 1
 387 555 364 578 327 591 c 1
 314 371 l 1
 391 333 468 285 468 177 c 0
 468 64 393 -5 291 -14 c 1
 287 -81 l 1
 219 -77 l 1
 223 -10 l 1
 141 8 97 75 75 120 c 1
 139 162 l 1
 160 118 186 80 228 66 c 1
 243 319 l 1
 165 357 95 411 95 505 c 0
 95 624 177 677 264 678 c 1
 268 739 l 1
260 601 m 1
 212 598 173 572 173 505 c 0
 173 467 200 428 248 403 c 1
 260 601 l 1
296 62 m 1
 352 72 390 113 390 177 c 0
 390 229 355 260 309 286 c 1
 296 62 l 1
EndSplineSet
EndChar

StartChar: percent
Encoding: 37 37 7
Width: 598
GlyphClass: 1
Flags: W
HStem: -10 69<378.503 485.497> 213 69<378.503 485.497> 386 69<112.503 219.497> 609 69<112.503 219.497>
VStem: 20 69<478.503 585.497> 243 69<478.503 585.497> 286 69<82.5029 189.497> 509 69<82.5029 189.497>
DStem2: 102 224 140 173 0.795688 0.605706<0 446.757>
LayerCount: 2
Fore
SplineSet
355 136 m 0xfb
 355 93 389 59 432 59 c 0
 475 59 509 93 509 136 c 0
 509 179 475 213 432 213 c 0
 389 213 355 179 355 136 c 0xfb
286 136 m 0
 286 217 351 282 432 282 c 0
 513 282 578 217 578 136 c 0
 578 55 513 -10 432 -10 c 0
 351 -10 286 55 286 136 c 0
89 532 m 0
 89 489 123 455 166 455 c 0
 209 455 243 489 243 532 c 0xfd
 243 575 209 609 166 609 c 0
 123 609 89 575 89 532 c 0
20 532 m 0
 20 613 85 678 166 678 c 0
 247 678 312 613 312 532 c 0
 312 451 247 386 166 386 c 0
 85 386 20 451 20 532 c 0
102 224 m 1
 458 495 l 1
 496 444 l 1
 140 173 l 1
 102 224 l 1
EndSplineSet
EndChar

StartChar: ampersand
Encoding: 38 38 8
Width: 705
GlyphClass: 1
Flags: W
HStem: -10 72<226.378 369.419> 0 21G<542.879 660> 606 72<234.764 357.149>
VStem: 90 72<123.902 265.858> 132 73<455.347 575.881> 562 98<0 98>
DStem2: 316 351 194 376 0.699463 -0.714669<-174.27 -103.201 -35.9603 205.794 297.029 422.917>
LayerCount: 2
Fore
SplineSet
244 326 m 1xb4
 220 311 162 266 162 194 c 0
 162 115 233 62 294 62 c 0
 358 62 399 100 427 141 c 1
 244 326 l 1xb4
498 296 m 1
 543 230 l 1
 510 156 l 1
 660 0 l 1
 562 0 l 1x6c
 475 91 l 1
 459 68 410 -10 294 -10 c 0
 190 -10 90 72 90 194 c 0xb4
 90 294 173 358 194 376 c 1
 158 416 132 455 132 516 c 0
 132 597 189 678 299 678 c 0
 424 678 457 566 457 566 c 1
 392 538 l 1
 392 538 369 606 297 606 c 0
 246 606 205 573 205 516 c 0xac
 205 481 226 444 316 351 c 2
 459 203 l 1
 498 296 l 1
EndSplineSet
EndChar

StartChar: quotesingle
Encoding: 39 39 9
Width: 205
GlyphClass: 1
Flags: W
HStem: 389 287<71 134>
VStem: 71 63<389 676>
LayerCount: 2
Fore
SplineSet
65 676 m 1
 140 676 l 1
 134 389 l 1
 71 389 l 1
 65 676 l 1
EndSplineSet
EndChar

StartChar: parenleft
Encoding: 40 40 10
Width: 331
GlyphClass: 1
Flags: W
VStem: 78 75<126.511 462.175>
LayerCount: 2
Fore
SplineSet
153 295 m 0
 153 106 226 -16 259 -65 c 1
 265 -72 l 1
 208 -115 l 1
 203 -105 l 1
 95 67 78 197 78 295 c 0
 78 386 98 533 203 695 c 1
 208 704 l 1
 264 662 l 1
 259 655 l 2
 227 606 153 476 153 295 c 0
EndSplineSet
EndChar

StartChar: parenright
Encoding: 41 41 11
Width: 331
GlyphClass: 1
Flags: W
VStem: 178 75<124.458 462.175>
LayerCount: 2
Fore
SplineSet
253 295 m 0
 253 197 236 56 128 -106 c 1
 122 -114 l 1
 66 -72 l 1
 72 -65 l 1
 105 -16 178 106 178 295 c 0
 178 476 104 606 72 655 c 2
 67 662 l 1
 123 704 l 1
 128 695 l 1
 233 533 253 386 253 295 c 0
EndSplineSet
EndChar

StartChar: asterisk
Encoding: 42 42 12
Width: 460
GlyphClass: 2
Flags: W
HStem: 513 74<73.5811 85.5938 374.406 386.419> 658 20G<194 266>
VStem: 198 64<541 678>
LayerCount: 2
Fore
SplineSet
262 541 m 1
 385 587 l 1
 400 513 l 1
 283 481 l 1
 377 372 l 1
 321 323 l 1
 230 445 l 1
 139 323 l 1
 83 373 l 1
 177 481 l 1
 60 513 l 1
 75 587 l 1
 198 541 l 1
 194 678 l 1
 266 678 l 1
 262 541 l 1
EndSplineSet
EndChar

StartChar: plus
Encoding: 43 43 13
Width: 520
GlyphClass: 1
Flags: W
HStem: 295 70<80 225 295 440>
VStem: 225 70<150 295 365 510>
LayerCount: 2
Fore
SplineSet
295 365 m 1
 450 365 l 1
 440 295 l 1
 295 295 l 1
 295 140 l 1
 225 150 l 1
 225 295 l 1
 70 295 l 1
 80 365 l 1
 225 365 l 1
 225 520 l 1
 295 510 l 1
 295 365 l 1
EndSplineSet
EndChar

StartChar: comma
Encoding: 44 44 14
Width: 270
GlyphClass: 1
Flags: W
HStem: -147 277
VStem: 15 175
LayerCount: 2
Fore
SplineSet
75 -147 m 1
 15 -147 l 1
 100 130 l 1
 190 130 l 1
 75 -147 l 1
EndSplineSet
EndChar

StartChar: hyphen
Encoding: 45 45 15
Width: 412
GlyphClass: 1
Flags: W
HStem: 245 90
VStem: 65 287
DStem2: 70 335 65 265 0.997494 -0.0707443<0 282.673>
LayerCount: 2
Fore
SplineSet
65 265 m 1
 70 335 l 1
 352 315 l 1
 347 245 l 1
 65 265 l 1
EndSplineSet
EndChar

StartChar: period
Encoding: 46 46 16
Width: 234
GlyphClass: 1
Flags: W
HStem: -14 111
VStem: 70 94<0 83>
LayerCount: 2
Fore
SplineSet
164 83 m 1
 164 -14 l 1
 70 0 l 1
 70 97 l 1
 164 83 l 1
EndSplineSet
EndChar

StartChar: slash
Encoding: 47 47 17
Width: 400
GlyphClass: 1
Flags: W
DStem2: 36 -30 119 -30 0.334443 0.942416<27.7588 870.104>
LayerCount: 2
Fore
SplineSet
410 790 m 1
 119 -30 l 1
 36 -30 l 1
 327 790 l 1
 410 790 l 1
EndSplineSet
EndChar

StartChar: zero
Encoding: 48 48 18
Width: 598
GlyphClass: 1
Flags: W
HStem: -14 74<237.289 360.711> 604 74<237.289 360.711>
VStem: 60 76<192.05 472.17> 462 76<192.05 471.95>
LayerCount: 2
Fore
SplineSet
299 -14 m 0
 194 -14 60 92 60 332 c 0
 60 572 194 678 299 678 c 0
 404 678 538 572 538 332 c 0
 538 92 404 -14 299 -14 c 0
299 60 m 0
 370 60 462 142 462 332 c 0
 462 522 370 604 299 604 c 0
 228 604 136 523 136 332 c 0
 136 142 228 60 299 60 c 0
EndSplineSet
EndChar

StartChar: one
Encoding: 49 49 19
Width: 383
GlyphClass: 1
Flags: W
HStem: 0 21G<190 263>
VStem: 190 73<0 566>
LayerCount: 2
Fore
SplineSet
65 516 m 1
 65 594 l 1
 263 686 l 1
 263 0 l 1
 190 0 l 1
 190 566 l 1
 65 516 l 1
EndSplineSet
EndChar

StartChar: two
Encoding: 50 50 20
Width: 511
GlyphClass: 1
Flags: W
HStem: 0 75<194 448> 603 75<163.96 311.718>
VStem: 376 72<381.038 539.438>
DStem2: 22 0 194 75 0.677476 0.735545<171.692 526.126>
LayerCount: 2
Fore
SplineSet
60 592 m 1
 99 644 162 678 239 678 c 0
 365 678 451 588 451 460 c 0
 451 361 400 298 348 241 c 2
 194 75 l 1
 448 75 l 1
 448 0 l 1
 22 0 l 1
 302 304 l 2
 325 329 376 395 376 466 c 0
 376 544 315 603 239 603 c 0
 193 603 150 580 123 547 c 1
 60 592 l 1
EndSplineSet
EndChar

StartChar: three
Encoding: 51 51 21
Width: 508
GlyphClass: 1
Flags: W
HStem: -15 74<148.549 306.28> 592 74<101 304>
VStem: 382 76<138.145 295.377>
DStem2: 212 374 313 429 0.378785 0.925485<89.1589 236.604>
LayerCount: 2
Fore
SplineSet
313 429 m 1
 385 402 458 324 458 216 c 0
 458 96 365 -15 227 -15 c 0
 119 -15 51 54 20 116 c 1
 72 186 l 1
 90 120 141 59 227 59 c 0
 320 59 382 134 382 216 c 0
 382 283 339 374 212 374 c 1
 304 592 l 1
 82 592 l 1
 101 666 l 1
 410 666 l 1
 313 429 l 1
EndSplineSet
EndChar

StartChar: four
Encoding: 52 52 22
Width: 560
GlyphClass: 1
Flags: W
HStem: 0 21G<361 437> 80 74<167 361 437 530> 646 20G<216 325>
VStem: 245 80<589.171 666> 361 76<0 80 154 318>
LayerCount: 2
Fore
SplineSet
245 666 m 1
 325 666 l 1
 263 416 227 319 167 154 c 1
 361 154 l 1
 361 318 l 1
 437 338 l 1
 437 154 l 1
 530 154 l 1
 530 80 l 1
 437 80 l 1
 437 0 l 1
 361 0 l 1
 361 80 l 1
 50 80 l 1
 152 320 187 419 245 666 c 1
EndSplineSet
EndChar

StartChar: five
Encoding: 53 53 23
Width: 524
GlyphClass: 1
Flags: W
HStem: -15 75<133.326 311.797> 385 74<183.653 316.776> 592 74<201.85 418>
VStem: 398 76<144.079 305.524>
DStem2: 100 364 183.128 454.209 0.118213 0.992988<99.4033 238.441>
LayerCount: 2
Fore
SplineSet
183.127929688 454.208984375 m 1
 200.424804688 457.40234375 218.809570312 459 234 459 c 0
 395 459 474 340 474 223 c 0
 474 101 395 -15 227 -15 c 0
 172 -15 101 3 60 36 c 1
 71 130 l 1
 94 96 157 60 227 60 c 0
 328 60 398 136 398 223 c 0
 398 305 342 385 227 385 c 0
 160 385 113 368 100 364 c 1
 135 666 l 1
 427 666 l 1
 418 592 l 1
 201.849609375 592 l 1
 183.127929688 454.208984375 l 1
EndSplineSet
EndChar

StartChar: six
Encoding: 54 54 24
Width: 598
GlyphClass: 1
Flags: W
HStem: -15 73<231.855 386.315> 396 73<230.393 386.315>
VStem: 71 75<144.204 309.775> 473 75<144.204 309.796>
LayerCount: 2
Fore
SplineSet
309 58 m 0
 400 58 473 134 473 227 c 0
 473 320 400 396 309 396 c 0
 218 396 146 320 146 227 c 0
 146 134 218 58 309 58 c 0
381 618 m 1
 287 550 234 494 195 435 c 1
 226 454 266 469 309 469 c 0
 440 469 548 371 548 227 c 0
 548 83 440 -15 309 -15 c 0
 178 -15 71 83 71 227 c 0
 72 353 112 521 339 683 c 1
 381 618 l 1
EndSplineSet
EndChar

StartChar: seven
Encoding: 55 55 25
Width: 531
GlyphClass: 1
Flags: W
HStem: 0 21G<146 234> 592 74<89 372>
LayerCount: 2
Fore
SplineSet
146 0 m 1
 146 0 189 196 256 358 c 0
 323 520 372 592 372 592 c 1
 70 592 l 1
 89 666 l 1
 516 666 l 1
 516 666 397 501 328 332 c 0
 261 168 234 0 234 0 c 1
 146 0 l 1
EndSplineSet
EndChar

StartChar: eight
Encoding: 56 56 26
Width: 582
GlyphClass: 1
Flags: W
HStem: -15 73<210.827 371.173> 372 57<232.005 349.995> 609 69<231.832 350.168>
VStem: 60 76<134.472 296.091> 131 71<459.817 578.314> 380 71<459.817 578.314> 446 76<134.472 296.091>
LayerCount: 2
Fore
SplineSet
202 519 m 0xec
 202 468 240 429 291 429 c 0
 342 429 380 468 380 519 c 0
 380 570 342 609 291 609 c 0
 240 609 202 570 202 519 c 0xec
291 372 m 0
 200 372 136 302 136 215 c 0
 136 127 200 58 291 58 c 0
 382 58 446 127 446 215 c 0xf2
 446 302 382 372 291 372 c 0
177 412 m 1
 148 438 131 474 131 519 c 0
 131 609 201 678 291 678 c 0
 381 678 451 609 451 519 c 0xec
 451 474 434 438 405 412 c 1
 464 381 522 325 522 215 c 0
 522 88 422 -15 291 -15 c 0
 160 -15 60 88 60 215 c 0
 60 325 118 381 177 412 c 1
EndSplineSet
EndChar

StartChar: nine
Encoding: 57 57 27
Width: 560
GlyphClass: 1
Flags: W
HStem: 224 73<198.363 353.068> 605 73<197.024 352.976>
VStem: 50 75<370.243 531.757> 425 75<368.978 531.757>
LayerCount: 2
Fore
SplineSet
425 451 m 0
 425 540 359 605 275 605 c 0
 191 605 125 540 125 451 c 0
 125 362 191 297 275 297 c 0
 359 297 425 362 425 451 c 0
384 260 m 1
 362 242 319 224 270 224 c 0
 150 224 50 321 50 451 c 0
 50 581 150 678 275 678 c 0
 400 678 500 581 500 451 c 0
 500 337 476 218 232 -19 c 1
 176 34 l 1
 216 67 314 161 384 260 c 1
EndSplineSet
EndChar

StartChar: colon
Encoding: 58 58 28
Width: 274
GlyphClass: 1
Flags: W
HStem: 30 307
VStem: 90 94<40 127 240 327>
LayerCount: 2
Fore
SplineSet
184 127 m 1
 184 30 l 1
 90 40 l 1
 90 137 l 1
 184 127 l 1
184 327 m 1
 184 230 l 1
 90 240 l 1
 90 337 l 1
 184 327 l 1
EndSplineSet
EndChar

StartChar: semicolon
Encoding: 59 59 29
Width: 305
GlyphClass: 1
Flags: W
VStem: 121 94<113.842 130 240 327>
LayerCount: 2
Fore
SplineSet
95 -147 m 1
 35 -147 l 1
 120 130 l 1
 210 130 l 1
 95 -147 l 1
215 337 m 1
 215 240 l 1
 121 230 l 1
 121 327 l 1
 215 337 l 1
EndSplineSet
EndChar

StartChar: less
Encoding: 60 60 30
Width: 500
GlyphClass: 1
Flags: W
DStem2: 40 300 173 300 0.859383 0.511333<114.298 421.987> 173 300 40 300 0.859383 -0.511333<0 307.689>
LayerCount: 2
Fore
SplineSet
440 147 m 1
 440 62 l 1
 40 300 l 1
 440 538 l 1
 440 453 l 1
 173 300 l 1
 440 147 l 1
EndSplineSet
EndChar

StartChar: equal
Encoding: 61 61 31
Width: 500
GlyphClass: 1
Flags: W
HStem: 197 68<84 416> 335 68<84 416>
LayerCount: 2
Fore
SplineSet
70 335 m 1
 84 403 l 1
 430 403 l 1
 416 335 l 1
 70 335 l 1
70 197 m 1
 84 265 l 1
 430 265 l 1
 416 197 l 1
 70 197 l 1
EndSplineSet
EndChar

StartChar: greater
Encoding: 62 62 32
Width: 500
GlyphClass: 1
Flags: W
DStem2: 60 538 60 453 0.859383 -0.511333<43.4633 351.152> 60 147 60 62 0.859383 0.511333<0 307.689>
LayerCount: 2
Fore
SplineSet
60 453 m 1
 60 538 l 1
 460 300 l 1
 60 62 l 1
 60 147 l 1
 327 300 l 1
 60 453 l 1
EndSplineSet
EndChar

StartChar: question
Encoding: 63 63 33
Width: 480
GlyphClass: 1
Flags: W
HStem: -7 76<206 282> 0 76<203 279> 603 75<172.138 305.07>
VStem: 54 75<495 559.849> 172 74<147.678 266.355> 203 79<0 69> 345 75<431.129 564.081>
LayerCount: 2
Fore
SplineSet
54 495 m 1x3a
 54 601 141 678 237 678 c 0
 338 678 420 611 420 495 c 0
 420 349 246 297 246 219 c 0
 246 180 270 144 270 144 c 1
 196 144 l 1
 196 144 172 182 172 223 c 0
 172 345 345 380 345 495 c 0
 345 556 307 603 237 603 c 0
 182 603 129 560 129 495 c 0
 129 489 131 480 132 477 c 1
 54 495 l 1x3a
282 69 m 1xb6
 282 -7 l 1xb6
 203 0 l 1
 203 76 l 1x76
 282 69 l 1xb6
EndSplineSet
EndChar

StartChar: at
Encoding: 64 64 34
Width: 868
GlyphClass: 1
Flags: W
HStem: -222 69<343.227 570.75> -23 64<596.47 668.158> -10 69<337.331 463.147> 347 69<390.367 527.941> 585 69<350.917 563.857>
VStem: 58 69<83.3086 343.412> 241 66<90.5 258.473> 746 69<161.862 394.032>
DStem2: 548 211 591 140 0.253602 0.967309<-105.526 38.5386 150.197 203.794>
LayerCount: 2
Fore
SplineSet
307 170 m 0xbf
 307 106 336 59 390 59 c 0
 471 59 526 127 548 211 c 0
 549 215 552 246 552 250 c 0
 552 279 547 300 536 316 c 0
 523 335 500 347 461 347 c 0
 389 347 328 288 312 215 c 0
 309 200 307 184 307 170 c 0xbf
615 -23 m 0xdf
 586 -23 544 4 533 51 c 1
 496 15 448 -10 388 -10 c 0xbf
 299 -10 241 75 241 171 c 0
 241 187 242 203 245 219 c 0
 263 327 351 416 459 416 c 0
 518 416 561 393 591 355 c 1
 604 407 l 1
 648 407 l 1
 661 407 l 1
 591 140 l 2
 585 119 585 114 585 111 c 2
 585 110 l 2
 585 83 591 67 598 57 c 0
 606 45 617 41 625 41 c 0
 682 41 746 166 746 283 c 0
 746 390 673 585 449 585 c 0
 295 585 127 433 127 224 c 0
 127 -62 336 -153 448 -153 c 0
 538 -153 596 -120 596 -120 c 1
 618 -188 l 1
 618 -188 548 -222 448 -222 c 0
 304 -222 58 -109 58 224 c 0
 58 466 243 654 448 654 c 0
 684 654 815 467 815 283 c 0
 815 97 709 -23 615 -23 c 0xdf
EndSplineSet
EndChar

StartChar: A
Encoding: 65 65 35
Width: 618
GlyphClass: 1
Flags: W
HStem: -6 21G<18 102.571 515.429 600> 246 72<232 386>
DStem2: 18 6 94 -6 0.394902 0.918723<18.9879 293.156 371.151 572.441> 309 683 309 504 0.394902 -0.918723<164.451 365.741 443.737 717.904>
LayerCount: 2
Fore
SplineSet
94 -6 m 1
 18 6 l 1
 309 683 l 1
 600 6 l 1
 524 -6 l 1
 416 246 l 1
 202 246 l 1
 94 -6 l 1
386 318 m 1
 309 504 l 1
 232 318 l 1
 386 318 l 1
EndSplineSet
EndChar

StartChar: B
Encoding: 66 66 36
Width: 477
GlyphClass: 1
Flags: W
HStem: 0 72<139 314.262> 292 68<139 282.327> 594 72<139 279.545>
VStem: 63 76<72 292 360 594> 327 76<401.777 547.619> 362 76<118.742 246.102>
LayerCount: 2
Fore
SplineSet
139 72 m 1xf4
 257 72 l 2
 312 72 362 127 362 182 c 0
 362 241 315 292 246 292 c 2
 139 292 l 1
 139 72 l 1xf4
139 594 m 1
 139 360 l 1
 204 360 l 2
 281 360 327 400 327 477 c 0xf8
 327 554 271 594 204 594 c 2
 139 594 l 1
209 666 m 2
 316 666 403 584 403 477 c 0xf8
 403 412 373 370 331 341 c 1
 394 313 438 254 438 182 c 0xf4
 438 80 359 0 262 0 c 2
 63 0 l 1
 63 666 l 1
 209 666 l 2
EndSplineSet
EndChar

StartChar: C
Encoding: 67 67 37
Width: 644
GlyphClass: 1
Flags: W
HStem: -14 75<281.395 492.777> 603 75<281.395 493.195>
VStem: 39 78<228.578 435.422>
LayerCount: 2
Fore
SplineSet
601 58 m 1
 542 13 468 -14 387 -14 c 0
 191 -14 39 142 39 332 c 0
 39 522 191 678 387 678 c 0
 469 678 543 651 602 605 c 1
 579 523 l 1
 531 572 463 603 387 603 c 0
 235 603 117 479 117 332 c 0
 117 185 235 61 387 61 c 0
 463 61 531 92 579 141 c 1
 601 58 l 1
EndSplineSet
EndChar

StartChar: D
Encoding: 68 68 38
Width: 576
GlyphClass: 1
Flags: W
HStem: 0 75<139 303.098> 591 75<139 303.098>
VStem: 63 76<75 591> 462 75<233.759 432.241>
LayerCount: 2
Fore
SplineSet
63 0 m 1
 63 666 l 1
 202 666 l 2
 391 666 537 516 537 333 c 0
 537 150 391 0 202 0 c 2
 63 0 l 1
139 75 m 1
 202 75 l 2
 348 75 462 192 462 333 c 0
 462 474 348 591 202 591 c 2
 139 591 l 1
 139 75 l 1
EndSplineSet
EndChar

StartChar: E
Encoding: 69 69 39
Width: 449
GlyphClass: 1
Flags: W
HStem: 0 72<136.926 404.926> 278 72<136.926 384.926> 594 72<136.926 394.926>
VStem: 60.9258 76<72 278 350 594>
LayerCount: 2
Fore
SplineSet
404.92578125 0 m 1
 60.92578125 0 l 1
 60.92578125 666 l 1
 394.92578125 666 l 1
 394.92578125 594 l 1
 136.92578125 594 l 1
 136.92578125 350 l 1
 384.92578125 350 l 1
 384.92578125 278 l 1
 136.92578125 278 l 1
 136.92578125 72 l 1
 404.92578125 72 l 1
 404.92578125 0 l 1
EndSplineSet
EndChar

StartChar: F
Encoding: 70 70 40
Width: 387
GlyphClass: 1
Flags: W
HStem: 0 21G<63 139> 278 72<139 367> 594 72<139 337>
VStem: 63 76<0 278 350 594>
LayerCount: 2
Fore
SplineSet
139 0 m 1
 63 0 l 1
 63 666 l 1
 337 666 l 1
 337 594 l 1
 139 594 l 1
 139 350 l 1
 367 350 l 1
 367 278 l 1
 139 278 l 1
 139 0 l 1
EndSplineSet
EndChar

StartChar: G
Encoding: 71 71 41
Width: 644
GlyphClass: 1
Flags: W
HStem: -14 75<281.395 490.288> 278 72<420 507> 603 75<281.395 491.585>
VStem: 39 78<228.578 435.422> 507 72<80.6396 278>
LayerCount: 2
Fore
SplineSet
420 278 m 1
 420 350 l 1
 579 350 l 1
 579 45 l 1
 524 8 458 -14 387 -14 c 0
 191 -14 39 142 39 332 c 0
 39 522 191 678 387 678 c 0
 447 678 503 663 552 636 c 1
 552 545 l 1
 507 581 450 603 387 603 c 0
 235 603 117 479 117 332 c 0
 117 185 235 61 387 61 c 0
 431 61 471 72 507 90 c 1
 507 278 l 1
 420 278 l 1
EndSplineSet
EndChar

StartChar: H
Encoding: 72 72 42
Width: 644
GlyphClass: 1
Flags: W
HStem: 0 21G<63 139 505 581> 278 72<139 505> 646 20G<63 139 505 581>
VStem: 63 76<0 278 350 666> 505 76<0 278 350 666>
LayerCount: 2
Fore
SplineSet
505 0 m 1
 505 278 l 1
 139 278 l 1
 139 0 l 1
 63 0 l 1
 63 666 l 1
 139 666 l 1
 139 350 l 1
 505 350 l 1
 505 666 l 1
 581 666 l 1
 581 0 l 1
 505 0 l 1
EndSplineSet
EndChar

StartChar: I
Encoding: 73 73 43
Width: 201
GlyphClass: 1
Flags: W
HStem: 0 21G<63 138> 646 20G<63 138>
VStem: 63 75<0 666>
LayerCount: 2
Fore
SplineSet
63 0 m 1
 63 666 l 1
 138 666 l 1
 138 0 l 1
 63 0 l 1
EndSplineSet
EndChar

StartChar: J
Encoding: 74 74 44
Width: 387
GlyphClass: 1
Flags: W
HStem: -14 78<55.8214 186.009> 594 72<109 249>
VStem: 249 78<127.009 594>
LayerCount: 2
Fore
SplineSet
55 76 m 1
 72 68 91 64 112 64 c 0
 188 64 249 125 249 201 c 2
 249 594 l 1
 109 594 l 1
 109 666 l 1
 327 666 l 1
 327 201 l 2
 327 82 231 -14 112 -14 c 0
 92 -14 73 -12 55 -7 c 1
 55 76 l 1
EndSplineSet
EndChar

StartChar: K
Encoding: 75 75 45
Width: 516
GlyphClass: 1
Flags: W
HStem: 0 21G<63 139 412.512 461> 646 20G<63 139 394.215 455.125>
VStem: 63 76<0 277 365 666>
DStem2: 139 365 198 322 0.664801 0.74702<7.10139 410.826> 198 322 139 277 0.720275 -0.693688<0 399.569>
LayerCount: 2
Fore
SplineSet
139 0 m 1
 63 0 l 1
 63 666 l 1
 139 666 l 1
 139 365 l 1
 412 672 l 1
 481 640 l 1
 198 322 l 1
 496 35 l 1
 433 -10 l 1
 139 277 l 1
 139 0 l 1
EndSplineSet
EndChar

StartChar: L
Encoding: 76 76 46
Width: 387
GlyphClass: 1
Flags: W
HStem: 0 73<141 347> 646 20G<63 141>
VStem: 63 78<73 666>
LayerCount: 2
Fore
SplineSet
63 0 m 1
 63 666 l 1
 141 666 l 1
 141 73 l 1
 347 73 l 1
 347 0 l 1
 63 0 l 1
EndSplineSet
EndChar

StartChar: M
Encoding: 77 77 47
Width: 774
GlyphClass: 1
Flags: W
HStem: -3 21G<34 111.026 662.974 740>
DStem2: 34 4 108 -3 0.154244 0.988033<4.4978 519.283> 140 683 185 506 0.601558 -0.798829<168.463 410.601> 387 355 387 241 0.601558 0.798829<0 242.138> 634 683 589 506 0.154244 -0.988033<167.941 682.726>
LayerCount: 2
Fore
SplineSet
634 683 m 1
 740 4 l 1
 666 -3 l 1
 589 506 l 1
 387 241 l 1
 185 506 l 1
 108 -3 l 1
 34 4 l 1
 140 683 l 1
 387 355 l 1
 634 683 l 1
EndSplineSet
EndChar

StartChar: N
Encoding: 78 78 48
Width: 698
GlyphClass: 1
Flags: W
HStem: 0 21G<63 139> 646 20G<559 635>
VStem: 63 76<0 491> 559 76<165 666>
DStem2: 63 683 139 491 0.691602 -0.722278<191.239 717.175>
LayerCount: 2
Fore
SplineSet
559 165 m 1
 559 666 l 1
 635 666 l 1
 635 -17 l 1
 139 491 l 1
 139 0 l 1
 63 0 l 1
 63 683 l 1
 559 165 l 1
EndSplineSet
EndChar

StartChar: O
Encoding: 79 79 49
Width: 774
GlyphClass: 1
Flags: W
HStem: -14 75<281.395 492.605> 603 75<281.395 492.605>
VStem: 39 78<228.578 435.422> 657 78<228.578 435.422>
LayerCount: 2
Fore
SplineSet
387 603 m 0
 235 603 117 479 117 332 c 0
 117 185 235 61 387 61 c 0
 539 61 657 185 657 332 c 0
 657 479 539 603 387 603 c 0
387 -14 m 0
 191 -14 39 142 39 332 c 0
 39 522 191 678 387 678 c 0
 583 678 735 522 735 332 c 0
 735 142 583 -14 387 -14 c 0
EndSplineSet
EndChar

StartChar: P
Encoding: 80 80 50
Width: 452
GlyphClass: 1
Flags: W
HStem: 0 21G<63 139> 278 72<139 283.845> 594 72<139 283.845>
VStem: 63 76<0 278 350 594> 337 76<403.447 540.553>
LayerCount: 2
Fore
SplineSet
217 350 m 2
 284 350 337 405 337 472 c 0
 337 539 284 594 217 594 c 2
 139 594 l 1
 139 350 l 1
 217 350 l 2
139 278 m 1
 139 0 l 1
 63 0 l 1
 63 666 l 1
 222 666 l 2
 329 666 413 579 413 472 c 0
 413 365 329 278 222 278 c 2
 139 278 l 1
EndSplineSet
EndChar

StartChar: Q
Encoding: 81 81 51
Width: 774
GlyphClass: 1
Flags: W
HStem: -169 75<449.149 583.768> -117 75<276.996 409.408> -14 75<281.395 492.605> 603 75<281.395 492.605>
VStem: 39 78<228.578 435.422> 657 78<228.578 435.422>
LayerCount: 2
Fore
SplineSet
657 -113 m 1xbc
 657 -113 594 -169 532 -169 c 0xbc
 439 -169 389 -117 341 -117 c 0
 294 -117 271 -138 256 -163 c 1
 187 -127 l 1
 196 -111 246 -42 333 -42 c 0x7c
 423 -42 460 -94 523 -94 c 0
 566 -94 617 -48 617 -48 c 1
 657 -113 l 1xbc
387 603 m 0
 235 603 117 479 117 332 c 0
 117 185 235 61 387 61 c 0
 539 61 657 185 657 332 c 0
 657 479 539 603 387 603 c 0
387 -14 m 0
 191 -14 39 142 39 332 c 0
 39 522 191 678 387 678 c 0
 583 678 735 522 735 332 c 0
 735 142 583 -14 387 -14 c 0
EndSplineSet
EndChar

StartChar: R
Encoding: 82 82 52
Width: 477
GlyphClass: 1
Flags: W
HStem: 0 11G<63 139 377.222 430.122> 278 72<226 303.845> 594 72<139 303.845>
VStem: 63 76<0 278 350 594> 357 76<403.447 540.553>
LayerCount: 2
Fore
SplineSet
237 350 m 2
 304 350 357 405 357 472 c 0
 357 539 304 594 237 594 c 2
 139 594 l 1
 139 350 l 1
 237 350 l 2
226 278 m 1
 467 31 l 1
 395 -10 l 1
 139 278 l 1
 139 0 l 1
 63 0 l 1
 63 666 l 1
 242 666 l 2
 349 666 433 579 433 472 c 0
 433 365 349 278 242 278 c 2
 226 278 l 1
EndSplineSet
EndChar

StartChar: S
Encoding: 83 83 53
Width: 477
GlyphClass: 1
Flags: W
HStem: -15 75<169.679 306.574> 601 77<173.327 322.897>
VStem: 67 78<464.565 572.826> 359 78<112.783 248.88>
LayerCount: 2
Fore
SplineSet
237 60 m 0
 307 60 359 113 359 187 c 0
 359 340 67 327 67 511 c 0
 67 622 149 678 247 678 c 0
 330 678 388 631 402 613 c 1
 368 541 l 1
 351 562 310 601 247 601 c 0
 186 601 145 572 145 516 c 0
 145 388 437 402 437 187 c 0
 437 66 350 -15 237 -15 c 0
 131 -15 70 67 44 120 c 1
 108 162 l 1
 135 105 175 60 237 60 c 0
EndSplineSet
EndChar

StartChar: T
Encoding: 84 84 54
Width: 452
GlyphClass: 1
Flags: W
HStem: 0 21G<187 263> 594 72<18 187 263 434>
VStem: 187 76<0 594>
LayerCount: 2
Fore
SplineSet
434 594 m 1
 263 594 l 1
 263 0 l 1
 187 0 l 1
 187 594 l 1
 18 594 l 1
 18 666 l 1
 434 666 l 1
 434 594 l 1
EndSplineSet
EndChar

StartChar: U
Encoding: 85 85 55
Width: 576
GlyphClass: 1
Flags: W
HStem: -14 76<211.909 364.091> 646 20G<55 133 443 521>
VStem: 55 78<144.2 666> 443 78<144.2 666>
LayerCount: 2
Fore
SplineSet
133 229 m 2
 133 133 202 62 288 62 c 0
 374 62 443 133 443 229 c 2
 443 666 l 1
 521 666 l 1
 521 229 l 2
 521 90 417 -14 288 -14 c 0
 159 -14 55 90 55 229 c 2
 55 666 l 1
 133 666 l 1
 133 229 l 2
EndSplineSet
EndChar

StartChar: V
Encoding: 86 86 56
Width: 644
GlyphClass: 1
Flags: W
HStem: 652 20G<51 100.112 543.888 593>
DStem2: 91 672 27 640 0.409096 -0.912491<3.0176 557.134> 322 165 322 -18 0.409096 0.912491<0 554.117>
LayerCount: 2
Fore
SplineSet
553 672 m 1
 617 640 l 1
 322 -18 l 1
 27 640 l 1
 91 672 l 1
 322 165 l 1
 553 672 l 1
EndSplineSet
EndChar

StartChar: W
Encoding: 87 87 57
Width: 934
GlyphClass: 1
Flags: W
HStem: 652 20G<51 99.7179 361 409.718 834.282 883>
DStem2: 91 672 27 640 0.397451 -0.917623<3.92709 553.072> 312 165 312 -18 0.393742 0.919221<0 225.441> 401 672 337 640 0.397451 -0.917623<3.92709 234.852 327.341 553.072> 622 165 622 -18 0.397451 0.917623<0 549.145>
LayerCount: 2
Fore
SplineSet
843 672 m 1
 907 640 l 1
 622 -18 l 1
 467 343.859375 l 1
 312 -18 l 1
 27 640 l 1
 91 672 l 1
 312 165 l 1
 429.736328125 428.51171875 l 1
 337 640 l 1
 401 672 l 1
 622 165 l 1
 843 672 l 1
EndSplineSet
EndChar

StartChar: X
Encoding: 88 88 58
Width: 618
GlyphClass: 1
Flags: W
HStem: -10 21G<51.6667 114.684 503.316 566.333> 652 20G<71.1818 127.519 490.481 546.818>
DStem2: 27 20 101 -10 0.591256 0.806484<19.5585 19.5585 474.811 621.093 761.798 808.448> 113 672 44 639 0.591256 -0.806484<0 333.637 420.737 788.889>
LayerCount: 2
Fore
SplineSet
591 20 m 1
 517 -10 l 1
 309 294 l 1
 101 -10 l 1
 27 20 l 1
 264 348 l 1
 44 639 l 1
 113 672 l 1
 309 402 l 1
 505 672 l 1
 574 639 l 1
 356 348 l 1
 591 20 l 1
EndSplineSet
EndChar

StartChar: Y
Encoding: 89 89 59
Width: 576
GlyphClass: 1
Flags: W
HStem: 652 20G<48 99.2676 476.732 528>
DStem2: 88 672 22 639 0.484526 -0.874777<0 407.451> 119 17 194 -16 0.49083 0.871256<8.06078 255.153 344.327 751.789>
LayerCount: 2
Fore
SplineSet
194 -16 m 1
 119 17 l 5
 243 240 l 1
 22 639 l 1
 88 672 l 1
 288 317 l 1
 488 672 l 1
 554 639 l 1
 194 -16 l 1
EndSplineSet
EndChar

StartChar: Z
Encoding: 90 90 60
Width: 516
GlyphClass: 1
Flags: W
HStem: 0 74<158 480> 592 74<78 360>
DStem2: 30 0 158 74 0.486895 0.87346<126.959 677.764>
LayerCount: 2
Fore
SplineSet
158 74 m 1
 480 74 l 1
 480 0 l 1
 30 0 l 1
 360 592 l 1
 78 592 l 1
 78 666 l 1
 486 666 l 1
 158 74 l 1
EndSplineSet
EndChar

StartChar: bracketleft
Encoding: 91 91 61
Width: 328
GlyphClass: 1
Flags: W
HStem: -146 68<155 248> 668 68<155 248>
VStem: 80 168<-146 -78 668 736> 80 75<-78 668>
LayerCount: 2
Fore
SplineSet
248 736 m 1xe0
 248 668 l 1xe0
 155 668 l 1
 155 -78 l 1xd0
 248 -78 l 1
 248 -146 l 1
 80 -146 l 1
 80 736 l 1
 248 736 l 1xe0
EndSplineSet
EndChar

StartChar: backslash
Encoding: 92 92 62
Width: 376
GlyphClass: 1
Flags: W
DStem2: 69 790 -14 790 0.334443 -0.942416<0 842.345>
LayerCount: 2
Fore
SplineSet
277 -30 m 1
 -14 790 l 1
 69 790 l 1
 360 -30 l 1
 277 -30 l 1
EndSplineSet
EndChar

StartChar: bracketright
Encoding: 93 93 63
Width: 328
GlyphClass: 1
Flags: W
HStem: -146 68<80 173> 668 68<80 173>
VStem: 80 168<-146 -78 668 736> 173 75<-78 668>
LayerCount: 2
Fore
SplineSet
80 736 m 1xe0
 248 736 l 1
 248 -146 l 1
 80 -146 l 1
 80 -78 l 1xe0
 173 -78 l 1
 173 668 l 1xd0
 80 668 l 1
 80 736 l 1xe0
EndSplineSet
EndChar

StartChar: asciicircum
Encoding: 94 94 64
Width: 420
GlyphClass: 1
Flags: W
HStem: 460 162
VStem: 94 232
DStem2: 94 506 140 460 0.707107 0.707107<0 101.116> 210 622 210 533 0.707107 -0.707107<62.9325 164.049>
LayerCount: 2
Fore
SplineSet
94 506 m 1
 210 622 l 1
 326 506 l 1
 280 460 l 1
 210 533 l 1
 140 460 l 1
 94 506 l 1
EndSplineSet
EndChar

StartChar: underscore
Encoding: 95 95 65
Width: 580
GlyphClass: 1
Flags: W
HStem: -140 70<10 570>
LayerCount: 2
Fore
SplineSet
570 -140 m 1
 10 -140 l 1
 10 -70 l 1
 570 -70 l 1
 570 -140 l 1
EndSplineSet
EndChar

StartChar: grave
Encoding: 96 96 66
Width: 420
GlyphClass: 1
Flags: W
HStem: 508 168
VStem: 129 162
DStem2: 175 676 129 630 0.689062 -0.724703<1.63949 168.345>
LayerCount: 2
Fore
SplineSet
291 554 m 1
 245 508 l 1
 129 630 l 1
 175 676 l 1
 291 554 l 1
EndSplineSet
EndChar

StartChar: a
Encoding: 97 97 67
Width: 432
GlyphClass: 1
Flags: W
HStem: -10 68<148.742 265.705> 242 68<148.742 265.705> 369 71<129 283.626>
VStem: 45 72<88.9534 211.047> 297 72<2 32 89.3091 210.691 263 355.631>
LayerCount: 2
Fore
SplineSet
117 150 m 0
 117 98 155 58 207 58 c 0
 259 58 297 98 297 150 c 0
 297 202 259 242 207 242 c 0
 155 242 117 202 117 150 c 0
45 150 m 0
 45 245 109 310 194 310 c 0
 267 310 297 263 297 263 c 1
 297 362 285 369 188 369 c 2
 108 369 l 1
 129 440 l 1
 188 440 l 2
 318 440 369 413 369 268 c 2
 369 2 l 1
 297 -6 l 1
 297 32 l 1
 297 32 267 -10 194 -10 c 0
 109 -10 45 55 45 150 c 0
EndSplineSet
Substitution2: "'ss01' Style Set 1 Oswald de Andrade-1" a.oda
EndChar

StartChar: b
Encoding: 98 98 68
Width: 532
GlyphClass: 1
Flags: W
HStem: -10 72<195.146 351.289> 368 72<194.76 351.289> 740 20G<63 135>
VStem: 63 72<2 49 378 740> 63 63<134.083 295.917> 420 73<134.912 295.088>
LayerCount: 2
Fore
SplineSet
273 62 m 0xec
 364 62 420 134 420 215 c 0
 420 296 364 368 273 368 c 0
 182 368 126 296 126 215 c 0
 126 134 182 62 273 62 c 0xec
135 378 m 1xf4
 170 413 206 440 273 440 c 0
 403 440 493 344 493 215 c 0
 493 86 403 -10 273 -10 c 0
 208 -10 170 17 135 49 c 1
 135 -6 l 1
 63 2 l 1xf4
 63 760 l 1xec
 135 740 l 1
 135 378 l 1xf4
EndSplineSet
EndChar

StartChar: c
Encoding: 99 99 69
Width: 444
GlyphClass: 1
Flags: W
HStem: -10 71<184.797 337.663> 369 71<184.797 338.101>
VStem: 39 73<134.301 295.699>
LayerCount: 2
Fore
SplineSet
401 38 m 1
 364 8 315 -10 260 -10 c 0
 130 -10 39 87 39 215 c 0
 39 343 130 440 260 440 c 0
 316 440 365 422 402 391 c 1
 379 309 l 1
 353 346 311 369 260 369 c 0
 172 369 112 299 112 215 c 0
 112 131 172 61 260 61 c 0
 311 61 353 85 379 121 c 1
 401 38 l 1
EndSplineSet
EndChar

StartChar: d
Encoding: 100 100 70
Width: 532
GlyphClass: 1
Flags: W
HStem: -10 72<183.726 337.284> 368 72<183.726 337.253> 740 20G<397 469>
VStem: 39 73<134.912 295.088> 397 72<2 49 378 740> 406 63<134.083 295.917>
LayerCount: 2
Fore
SplineSet
259 62 m 0xf4
 350 62 406 134 406 215 c 0
 406 296 350 368 259 368 c 0
 169 368 112 296 112 215 c 0
 112 134 169 62 259 62 c 0xf4
397 378 m 1xf8
 397 760 l 1
 469 740 l 1
 469 2 l 1
 397 -6 l 1
 397 49 l 1
 365 15 334 -10 259 -10 c 0
 130 -10 39 86 39 215 c 0
 39 344 130 440 259 440 c 0
 326 440 368 414 397 378 c 1xf8
EndSplineSet
EndChar

StartChar: e
Encoding: 101 101 71
Width: 496
GlyphClass: 1
Flags: W
HStem: -10 71<181.549 332.136> 369 71<182.336 333.855>
VStem: 39 73<185.034 298.29>
DStem2: 115 184 141 120 0.892157 0.451725<0 287.105>
LayerCount: 2
Fore
SplineSet
445 97 m 1
 408 31 342 -10 257 -10 c 0
 127 -10 39 87 39 215 c 0
 39 343 127 440 257 440 c 0
 345 440 433 391 457 280 c 1
 141 120 l 1
 166 85 204 61 257 61 c 0
 314 61 357 91 382 136 c 1
 445 97 l 1
372 312 m 1
 346 347 307 369 257 369 c 0
 169 369 112 299 112 215 c 0
 112 204 113 194 115 184 c 1
 372 312 l 1
EndSplineSet
EndChar

StartChar: f
Encoding: 102 102 72
Width: 313
GlyphClass: 1
Flags: W
HStem: 0 21G<83 155> 369 66<63 83 155 245> 688 72<202.629 278>
VStem: 83 72<0 369 435 640.371>
LayerCount: 2
Fore
SplineSet
278 687 m 1
 274 687 269 688 265 688 c 0
 204 688 155 639 155 578 c 2
 155 435 l 1
 245 435 l 1
 245 369 l 1
 155 369 l 1
 155 0 l 1
 83 0 l 1
 83 369 l 1
 63 369 l 1
 63 435 l 1
 83 435 l 1
 83 578 l 2
 83 678 165 760 265 760 c 2
 278 760 l 1
 278 687 l 1
EndSplineSet
Substitution2: "farch-1" f.arch
Substitution2: "'ss01' Style Set 1 Oswald de Andrade-1" f.oda
EndChar

StartChar: g
Encoding: 103 103 73
Width: 448
GlyphClass: 1
Flags: W
HStem: -200 72<163.878 290.77> 92 74<164.004 289.257> 370 70<160.872 291.128>
VStem: 45 75<-84.0071 48.0819 206.265 329.259> 331 72<205.087 329.259>
LayerCount: 2
Fore
SplineSet
121 268 m 0
 121 209 167 166 226 166 c 0
 285 166 331 209 331 268 c 0
 331 327 285 370 226 370 c 0
 167 370 121 327 121 268 c 0
49 268 m 0
 49 366 128 440 226 440 c 0
 324 440 403 366 403 268 c 0
 403 210 375 160 332 129 c 1
 340 123 348 117 355 110 c 1
 304 59 l 1
 284 79 256 92 226 92 c 0
 166 92 120 42 120 -18 c 0
 120 -78 166 -128 226 -128 c 0
 256 -128 284 -115 304 -95 c 1
 355 -146 l 1
 322 -179 276 -200 226 -200 c 4
 126 -200 45 -118 45 -18 c 0
 45 42 75 96 120 129 c 1
 77 160 49 210 49 268 c 0
EndSplineSet
Substitution2: "'ss01' Style Set 1 Oswald de Andrade-1" g.oda
EndChar

StartChar: h
Encoding: 104 104 74
Width: 463
GlyphClass: 1
Flags: W
HStem: 0 21G<63 135 341 413> 368 72<173.445 302.432> 740 20G<63 135>
VStem: 63 72<0 328.373 385 740> 341 72<0 324.396>
LayerCount: 2
Fore
SplineSet
63 0 m 1
 63 760 l 1
 135 740 l 1
 135 385 l 1
 168 422 200 440 254 440 c 0
 346 440 413 374 413 253 c 2
 413 0 l 1
 341 0 l 1
 341 250 l 2
 341 318 305 368 238 368 c 0
 171 368 135 318 135 250 c 2
 135 0 l 1
 63 0 l 1
EndSplineSet
EndChar

StartChar: i
Encoding: 105 105 75
Width: 198
GlyphClass: 1
Flags: W
HStem: 0 21G<63 135> 420 20G<63 135> 608 68<70 138> 630 70<60 130>
VStem: 63 72<0 430 630 676>
LayerCount: 2
Fore
SplineSet
60 700 m 1xd8
 138 676 l 1
 138 608 l 1xe8
 60 630 l 1
 60 700 l 1xd8
135 0 m 1
 63 0 l 1
 63 440 l 1
 135 430 l 1
 135 0 l 1
EndSplineSet
EndChar

StartChar: j
Encoding: 106 106 76
Width: 198
GlyphClass: 1
Flags: W
HStem: -220 21G<4 64.5> 420 20G<63 135> 608 68<70 138> 630 70<60 130>
VStem: 63 72<-100.282 430 630 676>
LayerCount: 2
Fore
SplineSet
60 700 m 1xd8
 138 676 l 1
 138 608 l 1xe8
 60 630 l 1
 60 700 l 1xd8
-18 -152 m 1
 42 -126 63 -71 63 -3 c 2
 63 440 l 1
 135 430 l 1
 135 -3 l 2
 135 -79 119 -174 10 -220 c 1
 -2 -193 -11 -170 -18 -152 c 1
EndSplineSet
EndChar

StartChar: k
Encoding: 107 107 77
Width: 433
GlyphClass: 1
Flags: W
HStem: 0 21G<63 135 336.143 378.259> 420 20G<309.262 415> 740 20G<63 135>
VStem: 63 72<0 186 234 740>
DStem2: 135 234 214 213 0.679543 0.733636<38.2775 282.281> 214 213 135 186 0.752577 -0.658505<0 255.97>
LayerCount: 2
Fore
SplineSet
135 186 m 1
 135 0 l 1
 63 0 l 1
 63 760 l 1
 135 740 l 1
 135 234 l 1
 328 440 l 1
 415 430 l 1
 214 213 l 1
 411 44 l 1
 359 -10 l 1
 135 186 l 1
EndSplineSet
EndChar

StartChar: l
Encoding: 108 108 78
Width: 198
GlyphClass: 1
Flags: W
HStem: 0 21G<63 135> 740 20G<63 128.455>
VStem: 63 72<0 738>
LayerCount: 2
Fore
SplineSet
63 0 m 1
 63 760 l 1
 135 738 l 5
 135 0 l 1
 63 0 l 1
EndSplineSet
EndChar

StartChar: m
Encoding: 109 109 79
Width: 701
GlyphClass: 1
Flags: W
HStem: 0 21G<63 135 321 393 579 651> 368 72<172.677 288.199 430.625 545.828>
VStem: 63 72<0 334.5 385 425> 321 72<0 334.5> 579 72<0 333.509>
CounterMasks: 1 38
LayerCount: 2
Fore
SplineSet
63 0 m 1
 63 425 l 1
 135 435 l 1
 135 385 l 1
 135 385 173 440 246 440 c 0
 316 440 356 407 378 362 c 1
 395 395 437 440 504 440 c 0
 598 440 651 380 651 283 c 2
 651 0 l 1
 579 0 l 1
 579 250 l 2
 579 318 553 368 486 368 c 0
 419 368 393 318 393 250 c 2
 393 0 l 1
 321 0 l 1
 321 250 l 2
 321 318 295 368 228 368 c 0
 161 368 135 318 135 250 c 2
 135 0 l 1
 63 0 l 1
EndSplineSet
EndChar

StartChar: n
Encoding: 110 110 80
Width: 463
GlyphClass: 1
Flags: W
HStem: 0 21G<63 135 341 413> 368 72<173.445 302.432>
VStem: 63 72<0 328.373 385 425> 341 72<0 324.396>
LayerCount: 2
Fore
SplineSet
63 0 m 1
 63 425 l 1
 135 435 l 1
 135 385 l 1
 168 422 200 440 254 440 c 0
 346 440 413 374 413 253 c 2
 413 0 l 1
 341 0 l 1
 341 250 l 2
 341 318 305 368 238 368 c 0
 171 368 135 318 135 250 c 2
 135 0 l 1
 63 0 l 1
EndSplineSet
EndChar

StartChar: o
Encoding: 111 111 81
Width: 514
GlyphClass: 1
Flags: W
HStem: -10 71<181.181 332.819> 369 71<181.181 332.819>
VStem: 39 73<134.61 295.39> 402 73<134.61 295.39>
LayerCount: 2
Fore
SplineSet
257 369 m 0
 175 369 112 302 112 215 c 0
 112 128 175 61 257 61 c 0
 339 61 402 128 402 215 c 0
 402 302 339 369 257 369 c 0
257 -10 m 4
 135 -10 39 84 39 215 c 0
 39 346 135 440 257 440 c 0
 379 440 475 346 475 215 c 0
 475 84 379 -10 257 -10 c 4
EndSplineSet
EndChar

StartChar: p
Encoding: 112 112 82
Width: 532
GlyphClass: 1
Flags: W
HStem: -220 21G<63 135> -10 72<194.76 351.289> 368 72<195.146 351.289>
VStem: 63 72<-200 52 381 425> 63 63<134.083 295.917> 420 73<134.912 295.088>
LayerCount: 2
Fore
SplineSet
273 368 m 0xec
 182 368 126 296 126 215 c 0
 126 134 182 62 273 62 c 0
 364 62 420 134 420 215 c 0
 420 296 364 368 273 368 c 0xec
135 381 m 1xf4
 170 413 208 440 273 440 c 0
 403 440 493 344 493 215 c 0
 493 86 403 -10 273 -10 c 0
 206 -10 170 17 135 52 c 1
 135 -200 l 1xf4
 63 -220 l 1xec
 63 425 l 1
 135 435 l 1
 135 381 l 1xf4
EndSplineSet
EndChar

StartChar: q
Encoding: 113 113 83
Width: 532
GlyphClass: 1
Flags: W
HStem: -220 21G<397 469> -10 72<180.711 337.24> 368 72<180.711 336.854>
VStem: 39 73<134.912 295.088> 397 72<-200 52 381 425> 406 63<134.083 295.917>
LayerCount: 2
Fore
SplineSet
259 62 m 0xf4
 350 62 406 134 406 215 c 0
 406 296 350 368 259 368 c 0
 168 368 112 296 112 215 c 0
 112 134 168 62 259 62 c 0xf4
397 435 m 1xf8
 469 425 l 1
 469 -200 l 1
 397 -220 l 5
 397 52 l 1
 362 17 326 -10 259 -10 c 0
 129 -10 39 86 39 215 c 0
 39 344 129 440 259 440 c 0
 324 440 362 413 397 381 c 1
 397 435 l 1xf8
EndSplineSet
EndChar

StartChar: r
Encoding: 114 114 84
Width: 301
GlyphClass: 1
Flags: W
HStem: 0 21G<63 135> 368 72<164.642 270.162>
VStem: 63 72<0 346.278 385 425>
LayerCount: 2
Fore
SplineSet
264 352 m 1
 252 362 233 368 213 368 c 0
 169 368 135 343 135 280 c 2
 135 0 l 1
 63 0 l 1
 63 425 l 1
 135 435 l 1
 135 385 l 1
 158 422 190 440 234 440 c 0
 254 440 274 432 289 422 c 1
 264 352 l 1
EndSplineSet
EndChar

StartChar: s
Encoding: 115 115 85
Width: 370
GlyphClass: 1
Flags: W
HStem: -10 68<125.054 235.047> 372 68<141.953 231.734>
VStem: 65 68<294.977 361.534> 261 69<84.4693 182.867>
LayerCount: 2
Fore
SplineSet
184 372 m 0
 163 372 133 355 133 324 c 0
 133 300 164 288 224 264 c 0
 248.669921875 254.131835938 330 226 330 135 c 0
 330 56 268 -10 182 -10 c 0
 83 -10 44 78 35 97 c 1
 94 136 l 1
 101 119 115 58 181 58 c 0
 244 58 261 115 261 141 c 0
 261 185 214 198 169 214 c 0
 131 228 65 250 65 323 c 0
 65 381 108 440 184 440 c 0
 240 440 278 410 295 382 c 1
 241 337 l 1
 232 354 217 372 184 372 c 0
EndSplineSet
EndChar

StartChar: t
Encoding: 116 116 86
Width: 321
GlyphClass: 1
Flags: W
HStem: -8 71<163.106 254> 369 66<35 85 157 281>
VStem: 85 72<70.355 369 435 610>
LayerCount: 2
Fore
SplineSet
85 369 m 1
 35 369 l 1
 35 435 l 1
 85 435 l 1
 85 632 l 1
 157 610 l 1
 157 435 l 1
 281 435 l 1
 281 369 l 1
 157 369 l 1
 157 114 l 2
 157 71 177 63 214 63 c 0
 231 63 252 64 270 65 c 1
 254 -7 l 1
 243 -8 218 -8 208 -8 c 0
 126 -8 85 18 85 108 c 2
 85 369 l 1
EndSplineSet
EndChar

StartChar: u
Encoding: 117 117 87
Width: 473
GlyphClass: 1
Flags: W
HStem: -10 72<163.3 298.827> 420 20G<50 122>
VStem: 50 72<105.204 430> 338 72<2 45 100.681 435>
LayerCount: 2
Fore
SplineSet
338 45 m 1
 305 6 263 -10 214 -10 c 0
 120 -10 50 55 50 177 c 2
 50 440 l 1
 122 430 l 1
 122 180 l 2
 122 109 163 62 232 62 c 0
 298 62 338 105 338 179 c 2
 338 435 l 1
 410 435 l 1
 410 2 l 1
 338 -8 l 1
 338 45 l 1
EndSplineSet
EndChar

StartChar: v
Encoding: 118 118 88
Width: 460
GlyphClass: 1
Flags: W
DStem2: 86 435 5 435 0.44484 -0.89561<0 328.262> 230 140 230 -18 0.44484 0.89561<0 328.262>
LayerCount: 2
Fore
SplineSet
374 435 m 1
 455 435 l 1
 230 -18 l 1
 5 435 l 1
 86 435 l 1
 230 140 l 1
 374 435 l 1
EndSplineSet
EndChar

StartChar: w
Encoding: 119 119 89
Width: 671
GlyphClass: 1
Flags: W
HStem: 420 20G<14.476 91 243.202 320>
DStem2: 91 430 5 440 0.428171 -0.903698<0 318.163> 222 140 336.599 223.456 0.428773 0.903412<0 124.532> 320 430 234 440 0.428171 -0.903698<0 106.637 193.76 318.163> 451 140 451 -18 0.428772 0.903413<0 323.962>
LayerCount: 2
Fore
SplineSet
585 435 m 1
 666 435 l 1
 451 -18 l 1
 336.598632812 223.456054688 l 1
 222 -18 l 1
 5 440 l 1
 91 430 l 1
 222 140 l 1
 297.747070312 301.456054688 l 1
 234 440 l 1
 320 430 l 1
 451 140 l 1
 585 435 l 1
EndSplineSet
EndChar

StartChar: x
Encoding: 120 120 90
Width: 440
GlyphClass: 1
Flags: W
HStem: -7 21G<16 108.162 350.106 393.095> 420 20G<329.663 422>
DStem2: 16 8 94 -7 0.604709 0.796446<35.2206 35.2206 338.239 542.409> 101 444 42 402 0.616978 -0.786981<0 0 285.842 520.171>
LayerCount: 2
Fore
SplineSet
225 178 m 1
 94 -7 l 1
 16 8 l 1
 180 227 l 1
 42 402 l 1
 101 444 l 1
 225 274 l 1
 344 440 l 1
 422 428 l 1
 269 227 l 1
 424 32 l 1
 365 -10 l 1
 225 178 l 1
EndSplineSet
EndChar

StartChar: y
Encoding: 121 121 91
Width: 440
GlyphClass: 1
Flags: W
DStem2: 86 435 5 435 0.422377 -0.90642<0 323.992> 56.3047 -199.911 135 -210 0.421731 0.906721<24.0404 289.919 377.24 701.235>
LayerCount: 2
Fore
SplineSet
178.3046875 63.0888671875 m 1
 5 435 l 1
 86 435 l 1
 220 140 l 1
 354 435 l 1
 435 435 l 1
 135 -210 l 1
 56.3046875 -199.911132812 l 1
 178.3046875 63.0888671875 l 1
EndSplineSet
EndChar

StartChar: z
Encoding: 122 122 92
Width: 390
GlyphClass: 1
Flags: W
HStem: 0 72<150 362> 363 72<61 243>
DStem2: 25 0 150 72 0.514843 0.857284<126.08 423.43>
LayerCount: 2
Fore
SplineSet
243 363 m 5
 61 363 l 5
 61 435 l 1
 365 435 l 1
 150 72 l 1
 362 72 l 1
 362 0 l 1
 25 0 l 1
 243 363 l 5
EndSplineSet
EndChar

StartChar: braceleft
Encoding: 123 123 93
Width: 358
GlyphClass: 1
Flags: W
HStem: -140 68<187.86 278> 271 48<40 96.903> 662 68<187.86 278>
VStem: 110 69<-61.7055 189.098 400.902 651.705> 121 76<-31.2242 246.648 343.352 621.224>
CounterMasks: 1 e0
LayerCount: 2
Fore
SplineSet
121 394 m 0xe8
 121 435 119 467 116 501 c 0
 113 538 110 576 110 630 c 0
 110 651 117 673 133 690 c 0
 148 706 171 720 204 726 c 0
 222 729 244 730 268 730 c 2
 278 730 l 1
 278 662 l 1
 268 662 l 2
 266 662 244 662 221 659 c 0
 207 657 195 649 190 643 c 0
 187 640 179 629 179 616 c 0xf0
 179 594 184 571 186 551 c 0
 191 504 197 444 197 404 c 0
 197 345 156 310 131 295 c 1
 156 280 197 245 197 186 c 0xe8
 197 146 191 86 186 39 c 0
 184 19 179 -4 179 -26 c 0
 179 -39 187 -50 190 -53 c 0
 195 -59 207 -67 221 -69 c 0
 244 -72 266 -72 268 -72 c 2
 278 -72 l 1
 278 -140 l 1
 268 -140 l 2
 244 -140 222 -139 204 -136 c 0
 171 -130 148 -116 133 -100 c 0
 117 -83 110 -61 110 -40 c 0xf0
 110 14 113 52 116 89 c 0
 119 123 121 155 121 196 c 0
 121 262 50 270 49 270 c 2
 40 271 l 1
 40 319 l 1
 49 320 l 2
 50 320 121 328 121 394 c 0xe8
EndSplineSet
EndChar

StartChar: bar
Encoding: 124 124 94
Width: 180
GlyphClass: 1
Flags: W
VStem: 55 70<-200 790>
LayerCount: 2
Fore
SplineSet
125 -200 m 1
 55 -200 l 1
 55 790 l 1
 125 790 l 1
 125 -200 l 1
EndSplineSet
EndChar

StartChar: braceright
Encoding: 125 125 95
Width: 358
GlyphClass: 1
Flags: W
HStem: -140 68<80 170.14> 270 50<259.518 318> 662 68<80 170.14>
VStem: 161 76<-31.2242 246.648 343.352 621.224> 179 69<-61.7055 189.098 400.902 651.705>
CounterMasks: 1 e0
LayerCount: 2
Fore
SplineSet
237 394 m 0xf0
 237 328 308 320 309 320 c 2
 318 319 l 1
 318 271 l 1
 309 270 l 2
 308 270 237 262 237 196 c 0xf0
 237 155 239 123 242 89 c 0
 245 52 248 14 248 -40 c 0
 248 -61 241 -83 225 -100 c 0
 210 -116 187 -130 154 -136 c 0
 136 -139 114 -140 90 -140 c 2
 80 -140 l 1
 80 -72 l 1
 90 -72 l 2
 92 -72 114 -72 137 -69 c 0
 151 -67 163 -59 168 -53 c 0
 171 -50 179 -39 179 -26 c 0xe8
 179 -4 174 19 172 39 c 0
 167 86 161 146 161 186 c 0
 161 245 202 280 227 295 c 1
 202 310 161 345 161 404 c 0xf0
 161 444 167 504 172 551 c 0
 174 571 179 594 179 616 c 0
 179 629 171 640 168 643 c 0
 163 649 151 657 137 659 c 0
 114 662 92 662 90 662 c 2
 80 662 l 1
 80 730 l 1
 90 730 l 2
 114 730 136 729 154 726 c 0
 187 720 210 706 225 690 c 0
 241 673 248 651 248 630 c 0xe8
 248 576 245 538 242 501 c 0
 239 467 237 435 237 394 c 0xf0
EndSplineSet
EndChar

StartChar: asciitilde
Encoding: 126 126 96
Width: 420
GlyphClass: 1
Flags: W
HStem: 195 72<201.531 296.224> 230 73<129.419 223.797>
VStem: 57 306
DStem2: 172 299 166 227 0.958452 -0.285254<0.651436 109.494>
LayerCount: 2
Fore
SplineSet
152 230 m 0x60
 140 230 135 227 132 222 c 0
 128 216 125 203 123 193 c 1
 57 218 l 1
 59 227 l 2
 72 275 101 303 144 303 c 0x60
 154 303 162 302 172 299 c 2
 251 272 l 2
 263 268 271 267 277 267 c 0
 290 267 295 276 297 293 c 2
 298 305 l 1
 363 287 l 1
 363 279 l 2
 363 232 332 195 288 195 c 0xa0
 277 195 265 197 250 202 c 2
 166 227 l 2
 162 228 155 230 152 230 c 0x60
EndSplineSet
EndChar

StartChar: exclamdown
Encoding: 161 161 97
Width: 480
GlyphClass: 2
Flags: W
HStem: 394 72<203 275> 404 72<205 277>
VStem: 203 74<-200 314 404 466>
LayerCount: 2
Fore
SplineSet
203 394 m 1xa0
 203 466 l 1xa0
 277 476 l 1
 277 404 l 1x60
 203 394 l 1xa0
199 -200 m 1
 205 314 l 1
 275 314 l 1
 281 -200 l 1
 199 -200 l 1
EndSplineSet
EndChar

StartChar: cent
Encoding: 162 162 98
Width: 429
GlyphClass: 2
Flags: W
HStem: 0 21G<222 280> 76 69<176.032 222 280 339.023> 433 69<176.032 222 280 339.023>
VStem: 46 70<210.526 367.474> 222 58<0 76.8011 145 433 501.199 578>
LayerCount: 2
Fore
SplineSet
222 433 m 1
 158 417 116 357 116 289 c 0
 116 221 158 161 222 145 c 1
 222 433 l 1
222 76 m 1
 117 92 46 178 46 289 c 0
 46 400 117 486 222 502 c 1
 222 578 l 1
 280 578 l 1
 280 504 l 1
 314 501 346 491 372 474 c 1
 372 379 l 1
 351 409 319 429 280 435 c 1
 280 143 l 1
 319 149 351 169 372 199 c 1
 372 104 l 1
 346 87 314 77 280 74 c 1
 280 0 l 1
 222 0 l 1
 222 76 l 1
EndSplineSet
EndChar

StartChar: sterling
Encoding: 163 163 99
Width: 575
GlyphClass: 2
Flags: W
HStem: -14 75<311.157 455.318> 13 75<80 150.316> 284 66<111 173 268 333> 603 75<257.739 400.755>
VStem: 136 78<387.804 560.17> 198 75<135.118 284>
LayerCount: 2
Fore
SplineSet
396 61 m 0xb4
 433 61 458 84 478 102 c 1
 525 38 l 1
 505 20 466 -14 396 -14 c 0xb4
 303 -14 277 37 178 40 c 1
 150 23 117 13 80 13 c 1
 80 88 l 1
 118 88 198 109 198 212 c 0x74
 198 240 196 264 192 284 c 1
 111 284 l 1
 91 350 l 1
 173 350 l 1
 156 394 136 427 136 494 c 0
 136 592 207 678 323 678 c 0
 395 678 444 646 479 614 c 1
 437 547 l 1
 409 585 372 603 323 603 c 0
 257 603 214 552 214 494 c 0x78
 214 426 234 396 251 350 c 1
 333 350 l 1
 348 284 l 1
 268 284 l 1
 271 264 273 240 273 212 c 0
 273 172 261 134 241 102 c 1
 315 90 340 61 396 61 c 0xb4
EndSplineSet
EndChar

StartChar: currency
Encoding: 164 164 100
Width: 552
GlyphClass: 2
Flags: W
HStem: 70 71<198.654 353.346> 449 71<198.654 353.346>
VStem: 55 73<213.191 377.623> 424 73<212.377 376.809>
DStem2: 96 520 55 475 0.703589 -0.710607<3.13018 66.1946 506.871 569.935> 55 115 96 70 0.703589 0.710607<0 63.0644 503.74 566.805>
LayerCount: 2
Fore
SplineSet
276 449 m 0
 188 449 128 379 128 295 c 0
 128 211 188 141 276 141 c 0
 364 141 424 211 424 295 c 0
 424 379 364 449 276 449 c 0
455 433 m 1
 482 395 497 348 497 295 c 0
 497 243 482 195 455 158 c 1
 497 115 l 1
 456 70 l 1
 412 114 l 1
 375 86 329 70 276 70 c 0
 223 70 177 86 140 114 c 1
 96 70 l 1
 55 115 l 1
 97 157 l 1
 70 195 55 242 55 295 c 0
 55 347 70 395 97 432 c 1
 55 475 l 1
 96 520 l 1
 140 476 l 1
 177 504 223 520 276 520 c 0
 329 520 375 504 412 476 c 1
 456 520 l 1
 497 475 l 1
 455 433 l 1
EndSplineSet
EndChar

StartChar: yen
Encoding: 165 165 101
Width: 572
GlyphClass: 2
Flags: W
HStem: 0 21G<248 324> 188 70<159 248 324 413> 318 70<159 199 372 413> 646 20G<5 109.818 462.182 567>
VStem: 5 91<575 666> 248 76<0 188 258 318> 476 91<575 666>
DStem2: 96 666 5 666 0.572274 -0.820063<0 286.922> 286 391 372 388 0.574253 0.818678<46.9297 334.244>
CounterMasks: 1 0e
LayerCount: 2
Fore
SplineSet
324 0 m 1
 248 0 l 1
 248 188 l 1
 159 188 l 1
 159 258 l 1
 248 258 l 1
 248 318 l 1
 159 318 l 1
 159 388 l 1
 199 388 l 1
 5 666 l 1
 96 666 l 1
 286 391 l 1
 476 666 l 1
 567 666 l 1
 372 388 l 1
 413 388 l 1
 413 318 l 1
 324 318 l 1
 324 258 l 1
 413 258 l 1
 413 188 l 1
 324 188 l 1
 324 0 l 1
EndSplineSet
EndChar

StartChar: brokenbar
Encoding: 166 166 102
Width: 180
GlyphClass: 2
Flags: W
VStem: 55 70<-200 250 340 790>
LayerCount: 2
Fore
SplineSet
55 340 m 1
 55 790 l 1
 125 790 l 1
 125 340 l 1
 55 340 l 1
125 250 m 1
 125 -200 l 1
 55 -200 l 1
 55 250 l 1
 125 250 l 1
EndSplineSet
EndChar

StartChar: section
Encoding: 167 167 103
Width: 462
GlyphClass: 2
Flags: W
HStem: -10 64<182.065 278.606> 602 64<185.543 289.7>
VStem: 75 66<287.549 388.319> 95 76<501.643 587.455> 291 76<68.0846 154.302> 321 66<267.972 368.666>
LayerCount: 2
Fore
SplineSet
237 602 m 0xd0
 222 602 171 594 171 543 c 0
 171 450 387 484 387 319 c 0xd4
 387 275 365 241 326 209 c 1
 348 183 367 154 367 113 c 0
 367 34 300 -10 231 -10 c 0
 133 -10 100 66 86 98 c 1
 144 138 l 1
 170 70 205 54 230 54 c 0
 245 54 291 62 291 113 c 0
 291 206 75 172 75 337 c 0xe8
 75 380 96 413 136 446 c 1
 116 470 95 500 95 543 c 0
 95 622 162 666 231 666 c 0
 319 666 362 610 376 578 c 1
 318 538 l 1
 302 587 262 602 237 602 c 0xd0
141 339 m 0xe4
 141 291 191 248 242 248 c 0
 301 248 321 288 321 317 c 0
 321 366 270 408 220 408 c 0
 161 408 141 368 141 339 c 0xe4
EndSplineSet
EndChar

StartChar: dieresis
Encoding: 168 168 104
Width: 420
GlyphClass: 2
Flags: W
HStem: 653 56<127 183 255 311> 663 56<109 165 237 293>
VStem: 109 74<663 709> 237 74<663 709>
LayerCount: 2
Fore
SplineSet
237 719 m 1x70
 311 709 l 1
 311 653 l 1xb0
 237 663 l 1
 237 719 l 1x70
109 719 m 1x70
 183 709 l 1
 183 653 l 1xb0
 109 663 l 1
 109 719 l 1x70
EndSplineSet
EndChar

StartChar: copyright
Encoding: 169 169 105
Width: 800
GlyphClass: 2
Flags: W
HStem: 61 65<292.95 507.05> 196 64<327.677 479.817> 554 64<327.677 479.753> 688 65<292.95 507.05>
VStem: 52 73<296.655 517.345> 191 65<330.782 483.218> 675 73<296.655 517.345>
LayerCount: 2
Fore
SplineSet
403 196 m 0
 283 196 191 292 191 407 c 0
 191 522 283 618 403 618 c 0
 453 618 498 601 534 573 c 2
 540 569 l 1
 519 499 l 1
 507 511 l 2
 481 537 444 554 403 554 c 0
 321 554 256 487 256 407 c 0
 256 327 321 260 403 260 c 0
 444 260 481 277 507 303 c 2
 519 315 l 1
 538 244 l 1
 521 231 475 196 403 196 c 0
400 688 m 0
 243 688 125 564 125 407 c 0
 125 250 243 126 400 126 c 0
 557 126 675 250 675 407 c 0
 675 564 557 688 400 688 c 0
400 61 m 0
 204 61 52 217 52 407 c 0
 52 597 204 753 400 753 c 0
 596 753 748 597 748 407 c 0
 748 217 596 61 400 61 c 0
EndSplineSet
EndChar

StartChar: ordfeminine
Encoding: 170 170 106
Width: 460
GlyphClass: 2
Flags: W
HStem: 130 66<194 260> 137 67<138 205> 272 60<135.786 262.719> 526 61<135.786 262.452>
VStem: 35 62<369.715 488.354> 138 122<137 196> 304 51<279 313 373.097 484.903 543 583>
DStem2: 138 204 138 137 0.997857 -0.0654332<4.38403 122.262>
LayerCount: 2
Fore
SplineSet
138 204 m 1x7e
 260 196 l 1
 260 130 l 1xbe
 138 137 l 1
 138 204 l 1x7e
199 332 m 0
 256 332 301 376 301 429 c 0
 301 482 256 526 199 526 c 0
 142 526 97 482 97 429 c 0
 97 376 142 332 199 332 c 0
304 543 m 1
 304 587 l 1
 355 583 l 1
 355 279 l 1
 304 274 l 1
 304 313 l 1
 279 290 242 272 199 272 c 0
 110 272 35 339 35 429 c 0
 35 519 110 587 199 587 c 0
 244 587 280 567 304 543 c 1
EndSplineSet
EndChar

StartChar: guillemotleft
Encoding: 171 171 107
Width: 460
GlyphClass: 2
Flags: W
HStem: 68 302
DStem2: 45 219 133 219 0.685064 0.728483<60.2856 205.196> 133 219 45 219 0.685064 -0.728483<0 144.91> 205 219 293 219 0.685064 0.728483<60.2856 205.196> 293 219 205 219 0.685064 -0.728483<0 144.91>
LayerCount: 2
Fore
SplineSet
395 116 m 1
 347 68 l 1
 205 219 l 1
 347 370 l 1
 395 322 l 1
 293 219 l 1
 395 116 l 1
235 116 m 1
 187 68 l 1
 45 219 l 1
 187 370 l 1
 235 322 l 1
 133 219 l 1
 235 116 l 1
EndSplineSet
EndChar

StartChar: logicalnot
Encoding: 172 172 108
Width: 560
GlyphClass: 2
Flags: W
HStem: 315 70<103 413>
VStem: 413 72<159 315>
LayerCount: 2
Fore
SplineSet
103 315 m 1
 89 385 l 1
 485 385 l 1
 485 315 l 1
 485 159 l 1
 413 159 l 1
 413 315 l 1
 103 315 l 1
EndSplineSet
EndChar

StartChar: registered
Encoding: 174 174 109
Width: 800
GlyphClass: 2
Flags: W
HStem: 61 65<292.95 507.05> 369 53<409 448.637> 556 57<351 452.015> 688 65<292.95 507.05>
VStem: 52 73<296.655 517.345> 294 57<207 364 422 556> 468 52<442.159 540.063> 675 73<296.655 517.345>
DStem2: 409 369 351 364 0.603953 -0.79702<0 170.958>
LayerCount: 2
Fore
SplineSet
399 422 m 2
 433 422 468 450 468 489 c 0
 468 537 433 556 399 556 c 2
 351 556 l 1
 351 422 l 1
 399 422 l 2
351 207 m 1
 294 207 l 1
 294 613 l 1
 399 613 l 2
 457 613 520 570 520 489 c 0
 520 412 462 369 409 369 c 1
 527 221 l 1
 473 203 l 1
 351 364 l 1
 351 207 l 1
400 688 m 0
 243 688 125 564 125 407 c 0
 125 250 243 126 400 126 c 0
 557 126 675 250 675 407 c 0
 675 564 557 688 400 688 c 0
400 61 m 0
 204 61 52 217 52 407 c 0
 52 597 204 753 400 753 c 0
 596 753 748 597 748 407 c 0
 748 217 596 61 400 61 c 0
EndSplineSet
EndChar

StartChar: macron
Encoding: 175 175 110
Width: 420
GlyphClass: 2
Flags: W
HStem: 511 68<76 344>
VStem: 76 268<511 579>
LayerCount: 2
Fore
SplineSet
76 579 m 1
 344 579 l 1
 344 511 l 1
 76 511 l 1
 76 579 l 1
EndSplineSet
EndChar

StartChar: degree
Encoding: 176 176 111
Width: 306
GlyphClass: 2
Flags: W
HStem: 429 58<103.864 202.136> 622 56<104.405 201.595>
VStem: 30 56<504.497 603.487> 220 56<504.497 603.487>
LayerCount: 2
Fore
SplineSet
86 554 m 0
 86 516 115 487 153 487 c 0
 191 487 220 516 220 554 c 0
 220 592 191 622 153 622 c 0
 115 622 86 592 86 554 c 0
153 429 m 0
 84 429 30 484 30 554 c 0
 30 623 84 678 153 678 c 0
 222 678 276 623 276 554 c 0
 276 484 222 429 153 429 c 0
EndSplineSet
EndChar

StartChar: plusminus
Encoding: 177 177 112
Width: 460
GlyphClass: 2
Flags: W
HStem: 125 70<70 390> 355 70<70 195 265 390>
VStem: 195 70<240 355 425 540>
LayerCount: 2
Fore
SplineSet
60 125 m 1
 70 195 l 1
 400 195 l 1
 390 125 l 1
 60 125 l 1
265 425 m 1
 400 425 l 1
 390 355 l 1
 265 355 l 1
 265 230 l 1
 195 240 l 1
 195 355 l 1
 60 355 l 1
 70 425 l 1
 195 425 l 1
 195 550 l 1
 265 540 l 1
 265 425 l 1
EndSplineSet
EndChar

StartChar: uni00B2
Encoding: 178 178 113
Width: 388
GlyphClass: 2
Flags: W
HStem: 388 62<185 336> 768 62<140.834 251.231>
VStem: 276 60<621.925 743.775>
DStem2: 232 591 185 450 0.67948 0.733694<-135.386 83.4964>
LayerCount: 2
Fore
SplineSet
185 450 m 1
 336 450 l 1
 336 388 l 1
 44 388 l 1
 232 591 l 2
 246 607 276 647 276 689 c 0
 276 734 241 768 197 768 c 0
 171 768 146 755 130 736 c 2
 125 730 l 1
 74 767 l 1
 78 773 l 2
 104 808 146 830 197 830 c 0
 280 830 338 770 338 685 c 0
 338 621 304 579 271 543 c 2
 185 450 l 1
EndSplineSet
EndChar

StartChar: uni00B3
Encoding: 179 179 114
Width: 374
GlyphClass: 2
Flags: W
HStem: 378 62<111.986 230.317> 760 62<86 209>
VStem: 262 62<472.027 590.118>
LayerCount: 2
Fore
SplineSet
70 760 m 1
 86 822 l 1
 298 822 l 1
 236 669 l 1
 281 649 324 599 324 531 c 0
 324 451 262 378 171 378 c 0
 99 378 55 424 34 465 c 2
 32 469 l 1
 77 529 l 1
 81 514 l 2
 91 474 121 440 171 440 c 0
 226 440 262 483 262 531 c 0
 262 570 237 622 162 622 c 2
 151 622 l 1
 209 760 l 1
 70 760 l 1
EndSplineSet
EndChar

StartChar: acute
Encoding: 180 180 115
Width: 420
GlyphClass: 2
Flags: W
HStem: 508 168
VStem: 129 162
DStem2: 129 554 175 508 0.689062 0.724703<0 166.705>
LayerCount: 2
Fore
SplineSet
129 554 m 1
 245 676 l 1
 291 630 l 1
 175 508 l 1
 129 554 l 1
EndSplineSet
EndChar

StartChar: mu
Encoding: 181 181 116
Width: 486
GlyphClass: 2
Flags: W
HStem: -10 72<175.949 312.05> 0 21G<351 423> 420 20G<63 135>
VStem: 63 72<-160 38 104.682 430> 351 72<10 45 100.681 435>
LayerCount: 2
Fore
SplineSet
135 180 m 2xb8
 135 109 176 62 245 62 c 0xb8
 311 62 351 105 351 179 c 2
 351 435 l 1
 423 435 l 1
 423 10 l 1
 351 0 l 1x78
 351 45 l 1
 351 45 312 -10 237 -10 c 0
 199 -10 164 8 135 38 c 1
 135 -160 l 1
 63 -174 l 1
 63 440 l 1
 135 430 l 1
 135 180 l 2xb8
EndSplineSet
EndChar

StartChar: paragraph
Encoding: 182 182 117
Width: 700
GlyphClass: 2
Flags: W
HStem: 0 21G<361 419 487 545> 318 50<419 487 545 595> 616 50<419 487 545 595>
VStem: 165 254<409.104 574.896> 361 58<0 318> 487 58<0 318 368 616>
LayerCount: 2
Fore
SplineSet
339 666 m 2xf4
 595 666 l 1
 603 616 l 1
 545 616 l 1
 545 368 l 1
 595 368 l 1
 603 318 l 1
 545 318 l 1
 545 0 l 1
 487 0 l 1
 487 318 l 1
 419 318 l 1
 419 0 l 1
 361 0 l 1
 361 318 l 1xec
 339 318 l 2
 243 318 165 396 165 492 c 0
 165 588 243 666 339 666 c 2xf4
419 616 m 1
 419 368 l 1
 487 368 l 1
 487 616 l 1
 419 616 l 1
EndSplineSet
EndChar

StartChar: periodcentered
Encoding: 183 183 118
Width: 406
GlyphClass: 2
Flags: W
HStem: 177 106<150 256> 191 106<150 256>
VStem: 150 106<191 283>
LayerCount: 2
Fore
SplineSet
256 283 m 1xa0
 256 177 l 1xa0
 150 191 l 1
 150 297 l 1x60
 256 283 l 1xa0
EndSplineSet
EndChar

StartChar: cedilla
Encoding: 184 184 119
Width: 420
GlyphClass: 2
Flags: W
HStem: -233 123
VStem: 146 128
LayerCount: 2
Fore
SplineSet
146 -222 m 1
 208 -110 l 1
 274 -121 l 1
 201 -233 l 1
 146 -222 l 1
EndSplineSet
EndChar

StartChar: uni00B9
Encoding: 185 185 120
Width: 312
GlyphClass: 2
Flags: W
VStem: 170 62<386 726>
DStem2: 65 750 65 683 0.906044 0.423182<0 84.9783>
LayerCount: 2
Fore
SplineSet
65 683 m 1
 65 750 l 1
 232 828 l 1
 232 386 l 1
 170 386 l 1
 170 726 l 1
 65 683 l 1
EndSplineSet
EndChar

StartChar: ordmasculine
Encoding: 186 186 121
Width: 450
GlyphClass: 2
Flags: W
HStem: 130 66<185 251> 137 67<129 196> 273 59<130.378 249.622> 528 59<130.378 249.622>
VStem: 35 61<367.123 492.877> 129 122<137 196> 284 61<367.123 492.877>
DStem2: 129 204 129 137 0.997857 -0.0654332<4.38403 122.262>
CounterMasks: 1 0e
LayerCount: 2
Fore
SplineSet
129 204 m 1x7e
 251 196 l 1
 251 130 l 1xbe
 129 137 l 1
 129 204 l 1x7e
190 528 m 0
 133 528 96 483 96 430 c 0
 96 377 133 332 190 332 c 0
 247 332 284 377 284 430 c 0
 284 483 247 528 190 528 c 0
190 273 m 0
 99 273 35 341 35 430 c 0
 35 519 99 587 190 587 c 0
 281 587 345 519 345 430 c 0
 345 341 281 273 190 273 c 0
EndSplineSet
EndChar

StartChar: guillemotright
Encoding: 187 187 122
Width: 460
GlyphClass: 2
Flags: W
HStem: 68 302
DStem2: 93 370 45 322 0.685064 -0.728483<2.08414 146.994> 45 116 93 68 0.685064 0.728483<0 144.91> 253 370 205 322 0.685064 -0.728483<2.08414 146.994> 205 116 253 68 0.685064 0.728483<0 144.91>
LayerCount: 2
Fore
SplineSet
205 116 m 1
 307 219 l 1
 205 322 l 1
 253 370 l 1
 395 219 l 1
 253 68 l 1
 205 116 l 1
45 116 m 1
 147 219 l 1
 45 322 l 1
 93 370 l 1
 235 219 l 1
 93 68 l 1
 45 116 l 1
EndSplineSet
EndChar

StartChar: onequarter
Encoding: 188 188 123
Width: 790
GlyphClass: 2
Flags: W
HStem: 0 21G<183 258.949 628 690> 51 62<503 628 690 750> 646 20G<167.179 210 472.051 548>
VStem: 148 62<236 576> 537 64<371 435> 628 62<0 51 113 214>
DStem2: 43 600 43 533 0.906044 0.423182<0 84.9783> 183 0 250 0 0.408426 0.912791<27.3646 729.63>
LayerCount: 2
Fore
SplineSet
548 666 m 1
 250 0 l 1
 183 0 l 1
 481 666 l 1
 548 666 l 1
43 533 m 1
 43 600 l 1
 210 678 l 1
 210 236 l 1
 148 236 l 1
 148 576 l 1
 43 533 l 1
537 435 m 1
 601 435 l 1
 566 295 549 239 503 113 c 1
 628 113 l 1
 628 214 l 1
 690 230 l 1
 690 113 l 1
 750 113 l 1
 750 51 l 1
 690 51 l 1
 690 0 l 1
 628 0 l 1
 628 51 l 1
 408 51 l 1
 476 212 497 265 537 435 c 1
EndSplineSet
EndChar

StartChar: onehalf
Encoding: 189 189 124
Width: 800
GlyphClass: 2
Flags: W
HStem: 0 62<594 745> 380 62<549.834 660.231> 658 8G<167.179 210 468.051 544>
VStem: 148 62<236 576> 685 60<233.925 355.775>
DStem2: 43 600 43 533 0.906044 0.423182<0 84.9783> 179 0 246 0 0.408426 0.912791<27.3646 729.63> 641 203 594 62 0.67948 0.733694<-135.386 83.4964>
LayerCount: 2
Fore
SplineSet
43 533 m 1
 43 600 l 1
 210 678 l 1
 210 236 l 1
 148 236 l 1
 148 576 l 1
 43 533 l 1
594 62 m 1
 745 62 l 1
 745 0 l 1
 453 0 l 1
 641 203 l 2
 655 219 685 259 685 301 c 0
 685 346 650 380 606 380 c 0
 580 380 555 367 539 348 c 2
 534 342 l 1
 483 379 l 1
 487 385 l 2
 513 420 555 442 606 442 c 0
 689 442 747 382 747 297 c 0
 747 233 713 191 680 155 c 2
 594 62 l 1
544 666 m 1
 246 0 l 1
 179 0 l 1
 477 666 l 1
 544 666 l 1
EndSplineSet
EndChar

StartChar: threequarters
Encoding: 190 190 125
Width: 840
GlyphClass: 2
Flags: W
HStem: 0 21G<243 318.949 678 740> 51 62<553 678 740 800> 222 62<117.986 236.317> 604 62<92 215>
VStem: 268 62<316.027 434.118> 587 64<371 435> 678 62<0 51 113 214>
DStem2: 243 0 310 0 0.408426 0.912791<27.3646 729.63>
LayerCount: 2
Fore
SplineSet
76 604 m 1
 92 666 l 1
 304 666 l 1
 242 513 l 1
 287 493 330 443 330 375 c 0
 330 295 268 222 177 222 c 0
 105 222 61 268 40 309 c 2
 38 313 l 1
 83 373 l 1
 87 358 l 2
 97 318 127 284 177 284 c 0
 232 284 268 327 268 375 c 0
 268 414 243 466 168 466 c 2
 157 466 l 1
 215 604 l 1
 76 604 l 1
608 666 m 1
 310 0 l 1
 243 0 l 1
 541 666 l 1
 608 666 l 1
587 435 m 1
 651 435 l 1
 616 295 599 239 553 113 c 1
 678 113 l 1
 678 214 l 1
 740 230 l 1
 740 113 l 1
 800 113 l 1
 800 51 l 1
 740 51 l 1
 740 0 l 1
 678 0 l 1
 678 51 l 1
 458 51 l 1
 526 212 547 265 587 435 c 1
EndSplineSet
EndChar

StartChar: questiondown
Encoding: 191 191 126
Width: 480
GlyphClass: 2
Flags: W
HStem: -200 75<174.93 307.862> -19 20G<348.5 426> 406 72<203 275> 417 72<205 277>
VStem: 60 75<-86.0812 46.8715> 203 74<417 478> 234 74<211.645 330.322> 351 75<-81.8494 -17>
LayerCount: 2
Fore
SplineSet
426 -17 m 1xcb
 426 -123 339 -200 243 -200 c 0
 142 -200 60 -133 60 -17 c 0
 60 129 234 181 234 259 c 0
 234 298 210 334 210 334 c 1
 284 334 l 1
 284 334 308 296 308 255 c 0
 308 133 135 98 135 -17 c 0
 135 -78 173 -125 243 -125 c 0
 298 -125 351 -82 351 -17 c 0
 351 -11 349 -2 348 1 c 1
 426 -17 l 1xcb
203 406 m 1xed
 203 478 l 1xed
 277 489 l 1
 277 417 l 1xdd
 203 406 l 1xed
EndSplineSet
EndChar

StartChar: Agrave
Encoding: 192 192 127
Width: 618
GlyphClass: 2
Flags: W
HStem: -6 21G<18 102.571 515.429 600> 246 72<232 386>
DStem2: 18 6 94 -6 0.394902 0.918723<18.9879 293.156 371.151 572.441> 239 911 193 865 0.689062 -0.724703<1.63949 168.345> 309 683 309 504 0.394902 -0.918723<164.451 365.741 443.737 717.904>
LayerCount: 2
Fore
SplineSet
355 789 m 1
 309 743 l 1
 193 865 l 1
 239 911 l 1
 355 789 l 1
94 -6 m 1
 18 6 l 1
 309 683 l 1
 600 6 l 1
 524 -6 l 1
 416 246 l 1
 202 246 l 1
 94 -6 l 1
386 318 m 1
 309 504 l 1
 232 318 l 1
 386 318 l 1
EndSplineSet
EndChar

StartChar: Aacute
Encoding: 193 193 128
Width: 618
GlyphClass: 2
Flags: W
HStem: -6 21G<18 102.571 515.429 600> 246 72<232 386>
DStem2: 18 6 94 -6 0.394902 0.918723<18.9879 293.156 371.151 572.441> 263 789 309 743 0.689062 0.724703<0 166.705> 309 683 309 504 0.394902 -0.918723<164.451 365.741 443.737 717.904>
LayerCount: 2
Fore
SplineSet
263 789 m 1
 379 911 l 1
 425 865 l 1
 309 743 l 1
 263 789 l 1
94 -6 m 1
 18 6 l 1
 309 683 l 1
 600 6 l 1
 524 -6 l 1
 416 246 l 1
 202 246 l 1
 94 -6 l 1
386 318 m 1
 309 504 l 1
 232 318 l 1
 386 318 l 1
EndSplineSet
EndChar

StartChar: Acircumflex
Encoding: 194 194 129
Width: 618
GlyphClass: 2
Flags: W
HStem: -6 21G<18 102.571 515.429 600> 246 72<232 386>
DStem2: 18 6 94 -6 0.394902 0.918723<18.9879 293.156 371.151 572.441> 193 789 239 743 0.707107 0.707107<0 101.116> 309 905 309 816 0.707107 -0.707107<62.9325 164.049> 309 683 309 504 0.394902 -0.918723<164.451 365.741 443.737 717.904>
LayerCount: 2
Fore
SplineSet
193 789 m 1
 309 905 l 1
 425 789 l 1
 379 743 l 1
 309 816 l 1
 239 743 l 1
 193 789 l 1
94 -6 m 1
 18 6 l 1
 309 683 l 1
 600 6 l 1
 524 -6 l 1
 416 246 l 1
 202 246 l 1
 94 -6 l 1
386 318 m 1
 309 504 l 1
 232 318 l 1
 386 318 l 1
EndSplineSet
EndChar

StartChar: Atilde
Encoding: 195 195 130
Width: 618
GlyphClass: 2
Flags: W
HStem: -6 21G<18 102.571 515.429 600> 246 72<232 386> 745 72<300.531 395.224> 780 73<228.419 322.797>
DStem2: 18 6 94 -6 0.394902 0.918723<18.9879 293.156 371.151 572.441> 271 849 265 777 0.955286 -0.295684<1.434 109.497> 309 683 309 504 0.394902 -0.918723<164.451 365.741 443.737 717.904>
LayerCount: 2
Fore
SplineSet
251 780 m 0xd0
 239 780 234 777 231 772 c 0
 227 766 224 753 222 743 c 1
 156 768 l 1
 158 777 l 2
 171 825 200 853 243 853 c 0xd0
 253 853 261 852 271 849 c 2
 350 822 l 2
 362 818 370 817 376 817 c 0
 389 817 394 826 396 843 c 2
 397 855 l 1
 462 837 l 1
 462 829 l 2
 462 782 431 745 387 745 c 0xe0
 376 745 364 746 349 751 c 2
 265 777 l 2
 261 778 254 780 251 780 c 0xd0
94 -6 m 1
 18 6 l 1
 309 683 l 1
 600 6 l 1
 524 -6 l 1
 416 246 l 1
 202 246 l 1
 94 -6 l 1
386 318 m 1
 309 504 l 1
 232 318 l 1
 386 318 l 1
EndSplineSet
EndChar

StartChar: Adieresis
Encoding: 196 196 131
Width: 618
GlyphClass: 2
Flags: W
HStem: -6 21G<18 102.571 515.429 600> 246 72<232 386> 664 56<196 252 374 430> 674 56<178 234 356 412>
VStem: 178 74<674 720> 356 74<674 720>
DStem2: 18 6 94 -6 0.394902 0.918723<18.9879 293.156 371.151 572.441> 309 683 309 504 0.394902 -0.918723<164.451 365.741 443.737 717.904>
LayerCount: 2
Fore
SplineSet
94 -6 m 1xcc
 18 6 l 1
 309 683 l 1
 600 6 l 1
 524 -6 l 1
 416 246 l 1
 202 246 l 1
 94 -6 l 1xcc
386 318 m 1
 309 504 l 1
 232 318 l 1
 386 318 l 1
356 730 m 1xdc
 430 720 l 1
 430 664 l 1xec
 356 674 l 1
 356 730 l 1xdc
178 730 m 1xdc
 252 720 l 1
 252 664 l 1xec
 178 674 l 1
 178 730 l 1xdc
EndSplineSet
EndChar

StartChar: Aring
Encoding: 197 197 132
Width: 618
GlyphClass: 2
Flags: W
HStem: -6 21G<18 102.571 515.429 600> 246 72<232 386> 831.367 44<267.186 351.299>
VStem: 210.5 45<734.282 819.88> 362.5 45<734.282 819.88>
DStem2: 18 6 94 -6 0.388461 0.921465<18.4654 292.628 370.628 571.932> 309 683 309 504 0.388461 -0.921465<164.942 366.246 444.246 718.409>
LayerCount: 2
Fore
SplineSet
255.5 776.3671875 m 0
 255.5 746.3671875 278.5 723.3671875 308.5 723.3671875 c 0
 338.5 723.3671875 362.5 746.3671875 362.5 776.3671875 c 0
 362.5 806.3671875 338.5 831.3671875 308.5 831.3671875 c 0
 278.5 831.3671875 255.5 806.3671875 255.5 776.3671875 c 0
308.5 676.3671875 m 0
 253.5 676.3671875 210.5 720.3671875 210.5 776.3671875 c 0
 210.5 831.3671875 253.5 875.3671875 308.5 875.3671875 c 0
 363.5 875.3671875 407.5 831.3671875 407.5 776.3671875 c 0
 407.5 720.3671875 363.5 676.3671875 308.5 676.3671875 c 0
94 -6 m 1
 18 6 l 1
 309 683 l 1
 600 6 l 1
 524 -6 l 1
 416 246 l 1
 202 246 l 1
 94 -6 l 1
386 318 m 1
 309 504 l 1
 232 318 l 1
 386 318 l 1
EndSplineSet
EndChar

StartChar: AE
Encoding: 198 198 133
Width: 786
GlyphClass: 2
Flags: W
HStem: 0 72<473 741> 206 72<261 397> 278 72<473 721> 594 72<473 731>
VStem: 397 76<72 206 350 514>
DStem2: 15 0 104 0 0.497541 0.86744<44.2811 280.689 363.544 635.925>
LayerCount: 2
Fore
SplineSet
104 0 m 1xd8
 15 0 l 1
 397 666 l 1
 731 666 l 1
 731 594 l 1
 473 594 l 1
 473 350 l 1
 721 350 l 1
 721 278 l 1
 473 278 l 1xb8
 473 72 l 1
 741 72 l 1
 741 0 l 1
 397 0 l 1
 397 206 l 1
 220 206 l 1
 104 0 l 1xd8
397 514 m 1
 261 278 l 1
 397 278 l 1xd8
 397 514 l 1
EndSplineSet
EndChar

StartChar: Ccedilla
Encoding: 199 199 134
Width: 644
GlyphClass: 2
Flags: W
HStem: -14 75<281.395 492.777> 603 75<281.395 493.195>
VStem: 39 78<228.578 435.422>
LayerCount: 2
Fore
SplineSet
601 58 m 1
 542 13 468 -14 387 -14 c 0
 191 -14 39 142 39 332 c 0
 39 522 191 678 387 678 c 0
 469 678 543 651 602 605 c 1
 579 523 l 1
 531 572 463 603 387 603 c 0
 235 603 117 479 117 332 c 0
 117 185 235 61 387 61 c 0
 463 61 531 92 579 141 c 1
 601 58 l 1
258 -172 m 1
 320 -60 l 1
 386 -71 l 1
 314 -183 l 1
 258 -172 l 1
EndSplineSet
EndChar

StartChar: Egrave
Encoding: 200 200 135
Width: 449
GlyphClass: 2
Flags: W
HStem: 0 72<136.926 404.926> 278 72<136.926 384.926> 594 72<136.926 394.926>
VStem: 60.9258 76<72 278 350 594>
DStem2: 162.926 906 116.926 860 0.689062 -0.724703<1.63949 168.345>
LayerCount: 2
Fore
SplineSet
278.92578125 784 m 1
 232.92578125 738 l 1
 116.92578125 860 l 1
 162.92578125 906 l 1
 278.92578125 784 l 1
404.92578125 0 m 1
 60.92578125 0 l 1
 60.92578125 666 l 1
 394.92578125 666 l 1
 394.92578125 594 l 1
 136.92578125 594 l 1
 136.92578125 350 l 1
 384.92578125 350 l 1
 384.92578125 278 l 1
 136.92578125 278 l 1
 136.92578125 72 l 1
 404.92578125 72 l 1
 404.92578125 0 l 1
EndSplineSet
EndChar

StartChar: Eacute
Encoding: 201 201 136
Width: 449
GlyphClass: 2
Flags: W
HStem: 0 72<136.926 404.926> 278 72<136.926 384.926> 594 72<136.926 394.926>
VStem: 60.9258 76<72 278 350 594>
DStem2: 186.926 784 232.926 738 0.689062 0.724703<0 166.705>
LayerCount: 2
Fore
SplineSet
186.92578125 784 m 1
 302.92578125 906 l 1
 348.92578125 860 l 1
 232.92578125 738 l 1
 186.92578125 784 l 1
404.92578125 0 m 1
 60.92578125 0 l 1
 60.92578125 666 l 1
 394.92578125 666 l 1
 394.92578125 594 l 1
 136.92578125 594 l 1
 136.92578125 350 l 1
 384.92578125 350 l 1
 384.92578125 278 l 1
 136.92578125 278 l 1
 136.92578125 72 l 1
 404.92578125 72 l 1
 404.92578125 0 l 1
EndSplineSet
EndChar

StartChar: Ecircumflex
Encoding: 202 202 137
Width: 449
GlyphClass: 2
Flags: W
HStem: 0 72<136.926 404.926> 278 72<136.926 384.926> 594 72<136.926 394.926>
VStem: 60.9258 76<72 278 350 594>
DStem2: 116.926 784 162.926 738 0.707107 0.707107<0 101.116> 232.926 900 232.926 811 0.707107 -0.707107<62.9325 164.049>
LayerCount: 2
Fore
SplineSet
116.92578125 784 m 1
 232.92578125 900 l 1
 348.92578125 784 l 1
 302.92578125 738 l 1
 232.92578125 811 l 1
 162.92578125 738 l 1
 116.92578125 784 l 1
404.92578125 0 m 1
 60.92578125 0 l 1
 60.92578125 666 l 1
 394.92578125 666 l 1
 394.92578125 594 l 1
 136.92578125 594 l 1
 136.92578125 350 l 1
 384.92578125 350 l 1
 384.92578125 278 l 1
 136.92578125 278 l 1
 136.92578125 72 l 1
 404.92578125 72 l 1
 404.92578125 0 l 1
EndSplineSet
EndChar

StartChar: Edieresis
Encoding: 203 203 138
Width: 449
GlyphClass: 2
Flags: W
HStem: 0 72<136.926 404.926> 278 72<136.926 384.926> 594 72<136.926 394.926> 738 56<149.926 205.926 277.926 333.926> 748 56<131.926 187.926 259.926 315.926>
VStem: 60.9258 76<72 278 350 594> 131.926 74<748 794> 259.926 74<748 794>
LayerCount: 2
Fore
SplineSet
259.92578125 804 m 1xe9
 333.92578125 794 l 1
 333.92578125 738 l 1xf1
 259.92578125 748 l 1
 259.92578125 804 l 1xe9
131.92578125 804 m 1xeb
 205.92578125 794 l 1
 205.92578125 738 l 1xf3
 131.92578125 748 l 1
 131.92578125 804 l 1xeb
404.92578125 0 m 1
 60.92578125 0 l 1
 60.92578125 666 l 1
 394.92578125 666 l 1
 394.92578125 594 l 1
 136.92578125 594 l 1
 136.92578125 350 l 1
 384.92578125 350 l 1
 384.92578125 278 l 1
 136.92578125 278 l 1
 136.92578125 72 l 1xe5
 404.92578125 72 l 1
 404.92578125 0 l 1
EndSplineSet
EndChar

StartChar: Igrave
Encoding: 204 204 139
Width: 201
GlyphClass: 2
Flags: W
HStem: 0 21G<63 138> 646 20G<63 138>
VStem: 63 75<0 666>
DStem2: 25.5 906 -20.5 860 0.689062 -0.724703<1.63949 168.345>
LayerCount: 2
Fore
SplineSet
141.5 784 m 1
 95.5 738 l 1
 -20.5 860 l 1
 25.5 906 l 1
 141.5 784 l 1
63 0 m 1
 63 666 l 1
 138 666 l 1
 138 0 l 1
 63 0 l 1
EndSplineSet
EndChar

StartChar: Iacute
Encoding: 205 205 140
Width: 201
GlyphClass: 2
Flags: W
HStem: 0 21G<63 138> 646 20G<63 138>
VStem: 63 75<0 666>
DStem2: 49.5 784 95.5 738 0.689062 0.724703<0 166.705>
LayerCount: 2
Fore
SplineSet
49.5 784 m 1
 165.5 906 l 1
 211.5 860 l 1
 95.5 738 l 1
 49.5 784 l 1
63 0 m 1
 63 666 l 1
 138 666 l 1
 138 0 l 1
 63 0 l 1
EndSplineSet
EndChar

StartChar: Icircumflex
Encoding: 206 206 141
Width: 201
GlyphClass: 2
Flags: W
HStem: 0 21G<63 138> 646 20G<63 138> 761 21G<5.5 44.6781 146.322 185.5>
VStem: 63 75<0 666>
DStem2: -20.5 807 25.5 761 0.707107 0.707107<0 101.116> 95.5 923 95.5 834 0.707107 -0.707107<62.9325 164.049>
LayerCount: 2
Fore
SplineSet
-20.5 807 m 1
 95.5 923 l 1
 211.5 807 l 1
 165.5 761 l 1
 95.5 834 l 1
 25.5 761 l 1
 -20.5 807 l 1
63 0 m 1
 63 666 l 1
 138 666 l 1
 138 0 l 1
 63 0 l 1
EndSplineSet
EndChar

StartChar: Idieresis
Encoding: 207 207 142
Width: 201
GlyphClass: 2
Flags: W
HStem: 0 21G<63 138> 646 20G<63 138> 738 56<10 66 138 194> 748 56<-8 48 120 176>
VStem: -8 74<748 794> 63 75<0 666> 120 74<748 794>
LayerCount: 2
Fore
SplineSet
120 804 m 1xd2
 194 794 l 1
 194 738 l 1xe2
 120 748 l 1
 120 804 l 1xd2
-8 804 m 1xd8
 66 794 l 1
 66 738 l 1xe8
 -8 748 l 1
 -8 804 l 1xd8
63 0 m 1xc4
 63 666 l 1
 138 666 l 1
 138 0 l 1
 63 0 l 1xc4
EndSplineSet
EndChar

StartChar: Eth
Encoding: 208 208 143
Width: 583
GlyphClass: 2
Flags: W
HStem: 0 75<146 310.098> 278 72<0 70 146 227> 591 75<146 310.098>
VStem: 70 76<75 278 350 591> 469 75<233.759 432.241>
LayerCount: 2
Fore
SplineSet
146 75 m 1
 209 75 l 2
 355 75 469 192 469 333 c 0
 469 474 355 591 209 591 c 2
 146 591 l 1
 146 350 l 1
 227 350 l 1
 227 278 l 1
 146 278 l 1
 146 75 l 1
70 350 m 1
 70 666 l 1
 209 666 l 2
 398 666 544 516 544 333 c 0
 544 150 398 0 209 0 c 2
 70 0 l 1
 70 278 l 1
 0 278 l 1
 0 350 l 1
 70 350 l 1
EndSplineSet
EndChar

StartChar: Ntilde
Encoding: 209 209 144
Width: 698
GlyphClass: 2
Flags: W
HStem: 0 21G<63 139> 646 20G<559 635> 745 72<340.531 435.224> 780 73<268.419 362.797>
VStem: 63 76<0 491> 559 76<165 666>
DStem2: 63 683 139 491 0.691602 -0.722278<191.239 717.175> 311 849 305 777 0.955286 -0.295684<1.434 109.497>
LayerCount: 2
Fore
SplineSet
291 780 m 0xdc
 279 780 274 777 271 772 c 0
 267 766 264 753 262 743 c 1
 196 768 l 1
 198 777 l 2
 211 825 240 853 283 853 c 0xdc
 293 853 301 852 311 849 c 2
 390 822 l 2
 402 818 410 817 416 817 c 0
 429 817 434 826 436 843 c 2
 437 855 l 1
 502 837 l 1
 502 829 l 2
 502 782 471 745 427 745 c 0xec
 416 745 404 746 389 751 c 2
 305 777 l 2
 301 778 294 780 291 780 c 0xdc
559 165 m 1
 559 666 l 1
 635 666 l 1
 635 -17 l 1
 139 491 l 1
 139 0 l 1
 63 0 l 1
 63 683 l 1
 559 165 l 1
EndSplineSet
EndChar

StartChar: Ograve
Encoding: 210 210 145
Width: 774
GlyphClass: 2
Flags: W
HStem: -14 75<281.395 492.605> 603 75<281.395 492.605>
VStem: 39 78<228.578 435.422> 657 78<228.578 435.422>
DStem2: 317 906 271 860 0.689062 -0.724703<1.63949 168.345>
LayerCount: 2
Fore
SplineSet
433 784 m 1
 387 738 l 1
 271 860 l 1
 317 906 l 1
 433 784 l 1
387 603 m 0
 235 603 117 479 117 332 c 0
 117 185 235 61 387 61 c 0
 539 61 657 185 657 332 c 0
 657 479 539 603 387 603 c 0
387 -14 m 0
 191 -14 39 142 39 332 c 0
 39 522 191 678 387 678 c 0
 583 678 735 522 735 332 c 0
 735 142 583 -14 387 -14 c 0
EndSplineSet
EndChar

StartChar: Oacute
Encoding: 211 211 146
Width: 774
GlyphClass: 2
Flags: W
HStem: -14 75<281.395 492.605> 603 75<281.395 492.605>
VStem: 39 78<228.578 435.422> 657 78<228.578 435.422>
DStem2: 341 784 387 738 0.689062 0.724703<0 166.705>
LayerCount: 2
Fore
SplineSet
341 784 m 1
 457 906 l 1
 503 860 l 1
 387 738 l 1
 341 784 l 1
387 603 m 0
 235 603 117 479 117 332 c 0
 117 185 235 61 387 61 c 0
 539 61 657 185 657 332 c 0
 657 479 539 603 387 603 c 0
387 -14 m 0
 191 -14 39 142 39 332 c 0
 39 522 191 678 387 678 c 0
 583 678 735 522 735 332 c 0
 735 142 583 -14 387 -14 c 0
EndSplineSet
EndChar

StartChar: Ocircumflex
Encoding: 212 212 147
Width: 774
GlyphClass: 2
Flags: W
HStem: -14 75<281.395 492.605> 603 75<281.395 492.605>
VStem: 39 78<228.578 435.422> 657 78<228.578 435.422>
DStem2: 271 784 317 738 0.707107 0.707107<0 101.116> 387 900 387 811 0.707107 -0.707107<62.9325 164.049>
LayerCount: 2
Fore
SplineSet
271 784 m 1
 387 900 l 1
 503 784 l 1
 457 738 l 1
 387 811 l 1
 317 738 l 1
 271 784 l 1
387 603 m 0
 235 603 117 479 117 332 c 0
 117 185 235 61 387 61 c 0
 539 61 657 185 657 332 c 0
 657 479 539 603 387 603 c 0
387 -14 m 0
 191 -14 39 142 39 332 c 0
 39 522 191 678 387 678 c 0
 583 678 735 522 735 332 c 0
 735 142 583 -14 387 -14 c 0
EndSplineSet
EndChar

StartChar: Otilde
Encoding: 213 213 148
Width: 774
GlyphClass: 2
Flags: W
HStem: -14 75<281.395 492.605> 603 75<281.395 492.605> 740 72<378.531 473.224> 775 73<306.419 400.797>
VStem: 39 78<228.578 435.422> 657 78<228.578 435.422>
DStem2: 349 844 343 772 0.955286 -0.295684<1.434 109.497>
LayerCount: 2
Fore
SplineSet
329 775 m 0xdc
 317 775 312 772 309 767 c 0
 305 761 302 748 300 738 c 1
 234 763 l 1
 236 772 l 2
 249 820 278 848 321 848 c 0xdc
 331 848 339 847 349 844 c 2
 428 817 l 2
 440 813 448 812 454 812 c 0
 467 812 472 821 474 838 c 2
 475 850 l 1
 540 832 l 1
 540 824 l 2
 540 777 509 740 465 740 c 0xec
 454 740 442 741 427 746 c 2
 343 772 l 2
 339 773 332 775 329 775 c 0xdc
387 603 m 0
 235 603 117 479 117 332 c 0
 117 185 235 61 387 61 c 0
 539 61 657 185 657 332 c 0
 657 479 539 603 387 603 c 0
387 -14 m 0
 191 -14 39 142 39 332 c 0
 39 522 191 678 387 678 c 0
 583 678 735 522 735 332 c 0
 735 142 583 -14 387 -14 c 0
EndSplineSet
EndChar

StartChar: Odieresis
Encoding: 214 214 149
Width: 774
GlyphClass: 2
Flags: W
HStem: -14 75<281.395 492.605> 603 75<281.395 492.605> 738 56<304 360 432 488> 748 56<286 342 414 470>
VStem: 39 78<228.578 435.422> 286 74<748 794> 414 74<748 794> 657 78<228.578 435.422>
LayerCount: 2
Fore
SplineSet
414 804 m 1xdf
 488 794 l 1
 488 738 l 1xef
 414 748 l 1
 414 804 l 1xdf
286 804 m 1xdf
 360 794 l 1
 360 738 l 1xef
 286 748 l 1
 286 804 l 1xdf
387 603 m 0
 235 603 117 479 117 332 c 0
 117 185 235 61 387 61 c 0
 539 61 657 185 657 332 c 0
 657 479 539 603 387 603 c 0
387 -14 m 0
 191 -14 39 142 39 332 c 0
 39 522 191 678 387 678 c 0
 583 678 735 522 735 332 c 0
 735 142 583 -14 387 -14 c 0
EndSplineSet
EndChar

StartChar: multiply
Encoding: 215 215 150
Width: 480
GlyphClass: 2
Flags: W
DStem2: 110 490 60 440 0.684675 -0.728848<2.20863 189.589 265.389 452.769> 60 160 110 110 0.684675 0.728848<0 187.38 263.18 450.561>
LayerCount: 2
Fore
SplineSet
370 490 m 1
 420 440 l 1
 288 300 l 1
 420 160 l 1
 370 110 l 1
 240 248 l 1
 110 110 l 1
 60 160 l 1
 192 300 l 1
 60 440 l 1
 110 490 l 1
 240 352 l 1
 370 490 l 1
EndSplineSet
EndChar

StartChar: Oslash
Encoding: 216 216 151
Width: 774
GlyphClass: 2
Flags: W
HStem: -14 75<281.15 492.605> 603 75<281.395 492.85>
VStem: 39 78<228.196 435.422> 657 78<228.578 435.804>
DStem2: 91 24 143 -18 0.634389 0.773014<0.521608 82.785 157.747 693.988 768.95 851.213>
LayerCount: 2
Fore
SplineSet
387 603 m 0
 235 603 117 479 117 332 c 0
 117 261 145 195 191 146 c 1
 532 561 l 1
 490 588 441 603 387 603 c 0
142 86 m 1
 78 149 39 236 39 332 c 0
 39 522 191 678 387 678 c 0
 459 678 525 656 580 620 c 1
 631 682 l 1
 683 640 l 1
 632 578 l 1
 696 515 735 428 735 332 c 0
 735 142 583 -14 387 -14 c 0
 315 -14 249 8 194 44 c 1
 143 -18 l 1
 91 24 l 1
 142 86 l 1
242 103 m 1
 284 76 333 61 387 61 c 0
 539 61 657 185 657 332 c 0
 657 403 629 469 583 518 c 1
 242 103 l 1
EndSplineSet
EndChar

StartChar: Ugrave
Encoding: 217 217 152
Width: 576
GlyphClass: 2
Flags: W
HStem: -14 76<211.909 364.091> 646 20G<55 133 443 521>
VStem: 55 78<144.2 666> 443 78<144.2 666>
DStem2: 218 906 172 860 0.689062 -0.724703<1.63949 168.345>
LayerCount: 2
Fore
SplineSet
334 784 m 1
 288 738 l 1
 172 860 l 1
 218 906 l 1
 334 784 l 1
133 229 m 2
 133 133 202 62 288 62 c 0
 374 62 443 133 443 229 c 2
 443 666 l 1
 521 666 l 1
 521 229 l 2
 521 90 417 -14 288 -14 c 0
 159 -14 55 90 55 229 c 2
 55 666 l 1
 133 666 l 1
 133 229 l 2
EndSplineSet
EndChar

StartChar: Uacute
Encoding: 218 218 153
Width: 576
GlyphClass: 2
Flags: W
HStem: -14 76<211.909 364.091> 646 20G<55 133 443 521>
VStem: 55 78<144.2 666> 443 78<144.2 666>
DStem2: 242 784 288 738 0.689062 0.724703<0 166.705>
LayerCount: 2
Fore
SplineSet
242 784 m 1
 358 906 l 1
 404 860 l 1
 288 738 l 1
 242 784 l 1
133 229 m 2
 133 133 202 62 288 62 c 0
 374 62 443 133 443 229 c 2
 443 666 l 1
 521 666 l 1
 521 229 l 2
 521 90 417 -14 288 -14 c 0
 159 -14 55 90 55 229 c 2
 55 666 l 1
 133 666 l 1
 133 229 l 2
EndSplineSet
EndChar

StartChar: Ucircumflex
Encoding: 219 219 154
Width: 576
GlyphClass: 2
Flags: W
HStem: -14 76<211.909 364.091> 646 20G<55 133 443 521>
VStem: 55 78<144.2 666> 443 78<144.2 666>
DStem2: 172 784 218 738 0.707107 0.707107<0 101.116> 288 900 288 811 0.707107 -0.707107<62.9325 164.049>
LayerCount: 2
Fore
SplineSet
172 784 m 1
 288 900 l 1
 404 784 l 1
 358 738 l 1
 288 811 l 1
 218 738 l 1
 172 784 l 1
133 229 m 2
 133 133 202 62 288 62 c 0
 374 62 443 133 443 229 c 2
 443 666 l 1
 521 666 l 1
 521 229 l 2
 521 90 417 -14 288 -14 c 0
 159 -14 55 90 55 229 c 2
 55 666 l 1
 133 666 l 1
 133 229 l 2
EndSplineSet
EndChar

StartChar: Udieresis
Encoding: 220 220 155
Width: 576
GlyphClass: 2
Flags: W
HStem: -14 76<211.909 364.091> 646 20G<55 133 443 521> 664 56<205 261 333 389> 674 56<187 243 315 371>
VStem: 55 78<144.2 666> 187 74<674 720> 315 74<674 720> 443 78<144.2 666>
LayerCount: 2
Fore
SplineSet
133 229 m 2xcf
 133 133 202 62 288 62 c 0
 374 62 443 133 443 229 c 2
 443 666 l 1
 521 666 l 1
 521 229 l 2
 521 90 417 -14 288 -14 c 0
 159 -14 55 90 55 229 c 2
 55 666 l 1
 133 666 l 1
 133 229 l 2xcf
315 730 m 1x9f
 389 720 l 1
 389 664 l 1xaf
 315 674 l 1
 315 730 l 1x9f
187 730 m 1x9f
 261 720 l 1
 261 664 l 1xaf
 187 674 l 1
 187 730 l 1x9f
EndSplineSet
EndChar

StartChar: Thorn
Encoding: 222 222 157
Width: 520
GlyphClass: 2
Flags: W
HStem: 0 21G<63 138> 135 75<138 349.141> 521 75<138 349.527> 646 20G<63 138>
VStem: 63 75<0 135 210 521 596 666> 414 79<276.926 453.496>
LayerCount: 2
Fore
SplineSet
279 521 m 2
 138 521 l 1
 138 210 l 1
 280 210 l 2
 357 210 414 270 414 365 c 0
 414 460 356 521 279 521 c 2
138 596 m 1
 276 596 l 2
 406 596 493 503 493 365 c 0
 493 228 405 135 276 135 c 2
 138 135 l 1
 138 0 l 1
 63 0 l 1
 63 666 l 1
 138 666 l 1
 138 596 l 1
EndSplineSet
EndChar

StartChar: germandbls
Encoding: 223 223 158
Width: 520
GlyphClass: 2
Flags: W
HStem: -12 72<264.627 376.416> 410 66<3 63> 608 70<160.841 279.453>
VStem: 3 132<410 476> 63 72<0 410 476 583.5> 214 73<322.284 423.368> 288 72<481.211 599.767> 401 74<83.9163 194.991>
LayerCount: 2
Fore
SplineSet
63 514 m 2xef
 63 618 104 678 225 678 c 2
 236 678 l 2
 314 678 360 623 360 552 c 0
 360 482 287 416 287 357 c 0
 287 280 475 314 475 145 c 0
 475 41 404 -12 320 -12 c 0
 240 -12 200 43 187 67 c 1
 245 106 l 1
 252 89 281 60 321 60 c 0
 380 60 401 107 401 145 c 0
 401 257 214 209 214 354 c 0
 214 433 288 481 288 549 c 0
 288 563 288 608 236 608 c 2
 225 608 l 2
 165 608 135 578 135 514 c 2
 135 -8 l 1
 63 0 l 1
 63 410 l 1xef
 3 410 l 1
 3 476 l 1xf7
 63 476 l 1
 63 514 l 2xef
EndSplineSet
EndChar

StartChar: agrave
Encoding: 224 224 159
Width: 432
GlyphClass: 2
Flags: W
HStem: -10 68<148.742 265.705> 242 68<148.742 265.705> 369 71<129 283.626> 648 20G<124 163.016>
VStem: 45 72<88.9534 211.047> 297 72<2 32 89.3091 210.691 263 355.631>
DStem2: 144 668 98 622 0.689062 -0.724703<1.63949 168.345>
LayerCount: 2
Fore
SplineSet
260 546 m 1
 214 500 l 1
 98 622 l 1
 144 668 l 1
 260 546 l 1
117 150 m 0
 117 98 155 58 207 58 c 0
 259 58 297 98 297 150 c 0
 297 202 259 242 207 242 c 0
 155 242 117 202 117 150 c 0
45 150 m 0
 45 245 109 310 194 310 c 0
 267 310 297 263 297 263 c 1
 297 362 285 369 188 369 c 2
 108 369 l 1
 129 440 l 1
 188 440 l 2
 318 440 369 413 369 268 c 2
 369 2 l 1
 297 -6 l 1
 297 32 l 1
 297 32 267 -10 194 -10 c 0
 109 -10 45 55 45 150 c 0
EndSplineSet
EndChar

StartChar: aacute
Encoding: 225 225 160
Width: 432
GlyphClass: 2
Flags: W
HStem: -10 68<148.742 265.705> 242 68<148.742 265.705> 369 71<129 283.626> 648 20G<264.984 304>
VStem: 45 72<88.9534 211.047> 297 72<2 32 89.3091 210.691 263 355.631>
DStem2: 168 546 214 500 0.689062 0.724703<0 166.705>
LayerCount: 2
Fore
SplineSet
168 546 m 1
 284 668 l 1
 330 622 l 1
 214 500 l 1
 168 546 l 1
117 150 m 0
 117 98 155 58 207 58 c 0
 259 58 297 98 297 150 c 0
 297 202 259 242 207 242 c 0
 155 242 117 202 117 150 c 0
45 150 m 0
 45 245 109 310 194 310 c 0
 267 310 297 263 297 263 c 1
 297 362 285 369 188 369 c 2
 108 369 l 1
 129 440 l 1
 188 440 l 2
 318 440 369 413 369 268 c 2
 369 2 l 1
 297 -6 l 1
 297 32 l 1
 297 32 267 -10 194 -10 c 0
 109 -10 45 55 45 150 c 0
EndSplineSet
EndChar

StartChar: acircumflex
Encoding: 226 226 161
Width: 432
GlyphClass: 2
Flags: W
HStem: -10 68<148.742 265.705> 242 68<148.742 265.705> 369 71<129 283.626>
VStem: 45 72<88.9534 211.047> 297 72<2 32 89.3091 210.691 263 355.631>
DStem2: 91 546 137 500 0.707107 0.707107<0 101.116> 207 662 207 573 0.707107 -0.707107<62.9325 164.049>
LayerCount: 2
Fore
SplineSet
91 546 m 1
 207 662 l 1
 323 546 l 1
 277 500 l 1
 207 573 l 1
 137 500 l 1
 91 546 l 1
117 150 m 0
 117 98 155 58 207 58 c 0
 259 58 297 98 297 150 c 0
 297 202 259 242 207 242 c 0
 155 242 117 202 117 150 c 0
45 150 m 0
 45 245 109 310 194 310 c 0
 267 310 297 263 297 263 c 1
 297 362 285 369 188 369 c 2
 108 369 l 1
 129 440 l 1
 188 440 l 2
 318 440 369 413 369 268 c 2
 369 2 l 1
 297 -6 l 1
 297 32 l 1
 297 32 267 -10 194 -10 c 0
 109 -10 45 55 45 150 c 0
EndSplineSet
EndChar

StartChar: atilde
Encoding: 227 227 162
Width: 432
GlyphClass: 2
Flags: W
HStem: -10 68<148.742 265.705> 242 68<148.742 265.705> 369 71<129 283.626> 502 72<205.531 300.224> 537 73<133.419 227.797>
VStem: 45 72<88.9534 211.047> 297 72<2 32 89.3091 210.691 263 355.631>
DStem2: 176 606 170 534 0.955286 -0.295684<1.434 109.497>
LayerCount: 2
Fore
SplineSet
156 537 m 0xee
 144 537 139 534 136 529 c 0
 132 523 129 510 127 500 c 1
 61 525 l 1
 63 534 l 2
 76 582 105 610 148 610 c 0xee
 158 610 166 609 176 606 c 2
 255 579 l 2
 267 575 275 574 281 574 c 0
 294 574 299 583 301 600 c 2
 302 612 l 1
 367 594 l 1
 367 586 l 2
 367 539 336 502 292 502 c 0xf6
 281 502 269 503 254 508 c 2
 170 534 l 2
 166 535 159 537 156 537 c 0xee
117 150 m 0
 117 98 155 58 207 58 c 0
 259 58 297 98 297 150 c 0
 297 202 259 242 207 242 c 0
 155 242 117 202 117 150 c 0
45 150 m 0
 45 245 109 310 194 310 c 0
 267 310 297 263 297 263 c 1
 297 362 285 369 188 369 c 2
 108 369 l 1
 129 440 l 1
 188 440 l 2
 318 440 369 413 369 268 c 2
 369 2 l 1
 297 -6 l 1
 297 32 l 1
 297 32 267 -10 194 -10 c 0
 109 -10 45 55 45 150 c 0
EndSplineSet
EndChar

StartChar: adieresis
Encoding: 228 228 163
Width: 432
GlyphClass: 2
Flags: W
HStem: -10 68<148.742 265.705> 242 68<148.742 265.705> 369 71<129 283.626> 500 56<124 180 252 308> 510 56<106 162 234 290>
VStem: 45 72<88.9534 211.047> 106 74<510 556> 234 74<510 556> 297 72<2 32 89.3091 210.691 263 355.631>
LayerCount: 2
Fore
SplineSet
234 566 m 1xe9
 308 556 l 1
 308 500 l 1xf1
 234 510 l 1
 234 566 l 1xe9
106 566 m 1xea
 180 556 l 1
 180 500 l 1xf2
 106 510 l 1
 106 566 l 1xea
117 150 m 0xe480
 117 98 155 58 207 58 c 0
 259 58 297 98 297 150 c 0
 297 202 259 242 207 242 c 0
 155 242 117 202 117 150 c 0xe480
45 150 m 0
 45 245 109 310 194 310 c 0
 267 310 297 263 297 263 c 1
 297 362 285 369 188 369 c 2
 108 369 l 1
 129 440 l 1
 188 440 l 2
 318 440 369 413 369 268 c 2
 369 2 l 1
 297 -6 l 1
 297 32 l 1
 297 32 267 -10 194 -10 c 0
 109 -10 45 55 45 150 c 0
EndSplineSet
EndChar

StartChar: aring
Encoding: 229 229 164
Width: 432
GlyphClass: 2
Flags: W
HStem: -10 68<148.742 265.705> 242 68<148.742 265.705> 369 71<129 283.626> 500 47<170.723 256.693> 655 44<172.186 256.299>
VStem: 45 72<88.9534 211.047> 115.5 45<557.915 643.512> 267.5 45<557.915 643.512> 297 72<2 32 89.3091 210.691 263 355.631>
LayerCount: 2
Fore
SplineSet
160.5 600 m 0xfb
 160.5 570 183.5 547 213.5 547 c 0
 243.5 547 267.5 570 267.5 600 c 0
 267.5 630 243.5 655 213.5 655 c 0
 183.5 655 160.5 630 160.5 600 c 0xfb
213.5 500 m 0
 158.5 500 115.5 544 115.5 600 c 0
 115.5 655 158.5 699 213.5 699 c 0
 268.5 699 312.5 655 312.5 600 c 0
 312.5 544 268.5 500 213.5 500 c 0
117 150 m 0xfc80
 117 98 155 58 207 58 c 0
 259 58 297 98 297 150 c 0
 297 202 259 242 207 242 c 0
 155 242 117 202 117 150 c 0xfc80
45 150 m 0
 45 245 109 310 194 310 c 0
 267 310 297 263 297 263 c 1
 297 362 285 369 188 369 c 2
 108 369 l 1
 129 440 l 1
 188 440 l 2
 318 440 369 413 369 268 c 2
 369 2 l 1
 297 -6 l 1
 297 32 l 1
 297 32 267 -10 194 -10 c 0
 109 -10 45 55 45 150 c 0
EndSplineSet
EndChar

StartChar: ae
Encoding: 230 230 165
Width: 745
GlyphClass: 2
Flags: W
HStem: -10 68<148.742 264.783 434.339 575.799> 242 68<148.742 265.705> 369 71<109 273.341 429.864 582.281>
VStem: 45 72<88.9534 211.047> 297 64<184.469 210.691 263 297.539>
DStem2: 364 184 390 120 0.892157 0.451725<0 287.105>
LayerCount: 2
Fore
SplineSet
117 150 m 0
 117 98 155 58 207 58 c 0
 259 58 297 98 297 150 c 0
 297 202 259 242 207 242 c 0
 155 242 117 202 117 150 c 0
621 312 m 1
 595 347 555 369 505 369 c 0
 417 369 361 299 361 215 c 0
 361 204 362 194 364 184 c 1
 621 312 l 1
168 368 m 2
 88 368 l 1
 109 440 l 1
 168 440 l 2
 261 440 314 421 336 361 c 1
 375 410 433 440 505 440 c 0
 593 440 682 391 706 280 c 1
 390 120 l 1
 415 86 452 61 505 61 c 0
 562 61 606 91 631 136 c 1
 694 97 l 1
 657 31 590 -10 505 -10 c 0
 432 -10 374 21 335 70 c 1
 311 23 267 -10 194 -10 c 0
 109 -10 45 55 45 150 c 0
 45 245 109 310 194 310 c 0
 267 310 297 263 297 263 c 1
 297 362 265 368 168 368 c 2
EndSplineSet
EndChar

StartChar: ccedilla
Encoding: 231 231 166
Width: 444
GlyphClass: 2
Flags: W
HStem: -10 71<184.797 337.663> 369 71<184.797 338.101>
VStem: 39 73<134.301 295.699>
LayerCount: 2
Fore
SplineSet
401 38 m 1
 364 8 315 -10 260 -10 c 0
 130 -10 39 87 39 215 c 0
 39 343 130 440 260 440 c 0
 316 440 365 422 402 391 c 1
 379 309 l 1
 353 346 311 369 260 369 c 0
 172 369 112 299 112 215 c 0
 112 131 172 61 260 61 c 0
 311 61 353 85 379 121 c 1
 401 38 l 1
158 -158 m 1
 220 -46 l 1
 286 -57 l 1
 214 -169 l 1
 158 -158 l 1
EndSplineSet
EndChar

StartChar: egrave
Encoding: 232 232 167
Width: 496
GlyphClass: 2
Flags: W
HStem: -10 71<181.549 332.136> 369 71<182.336 333.855> 648 20G<158 197.016>
VStem: 39 73<185.034 298.29>
DStem2: 115 184 141 120 0.892157 0.451725<0 287.105> 178 668 132 622 0.689062 -0.724703<1.63949 168.345>
LayerCount: 2
Fore
SplineSet
294 546 m 1
 248 500 l 1
 132 622 l 1
 178 668 l 1
 294 546 l 1
445 97 m 1
 408 31 342 -10 257 -10 c 0
 127 -10 39 87 39 215 c 0
 39 343 127 440 257 440 c 0
 345 440 433 391 457 280 c 1
 141 120 l 1
 166 85 204 61 257 61 c 0
 314 61 357 91 382 136 c 1
 445 97 l 1
372 312 m 1
 346 347 307 369 257 369 c 0
 169 369 112 299 112 215 c 0
 112 204 113 194 115 184 c 1
 372 312 l 1
EndSplineSet
EndChar

StartChar: eacute
Encoding: 233 233 168
Width: 496
GlyphClass: 2
Flags: W
HStem: -10 71<181.549 332.136> 369 71<182.336 333.855> 648 20G<298.984 338>
VStem: 39 73<185.034 298.29>
DStem2: 115 184 141 120 0.892157 0.451725<0 287.105> 202 546 248 500 0.689062 0.724703<0 166.705>
LayerCount: 2
Fore
SplineSet
202 546 m 1
 318 668 l 1
 364 622 l 1
 248 500 l 1
 202 546 l 1
445 97 m 1
 408 31 342 -10 257 -10 c 0
 127 -10 39 87 39 215 c 0
 39 343 127 440 257 440 c 0
 345 440 433 391 457 280 c 1
 141 120 l 1
 166 85 204 61 257 61 c 0
 314 61 357 91 382 136 c 1
 445 97 l 1
372 312 m 1
 346 347 307 369 257 369 c 0
 169 369 112 299 112 215 c 0
 112 204 113 194 115 184 c 1
 372 312 l 1
EndSplineSet
EndChar

StartChar: ecircumflex
Encoding: 234 234 169
Width: 496
GlyphClass: 2
Flags: W
HStem: -10 71<181.549 332.136> 369 71<182.336 333.855>
VStem: 39 73<185.034 298.29>
DStem2: 115 184 141 120 0.892157 0.451725<0 287.105> 132 546 178 500 0.707107 0.707107<0 101.116> 248 662 248 573 0.707107 -0.707107<62.9325 164.049>
LayerCount: 2
Fore
SplineSet
132 546 m 1
 248 662 l 1
 364 546 l 1
 318 500 l 1
 248 573 l 1
 178 500 l 1
 132 546 l 1
445 97 m 1
 408 31 342 -10 257 -10 c 0
 127 -10 39 87 39 215 c 0
 39 343 127 440 257 440 c 0
 345 440 433 391 457 280 c 1
 141 120 l 1
 166 85 204 61 257 61 c 0
 314 61 357 91 382 136 c 1
 445 97 l 1
372 312 m 1
 346 347 307 369 257 369 c 0
 169 369 112 299 112 215 c 0
 112 204 113 194 115 184 c 1
 372 312 l 1
EndSplineSet
EndChar

StartChar: edieresis
Encoding: 235 235 170
Width: 496
GlyphClass: 2
Flags: W
HStem: -10 71<181.549 332.136> 369 71<182.336 333.855> 500 56<165 221 293 349> 510 56<147 203 275 331>
VStem: 39 73<185.034 298.29> 147 74<510 556> 275 74<510 556>
DStem2: 115 184 141 120 0.892157 0.451725<0 287.105>
LayerCount: 2
Fore
SplineSet
275 566 m 1xde
 349 556 l 1
 349 500 l 1xee
 275 510 l 1
 275 566 l 1xde
147 566 m 1xde
 221 556 l 1
 221 500 l 1xee
 147 510 l 1
 147 566 l 1xde
445 97 m 1
 408 31 342 -10 257 -10 c 0
 127 -10 39 87 39 215 c 0
 39 343 127 440 257 440 c 0
 345 440 433 391 457 280 c 1
 141 120 l 1
 166 85 204 61 257 61 c 0
 314 61 357 91 382 136 c 1
 445 97 l 1
372 312 m 1
 346 347 307 369 257 369 c 0
 169 369 112 299 112 215 c 0
 112 204 113 194 115 184 c 1
 372 312 l 1
EndSplineSet
EndChar

StartChar: igrave
Encoding: 236 236 171
Width: 198
GlyphClass: 2
Flags: W
HStem: 0 21G<63 135> 648 20G<9 48.0164>
VStem: 63 72<0 425>
DStem2: 29 668 -17 622 0.689062 -0.724703<1.63949 168.345>
LayerCount: 2
Fore
SplineSet
145 546 m 1
 99 500 l 1
 -17 622 l 1
 29 668 l 1
 145 546 l 1
135 0 m 1
 63 0 l 1
 63 435 l 1
 135 425 l 1
 135 0 l 1
EndSplineSet
EndChar

StartChar: iacute
Encoding: 237 237 172
Width: 198
GlyphClass: 2
Flags: W
HStem: 0 21G<63 135> 648 20G<119.984 159>
VStem: 63 72<0 425>
DStem2: 23 546 69 500 0.689062 0.724703<0 166.705>
LayerCount: 2
Fore
SplineSet
135 0 m 1
 63 0 l 1
 63 435 l 1
 135 425 l 1
 135 0 l 1
23 546 m 1
 139 668 l 1
 185 622 l 1
 69 500 l 1
 23 546 l 1
EndSplineSet
EndChar

StartChar: icircumflex
Encoding: 238 238 173
Width: 198
GlyphClass: 2
Flags: W
HStem: 0 21G<63 135>
VStem: 63 72<0 425>
DStem2: -17 546 29 500 0.707107 0.707107<0 101.116> 99 662 99 573 0.707107 -0.707107<62.9325 164.049>
LayerCount: 2
Fore
SplineSet
-17 546 m 1
 99 662 l 1
 215 546 l 1
 169 500 l 1
 99 573 l 1
 29 500 l 1
 -17 546 l 1
135 0 m 1
 63 0 l 1
 63 435 l 1
 135 425 l 1
 135 0 l 1
EndSplineSet
EndChar

StartChar: idieresis
Encoding: 239 239 174
Width: 198
GlyphClass: 2
Flags: W
HStem: 0 21G<63 135> 626 56<16 72 144 200> 636 56<-2 54 126 182>
VStem: -2 74<636 682> 63 72<0 425> 126 74<636 682>
LayerCount: 2
Fore
SplineSet
135 0 m 1x88
 63 0 l 1
 63 435 l 1
 135 425 l 1
 135 0 l 1x88
126 692 m 1xa4
 200 682 l 1
 200 626 l 1xc4
 126 636 l 1
 126 692 l 1xa4
-2 692 m 1xb0
 72 682 l 1
 72 626 l 1xd0
 -2 636 l 1
 -2 692 l 1xb0
EndSplineSet
EndChar

StartChar: eth
Encoding: 240 240 175
Width: 514
GlyphClass: 2
Flags: W
HStem: -10 71<180.472 332.704> 369 71<182.534 339.348> 740 20G<163.385 196 334.59 375.894>
VStem: 39 73<130.762 297.805> 402 73<132.986 300.69>
DStem2: 101 564 133 518 0.803287 0.595593<0 121.397 199.911 325.591>
LayerCount: 2
Fore
SplineSet
402 213 m 0
 402 302 352 369 259 369 c 0
 172 369 112 301 112 213 c 0
 112 129 170 61 257 61 c 0
 354 61 402 139 402 213 c 0
236 594 m 1
 133 518 l 1
 101 564 l 1
 198 637 l 1
 180 657 158 680 132 708 c 1
 183 760 l 1
 209 734 235 708 258 682 c 1
 361 760 l 1
 396 713 l 1
 295 638 l 1
 410 497 475 356 475 213 c 0
 475 83 390 -10 257 -10 c 0
 124 -10 39 88 39 213 c 0
 39 355 142 440 252 440 c 0
 308 440 349 418 368 399 c 1
 315 493 294 528 236 594 c 1
EndSplineSet
EndChar

StartChar: ntilde
Encoding: 241 241 176
Width: 463
GlyphClass: 2
Flags: W
HStem: 0 21G<63 135 341 413> 368 72<173.445 302.432> 502 72<229.531 324.224> 537 73<157.419 251.797>
VStem: 63 72<0 328.373 385 425> 341 72<0 324.396>
DStem2: 200 606 194 534 0.955286 -0.295684<1.434 109.497>
LayerCount: 2
Fore
SplineSet
180 537 m 0xdc
 168 537 163 534 160 529 c 0
 156 523 153 510 151 500 c 1
 85 525 l 1
 87 534 l 2
 100 582 129 610 172 610 c 0xdc
 182 610 190 609 200 606 c 2
 279 579 l 2
 291 575 299 574 305 574 c 0
 318 574 323 583 325 600 c 2
 326 612 l 1
 391 594 l 1
 391 586 l 2
 391 539 360 502 316 502 c 0xec
 305 502 293 503 278 508 c 2
 194 534 l 2
 190 535 183 537 180 537 c 0xdc
63 0 m 1
 63 425 l 1
 135 435 l 1
 135 385 l 1
 168 422 200 440 254 440 c 0
 346 440 413 374 413 253 c 2
 413 0 l 1
 341 0 l 1
 341 250 l 2
 341 318 305 368 238 368 c 0
 171 368 135 318 135 250 c 2
 135 0 l 1
 63 0 l 1
EndSplineSet
EndChar

StartChar: ograve
Encoding: 242 242 177
Width: 514
GlyphClass: 2
Flags: W
HStem: -10 71<181.181 332.819> 369 71<181.181 332.819> 648 20G<167 206.016>
VStem: 39 73<134.61 295.39> 402 73<134.61 295.39>
DStem2: 187 668 141 622 0.689062 -0.724703<1.63949 168.345>
LayerCount: 2
Fore
SplineSet
303 546 m 1
 257 500 l 1
 141 622 l 1
 187 668 l 1
 303 546 l 1
257 369 m 0
 175 369 112 302 112 215 c 0
 112 128 175 61 257 61 c 0
 339 61 402 128 402 215 c 0
 402 302 339 369 257 369 c 0
257 -10 m 0
 135 -10 39 84 39 215 c 0
 39 346 135 440 257 440 c 0
 379 440 475 346 475 215 c 0
 475 84 379 -10 257 -10 c 0
EndSplineSet
EndChar

StartChar: oacute
Encoding: 243 243 178
Width: 514
GlyphClass: 2
Flags: W
HStem: -10 71<181.181 332.819> 369 71<181.181 332.819> 648 20G<307.984 347>
VStem: 39 73<134.61 295.39> 402 73<134.61 295.39>
DStem2: 211 546 257 500 0.689062 0.724703<0 166.705>
LayerCount: 2
Fore
SplineSet
211 546 m 1
 327 668 l 1
 373 622 l 1
 257 500 l 1
 211 546 l 1
257 369 m 0
 175 369 112 302 112 215 c 0
 112 128 175 61 257 61 c 0
 339 61 402 128 402 215 c 0
 402 302 339 369 257 369 c 0
257 -10 m 0
 135 -10 39 84 39 215 c 0
 39 346 135 440 257 440 c 0
 379 440 475 346 475 215 c 0
 475 84 379 -10 257 -10 c 0
EndSplineSet
EndChar

StartChar: ocircumflex
Encoding: 244 244 179
Width: 514
GlyphClass: 2
Flags: W
HStem: -10 71<181.181 332.819> 369 71<181.181 332.819>
VStem: 39 73<134.61 295.39> 402 73<134.61 295.39>
DStem2: 141 546 187 500 0.707107 0.707107<0 101.116> 257 662 257 573 0.707107 -0.707107<62.9325 164.049>
LayerCount: 2
Fore
SplineSet
141 546 m 1
 257 662 l 1
 373 546 l 1
 327 500 l 1
 257 573 l 1
 187 500 l 1
 141 546 l 1
257 369 m 0
 175 369 112 302 112 215 c 0
 112 128 175 61 257 61 c 0
 339 61 402 128 402 215 c 0
 402 302 339 369 257 369 c 0
257 -10 m 0
 135 -10 39 84 39 215 c 0
 39 346 135 440 257 440 c 0
 379 440 475 346 475 215 c 0
 475 84 379 -10 257 -10 c 0
EndSplineSet
EndChar

StartChar: otilde
Encoding: 245 245 180
Width: 514
GlyphClass: 2
Flags: W
HStem: -10 71<181.181 332.819> 369 71<181.181 332.819> 502 72<248.531 343.224> 537 73<176.419 270.797>
VStem: 39 73<134.61 295.39> 402 73<134.61 295.39>
DStem2: 219 606 213 534 0.955286 -0.295684<1.434 109.497>
LayerCount: 2
Fore
SplineSet
199 537 m 0xdc
 187 537 182 534 179 529 c 0
 175 523 172 510 170 500 c 1
 104 525 l 1
 106 534 l 2
 119 582 148 610 191 610 c 0xdc
 201 610 209 609 219 606 c 2
 298 579 l 2
 310 575 318 574 324 574 c 0
 337 574 342 583 344 600 c 2
 345 612 l 1
 410 594 l 1
 410 586 l 2
 410 539 379 502 335 502 c 0xec
 324 502 312 503 297 508 c 2
 213 534 l 2
 209 535 202 537 199 537 c 0xdc
257 369 m 0
 175 369 112 302 112 215 c 0
 112 128 175 61 257 61 c 0
 339 61 402 128 402 215 c 0
 402 302 339 369 257 369 c 0
257 -10 m 0
 135 -10 39 84 39 215 c 0
 39 346 135 440 257 440 c 0
 379 440 475 346 475 215 c 0
 475 84 379 -10 257 -10 c 0
EndSplineSet
EndChar

StartChar: odieresis
Encoding: 246 246 181
Width: 514
GlyphClass: 2
Flags: W
HStem: -10 71<181.181 332.819> 369 71<181.181 332.819> 500 56<174 230 302 358> 510 56<156 212 284 340>
VStem: 39 73<134.61 295.39> 156 74<510 556> 284 74<510 556> 402 73<134.61 295.39>
LayerCount: 2
Fore
SplineSet
284 566 m 1xdf
 358 556 l 1
 358 500 l 1xef
 284 510 l 1
 284 566 l 1xdf
156 566 m 1xdf
 230 556 l 1
 230 500 l 1xef
 156 510 l 1
 156 566 l 1xdf
257 369 m 0
 175 369 112 302 112 215 c 0
 112 128 175 61 257 61 c 0
 339 61 402 128 402 215 c 0
 402 302 339 369 257 369 c 0
257 -10 m 0
 135 -10 39 84 39 215 c 0
 39 346 135 440 257 440 c 0
 379 440 475 346 475 215 c 0
 475 84 379 -10 257 -10 c 0
EndSplineSet
EndChar

StartChar: divide
Encoding: 247 247 182
Width: 462
GlyphClass: 2
Flags: W
HStem: 265 70<70 392>
VStem: 196 70<126 193 407 474>
LayerCount: 2
Fore
SplineSet
60 265 m 1
 70 335 l 1
 402 335 l 1
 392 265 l 1
 60 265 l 1
266 193 m 1
 266 116 l 1
 196 126 l 1
 196 203 l 1
 266 193 l 1
266 474 m 1
 266 397 l 1
 196 407 l 1
 196 484 l 1
 266 474 l 1
EndSplineSet
EndChar

StartChar: oslash
Encoding: 248 248 183
Width: 514
GlyphClass: 2
Flags: W
HStem: -10 71<181.687 330.03> 369 71<184.122 331.213>
VStem: 39 73<132.635 295.699> 402 73<134.301 297.558>
DStem2: 53 26 99 -15 0.653761 0.756701<0 57.2656 130.38 422.387 495.125 552.767>
LayerCount: 2
Fore
SplineSet
258 369 m 0
 172 369 112 299 112 215 c 0
 112 181 122 149 139 124 c 1
 332 348 l 1
 310 361 285 369 258 369 c 0
89 68 m 1
 57 108 39 158 39 215 c 0
 39 343 132 440 257 440 c 0
 304 440 343 427 379 404 c 1
 415 445 l 1
 461 404 l 1
 425 362 l 1
 457 323 475 272 475 215 c 0
 475 87 382 -10 257 -10 c 0
 209 -10 169 4 135 26 c 1
 99 -15 l 1
 53 26 l 1
 89 68 l 1
181 83 m 1
 202 69 229 61 257 61 c 0
 342 61 402 131 402 215 c 0
 402 249 392 281 375 306 c 1
 181 83 l 1
EndSplineSet
EndChar

StartChar: ugrave
Encoding: 249 249 184
Width: 473
GlyphClass: 2
Flags: W
HStem: -10 72<163.3 298.827> 420 20G<50 122> 648 20G<140 179.016>
VStem: 50 72<105.204 430> 338 72<2 45 100.681 435>
DStem2: 160 668 114 622 0.689062 -0.724703<1.63949 168.345>
LayerCount: 2
Fore
SplineSet
276 546 m 1
 230 500 l 1
 114 622 l 1
 160 668 l 1
 276 546 l 1
338 45 m 1
 305 6 263 -10 214 -10 c 0
 120 -10 50 55 50 177 c 2
 50 440 l 1
 122 430 l 1
 122 180 l 2
 122 109 163 62 232 62 c 0
 298 62 338 105 338 179 c 2
 338 435 l 1
 410 435 l 1
 410 2 l 1
 338 -8 l 1
 338 45 l 1
EndSplineSet
EndChar

StartChar: uacute
Encoding: 250 250 185
Width: 473
GlyphClass: 2
Flags: W
HStem: -10 72<163.3 298.827> 420 20G<50 122> 648 20G<280.984 320>
VStem: 50 72<105.204 430> 338 72<2 45 100.681 435>
DStem2: 184 546 230 500 0.689062 0.724703<0 166.705>
LayerCount: 2
Fore
SplineSet
184 546 m 1
 300 668 l 1
 346 622 l 1
 230 500 l 1
 184 546 l 1
338 45 m 1
 305 6 263 -10 214 -10 c 0
 120 -10 50 55 50 177 c 2
 50 440 l 1
 122 430 l 1
 122 180 l 2
 122 109 163 62 232 62 c 0
 298 62 338 105 338 179 c 2
 338 435 l 1
 410 435 l 1
 410 2 l 1
 338 -8 l 1
 338 45 l 1
EndSplineSet
EndChar

StartChar: ucircumflex
Encoding: 251 251 186
Width: 473
GlyphClass: 2
Flags: W
HStem: -10 72<163.3 298.827> 420 20G<50 122>
VStem: 50 72<105.204 430> 338 72<2 45 100.681 435>
DStem2: 114 546 160 500 0.707107 0.707107<0 101.116> 230 662 230 573 0.707107 -0.707107<62.9325 164.049>
LayerCount: 2
Fore
SplineSet
114 546 m 1
 230 662 l 1
 346 546 l 1
 300 500 l 1
 230 573 l 1
 160 500 l 1
 114 546 l 1
338 45 m 1
 305 6 263 -10 214 -10 c 0
 120 -10 50 55 50 177 c 2
 50 440 l 1
 122 430 l 1
 122 180 l 2
 122 109 163 62 232 62 c 0
 298 62 338 105 338 179 c 2
 338 435 l 1
 410 435 l 1
 410 2 l 1
 338 -8 l 1
 338 45 l 1
EndSplineSet
EndChar

StartChar: udieresis
Encoding: 252 252 187
Width: 473
GlyphClass: 2
Flags: W
HStem: -10 72<163.3 298.827> 420 20G<50 122> 500 56<147 203 275 331> 510 56<129 185 257 313>
VStem: 50 72<105.204 430> 129 74<510 556> 257 74<510 556> 338 72<2 45 100.681 435>
LayerCount: 2
Fore
SplineSet
257 566 m 1xdf
 331 556 l 1
 331 500 l 1xef
 257 510 l 1
 257 566 l 1xdf
129 566 m 1xdf
 203 556 l 1
 203 500 l 1xef
 129 510 l 1
 129 566 l 1xdf
338 45 m 1
 305 6 263 -10 214 -10 c 0
 120 -10 50 55 50 177 c 2
 50 440 l 1
 122 430 l 1
 122 180 l 2
 122 109 163 62 232 62 c 0
 298 62 338 105 338 179 c 2
 338 435 l 1
 410 435 l 1
 410 2 l 1
 338 -8 l 1
 338 45 l 1
EndSplineSet
EndChar

StartChar: yacute
Encoding: 253 253 188
Width: 440
GlyphClass: 2
Flags: W
HStem: 648 20G<270.984 310>
DStem2: 86 435 5 435 0.422377 -0.90642<0 323.992> 56.3047 -199.911 135 -210 0.421731 0.906721<24.0404 289.919 377.24 701.235> 174 546 220 500 0.689062 0.724703<0 166.705>
LayerCount: 2
Fore
SplineSet
174 546 m 1
 290 668 l 1
 336 622 l 1
 220 500 l 1
 174 546 l 1
178.3046875 63.0888671875 m 1
 5 435 l 1
 86 435 l 1
 220 140 l 1
 354 435 l 1
 435 435 l 1
 135 -210 l 1
 56.3046875 -199.911132812 l 1
 178.3046875 63.0888671875 l 1
EndSplineSet
EndChar

StartChar: thorn
Encoding: 254 254 189
Width: 532
GlyphClass: 2
Flags: W
HStem: -220 21G<63 135> -10 72<194.76 351.289> 368 72<195.146 351.289> 740 20G<63 120.6>
VStem: 63 72<-200 52 381 735> 63 63<133.198 296.802> 420 73<134.469 295.531>
LayerCount: 2
Fore
SplineSet
273 368 m 0xf6
 182 368 126 298 126 215 c 0
 126 132 182 62 273 62 c 0
 364 62 420 132 420 215 c 0
 420 298 364 368 273 368 c 0xf6
135 381 m 1xfa
 170 413 208 440 273 440 c 0
 403 440 493 344 493 215 c 0
 493 86 403 -10 273 -10 c 0
 206 -10 170 17 135 52 c 1
 135 -200 l 1xfa
 63 -220 l 1
 63 760 l 1xf6
 135 735 l 1
 135 381 l 1xfa
EndSplineSet
EndChar

StartChar: ydieresis
Encoding: 255 255 190
Width: 440
GlyphClass: 2
Flags: W
HStem: 506 56<137 193 265 321> 516 56<119 175 247 303>
VStem: 119 74<516 562> 247 74<516 562>
DStem2: 86 435 5 435 0.422377 -0.90642<0 323.992> 56.3047 -199.911 135 -210 0.421731 0.906721<24.0404 289.919 377.24 701.235>
LayerCount: 2
Fore
SplineSet
247 572 m 1x70
 321 562 l 1
 321 506 l 1xb0
 247 516 l 1
 247 572 l 1x70
119 572 m 1x70
 193 562 l 1
 193 506 l 1xb0
 119 516 l 1
 119 572 l 1x70
178.3046875 63.0888671875 m 1
 5 435 l 1
 86 435 l 1
 220 140 l 1
 354 435 l 1
 435 435 l 1
 135 -210 l 1
 56.3046875 -199.911132812 l 1
 178.3046875 63.0888671875 l 1
EndSplineSet
EndChar

StartChar: Amacron
Encoding: 256 256 191
Width: 618
GlyphClass: 2
Flags: W
HStem: -6 21G<18 102.571 515.429 600> 246 72<232 386> 743 68<195 423>
DStem2: 18 6 94 -6 0.394902 0.918723<18.9879 293.156 371.151 572.441> 309 683 309 504 0.394902 -0.918723<164.451 365.741 443.737 717.904>
LayerCount: 2
Fore
SplineSet
195 811 m 1
 423 811 l 1
 423 743 l 1
 195 743 l 1
 195 811 l 1
94 -6 m 1
 18 6 l 1
 309 683 l 1
 600 6 l 1
 524 -6 l 1
 416 246 l 1
 202 246 l 1
 94 -6 l 1
386 318 m 1
 309 504 l 1
 232 318 l 1
 386 318 l 1
EndSplineSet
EndChar

StartChar: amacron
Encoding: 257 257 192
Width: 432
GlyphClass: 2
Flags: W
HStem: -10 68<148.742 265.705> 242 68<148.742 265.705> 369 71<129 283.626> 500 68<100 328>
VStem: 45 72<88.9534 211.047> 297 72<2 32 89.3091 210.691 263 355.631>
LayerCount: 2
Fore
SplineSet
100 568 m 1
 328 568 l 1
 328 500 l 1
 100 500 l 1
 100 568 l 1
117 150 m 0
 117 98 155 58 207 58 c 0
 259 58 297 98 297 150 c 0
 297 202 259 242 207 242 c 0
 155 242 117 202 117 150 c 0
45 150 m 0
 45 245 109 310 194 310 c 0
 267 310 297 263 297 263 c 1
 297 362 285 369 188 369 c 2
 108 369 l 1
 129 440 l 1
 188 440 l 2
 318 440 369 413 369 268 c 2
 369 2 l 1
 297 -6 l 1
 297 32 l 1
 297 32 267 -10 194 -10 c 0
 109 -10 45 55 45 150 c 0
EndSplineSet
EndChar

StartChar: Abreve
Encoding: 258 258 193
Width: 618
GlyphClass: 2
Flags: W
HStem: -6 21G<18 102.571 515.429 600> 246 72<232 386> 743 57<250.632 367.368>
VStem: 161 58<832.438 890> 399 58<832.438 890>
DStem2: 18 6 94 -6 0.394902 0.918723<18.9879 293.156 371.151 572.441> 309 683 309 504 0.394902 -0.918723<164.451 365.741 443.737 717.904>
LayerCount: 2
Fore
SplineSet
219 890 m 1
 219 840 259 800 309 800 c 0
 359 800 399 840 399 890 c 1
 457 890 l 1
 457 808 391 743 309 743 c 0
 227 743 161 808 161 890 c 1
 219 890 l 1
94 -6 m 1
 18 6 l 1
 309 683 l 1
 600 6 l 1
 524 -6 l 1
 416 246 l 1
 202 246 l 1
 94 -6 l 1
386 318 m 1
 309 504 l 1
 232 318 l 1
 386 318 l 1
EndSplineSet
EndChar

StartChar: abreve
Encoding: 259 259 194
Width: 432
GlyphClass: 2
Flags: W
HStem: -10 68<148.742 265.705> 242 68<148.742 265.705> 369 71<129 283.626> 500 57<155.632 272.368>
VStem: 45 72<88.9534 211.047> 66 58<589.438 647> 297 72<2 32 89.3091 210.691 263 355.631> 304 58<589.438 647>
LayerCount: 2
Fore
SplineSet
124 647 m 1xf5
 124 597 164 557 214 557 c 0
 264 557 304 597 304 647 c 1
 362 647 l 1
 362 565 296 500 214 500 c 0
 132 500 66 565 66 647 c 1
 124 647 l 1xf5
117 150 m 0xfa
 117 98 155 58 207 58 c 0
 259 58 297 98 297 150 c 0
 297 202 259 242 207 242 c 0
 155 242 117 202 117 150 c 0xfa
45 150 m 0
 45 245 109 310 194 310 c 0
 267 310 297 263 297 263 c 1
 297 362 285 369 188 369 c 2
 108 369 l 1
 129 440 l 1
 188 440 l 2
 318 440 369 413 369 268 c 2
 369 2 l 1
 297 -6 l 1
 297 32 l 1
 297 32 267 -10 194 -10 c 0
 109 -10 45 55 45 150 c 0
EndSplineSet
EndChar

StartChar: Aogonek
Encoding: 260 260 195
Width: 618
GlyphClass: 2
Flags: W
HStem: -6 21G<18 102.571 515.429 600> 246 72<232 386>
VStem: 490 56<-119 -24.3542>
DStem2: 18 6 94 -6 0.394902 0.918723<18.9879 293.156 371.151 572.441> 309 683 309 504 0.394902 -0.918723<164.451 365.741 443.737 711.217>
LayerCount: 2
Fore
SplineSet
537 6.8671875 m 1
 577 6.8671875 l 1
 557 -19.1328125 546 -35.1328125 546 -69.1328125 c 0
 546 -104.1328125 574 -132.1328125 613 -154.1328125 c 1
 560 -199.1328125 l 1
 524 -180.1328125 490 -136.1328125 490 -96.1328125 c 0
 490 -34.1328125 537 6.8671875 537 6.8671875 c 1
94 -6 m 1
 18 6 l 1
 309 683 l 1
 600 6 l 1
 524 -6 l 1
 416 246 l 1
 202 246 l 1
 94 -6 l 1
386 318 m 1
 309 504 l 1
 232 318 l 1
 386 318 l 1
EndSplineSet
EndChar

StartChar: aogonek
Encoding: 261 261 196
Width: 432
GlyphClass: 2
Flags: W
HStem: -10 68<148.742 265.705> 242 68<148.742 265.705> 369 71<129 283.626>
VStem: 45 72<88.9534 211.047> 277 56<-124.001 -29.3552> 297 72<2 32 89.3091 210.691 263 355.631>
LayerCount: 2
Fore
SplineSet
117 150 m 0xf4
 117 98 155 58 207 58 c 0
 259 58 297 98 297 150 c 0
 297 202 259 242 207 242 c 0
 155 242 117 202 117 150 c 0xf4
45 150 m 0
 45 245 109 310 194 310 c 0
 267 310 297 263 297 263 c 1
 297 362 285 369 188 369 c 2
 108 369 l 1
 129 440 l 1
 188 440 l 2
 318 440 369 413 369 268 c 2
 369 2 l 1
 297 -6 l 1
 297 32 l 1
 297 32 267 -10 194 -10 c 0
 109 -10 45 55 45 150 c 0
324 1.8662109375 m 1
 364 1.8662109375 l 1
 344 -24.1337890625 333 -40.1337890625 333 -74.1337890625 c 0
 333 -109.133789062 361 -137.133789062 400 -159.133789062 c 1
 347 -204.133789062 l 1
 311 -185.133789062 277 -141.133789062 277 -101.133789062 c 0xf8
 277 -39.1337890625 324 1.8662109375 324 1.8662109375 c 1
EndSplineSet
EndChar

StartChar: Cacute
Encoding: 262 262 197
Width: 644
GlyphClass: 2
Flags: W
HStem: -14 75<281.395 492.777> 603 75<281.395 493.195>
VStem: 39 78<228.578 435.422>
DStem2: 318 786 364 740 0.689062 0.724703<0 166.705>
LayerCount: 2
Fore
SplineSet
318 786 m 1
 434 908 l 1
 480 862 l 1
 364 740 l 1
 318 786 l 1
601 58 m 1
 542 13 468 -14 387 -14 c 0
 191 -14 39 142 39 332 c 0
 39 522 191 678 387 678 c 0
 469 678 543 651 602 605 c 1
 579 523 l 1
 531 572 463 603 387 603 c 0
 235 603 117 479 117 332 c 0
 117 185 235 61 387 61 c 0
 463 61 531 92 579 141 c 1
 601 58 l 1
EndSplineSet
EndChar

StartChar: cacute
Encoding: 263 263 198
Width: 444
GlyphClass: 2
Flags: W
HStem: -10 71<184.797 337.663> 369 71<184.797 338.101> 650 20G<314.984 354>
VStem: 39 73<134.301 295.699>
DStem2: 218 548 264 502 0.689062 0.724703<0 166.705>
LayerCount: 2
Fore
SplineSet
218 548 m 1
 334 670 l 1
 380 624 l 1
 264 502 l 1
 218 548 l 1
401 38 m 1
 364 8 315 -10 260 -10 c 0
 130 -10 39 87 39 215 c 0
 39 343 130 440 260 440 c 0
 316 440 365 422 402 391 c 1
 379 309 l 1
 353 346 311 369 260 369 c 0
 172 369 112 299 112 215 c 0
 112 131 172 61 260 61 c 0
 311 61 353 85 379 121 c 1
 401 38 l 1
EndSplineSet
EndChar

StartChar: Ccircumflex
Encoding: 264 264 199
Width: 644
GlyphClass: 2
Flags: W
HStem: -14 75<281.395 492.777> 603 75<281.395 493.195>
VStem: 39 78<228.578 435.422>
DStem2: 274 784 320 738 0.707107 0.707107<0 101.116> 390 900 390 811 0.707107 -0.707107<62.9325 164.049>
LayerCount: 2
Fore
SplineSet
601 58 m 1
 542 13 468 -14 387 -14 c 0
 191 -14 39 142 39 332 c 0
 39 522 191 678 387 678 c 0
 469 678 543 651 602 605 c 1
 579 523 l 1
 531 572 463 603 387 603 c 0
 235 603 117 479 117 332 c 0
 117 185 235 61 387 61 c 0
 463 61 531 92 579 141 c 1
 601 58 l 1
274 784 m 1
 390 900 l 1
 506 784 l 1
 460 738 l 1
 390 811 l 1
 320 738 l 1
 274 784 l 1
EndSplineSet
EndChar

StartChar: ccircumflex
Encoding: 265 265 200
Width: 444
GlyphClass: 2
Flags: W
HStem: -10 71<184.797 337.663> 369 71<184.797 338.101>
VStem: 39 73<134.301 295.699>
DStem2: 144 546 190 500 0.707107 0.707107<0 101.116> 260 662 260 573 0.707107 -0.707107<62.9325 164.049>
LayerCount: 2
Fore
SplineSet
401 38 m 1
 364 8 315 -10 260 -10 c 0
 130 -10 39 87 39 215 c 0
 39 343 130 440 260 440 c 0
 316 440 365 422 402 391 c 1
 379 309 l 1
 353 346 311 369 260 369 c 0
 172 369 112 299 112 215 c 0
 112 131 172 61 260 61 c 0
 311 61 353 85 379 121 c 1
 401 38 l 1
144 546 m 1
 260 662 l 1
 376 546 l 1
 330 500 l 1
 260 573 l 1
 190 500 l 1
 144 546 l 1
EndSplineSet
EndChar

StartChar: Cdotaccent
Encoding: 266 266 201
Width: 644
GlyphClass: 2
Flags: W
HStem: -14 75<281.395 492.777> 603 75<281.395 493.195> 738 72<350 422> 748 72<348 420>
VStem: 39 78<228.578 435.422> 348 74<748 810>
LayerCount: 2
Fore
SplineSet
601 58 m 1xcc
 542 13 468 -14 387 -14 c 0
 191 -14 39 142 39 332 c 0
 39 522 191 678 387 678 c 0
 469 678 543 651 602 605 c 1
 579 523 l 1
 531 572 463 603 387 603 c 0
 235 603 117 479 117 332 c 0
 117 185 235 61 387 61 c 0
 463 61 531 92 579 141 c 1
 601 58 l 1xcc
422 810 m 1xec
 422 738 l 1xec
 348 748 l 1
 348 820 l 1xdc
 422 810 l 1xec
EndSplineSet
EndChar

StartChar: cdotaccent
Encoding: 267 267 202
Width: 444
GlyphClass: 2
Flags: W
HStem: -10 71<184.797 337.663> 369 71<184.797 338.101> 500 72<226 298> 510 72<224 296>
VStem: 39 73<134.301 295.699> 224 74<510 572>
LayerCount: 2
Fore
SplineSet
401 38 m 1xcc
 364 8 315 -10 260 -10 c 0
 130 -10 39 87 39 215 c 0
 39 343 130 440 260 440 c 0
 316 440 365 422 402 391 c 1
 379 309 l 1
 353 346 311 369 260 369 c 0
 172 369 112 299 112 215 c 0
 112 131 172 61 260 61 c 0
 311 61 353 85 379 121 c 1
 401 38 l 1xcc
298 572 m 1xec
 298 500 l 1xec
 224 510 l 1
 224 582 l 1xdc
 298 572 l 1xec
EndSplineSet
EndChar

StartChar: Ccaron
Encoding: 268 268 203
Width: 644
GlyphClass: 2
Flags: W
HStem: -14 75<281.395 492.777> 603 75<281.395 493.195>
VStem: 39 78<228.578 435.422>
DStem2: 320 900 274 854 0.707107 -0.707107<0 101.116> 390 827 390 738 0.707107 0.707107<0 101.116>
LayerCount: 2
Fore
SplineSet
601 58 m 1
 542 13 468 -14 387 -14 c 0
 191 -14 39 142 39 332 c 0
 39 522 191 678 387 678 c 0
 469 678 543 651 602 605 c 1
 579 523 l 1
 531 572 463 603 387 603 c 0
 235 603 117 479 117 332 c 0
 117 185 235 61 387 61 c 0
 463 61 531 92 579 141 c 1
 601 58 l 1
506 854 m 1
 390 738 l 1
 274 854 l 1
 320 900 l 1
 390 827 l 1
 460 900 l 1
 506 854 l 1
EndSplineSet
EndChar

StartChar: ccaron
Encoding: 269 269 204
Width: 444
GlyphClass: 2
Flags: W
HStem: -10 71<184.797 337.663> 369 71<184.797 338.101>
VStem: 39 73<134.301 295.699>
DStem2: 190 662 144 616 0.707107 -0.707107<0 101.116> 260 589 260 500 0.707107 0.707107<0 101.116>
LayerCount: 2
Fore
SplineSet
401 38 m 1
 364 8 315 -10 260 -10 c 0
 130 -10 39 87 39 215 c 0
 39 343 130 440 260 440 c 0
 316 440 365 422 402 391 c 1
 379 309 l 1
 353 346 311 369 260 369 c 0
 172 369 112 299 112 215 c 0
 112 131 172 61 260 61 c 0
 311 61 353 85 379 121 c 1
 401 38 l 1
376 616 m 1
 260 500 l 1
 144 616 l 1
 190 662 l 1
 260 589 l 1
 330 662 l 1
 376 616 l 1
EndSplineSet
EndChar

StartChar: Dcaron
Encoding: 270 270 205
Width: 576
GlyphClass: 2
Flags: W
HStem: 0 75<139 303.098> 591 75<139 303.098>
VStem: 63 76<75 591> 462 75<233.759 432.241>
DStem2: 150 900 104 854 0.707107 -0.707107<0 101.116> 220 827 220 738 0.707107 0.707107<0 101.116>
LayerCount: 2
Fore
SplineSet
63 0 m 1
 63 666 l 1
 202 666 l 2
 391 666 537 516 537 333 c 0
 537 150 391 0 202 0 c 2
 63 0 l 1
139 75 m 1
 202 75 l 2
 348 75 462 192 462 333 c 0
 462 474 348 591 202 591 c 2
 139 591 l 1
 139 75 l 1
336 854 m 1
 220 738 l 1
 104 854 l 1
 150 900 l 1
 220 827 l 1
 290 900 l 1
 336 854 l 1
EndSplineSet
EndChar

StartChar: dcaron
Encoding: 271 271 206
Width: 532
GlyphClass: 2
Flags: W
HStem: -10 72<180.711 336.854> 368 72<180.711 337.24> 740 20G<397 469>
VStem: 39 73<134.469 295.531> 397 72<2 49 378 740> 406 63<133.198 296.802>
LayerCount: 2
Fore
SplineSet
259 62 m 0xf4
 350 62 406 132 406 215 c 0
 406 298 350 368 259 368 c 0
 168 368 112 298 112 215 c 0
 112 132 168 62 259 62 c 0xf4
397 378 m 1xf8
 397 760 l 1
 469 740 l 1
 469 2 l 1
 397 -6 l 1
 397 49 l 1
 362 17 324 -10 259 -10 c 0
 129 -10 39 86 39 215 c 0
 39 344 129 440 259 440 c 0
 326 440 362 413 397 378 c 1xf8
518 605 m 1
 541 740 l 1
 613 740 l 1
 567 605 l 1
 518 605 l 1
EndSplineSet
EndChar

StartChar: Dcroat
Encoding: 272 272 207
Width: 583
GlyphClass: 2
Flags: W
HStem: 0 75<146 310.098> 278 72<0 70 146 227> 591 75<146 310.098>
VStem: 70 76<75 278 350 591> 469 75<233.759 432.241>
LayerCount: 2
Fore
SplineSet
146 75 m 1
 209 75 l 2
 355 75 469 192 469 333 c 0
 469 474 355 591 209 591 c 2
 146 591 l 1
 146 350 l 1
 227 350 l 1
 227 278 l 1
 146 278 l 1
 146 75 l 1
70 350 m 1
 70 666 l 1
 209 666 l 2
 398 666 544 516 544 333 c 0
 544 150 398 0 209 0 c 2
 70 0 l 1
 70 278 l 1
 0 278 l 1
 0 350 l 1
 70 350 l 1
EndSplineSet
EndChar

StartChar: dcroat
Encoding: 273 273 208
Width: 532
GlyphClass: 2
Flags: W
HStem: -10 72<180.711 336.854> 368 72<180.711 337.24> 601 65<256 397 469 532> 740 20G<397 469>
VStem: 39 73<134.469 295.531> 397 72<2 49 378 601 666 740> 406 63<133.198 296.802>
LayerCount: 2
Fore
SplineSet
259 62 m 0xfa
 350 62 406 132 406 215 c 0
 406 298 350 368 259 368 c 0
 168 368 112 298 112 215 c 0
 112 132 168 62 259 62 c 0xfa
397 601 m 1xfc
 256 601 l 1
 256 666 l 1
 397 666 l 1
 397 760 l 1
 469 740 l 1
 469 666 l 1
 532 666 l 1
 532 601 l 1
 469 601 l 1
 469 2 l 1
 397 -6 l 1
 397 49 l 1
 362 17 324 -10 259 -10 c 0
 129 -10 39 86 39 215 c 0
 39 344 129 440 259 440 c 0
 326 440 362 413 397 378 c 1
 397 601 l 1xfc
EndSplineSet
EndChar

StartChar: Emacron
Encoding: 274 274 209
Width: 449
GlyphClass: 2
Flags: W
HStem: 0 72<136.926 404.926> 278 72<136.926 384.926> 594 72<136.926 394.926> 738 68<118.926 346.926>
VStem: 60.9258 76<72 278 350 594>
LayerCount: 2
Fore
SplineSet
118.92578125 806 m 1
 346.92578125 806 l 1
 346.92578125 738 l 1
 118.92578125 738 l 1
 118.92578125 806 l 1
404.92578125 0 m 1
 60.92578125 0 l 1
 60.92578125 666 l 1
 394.92578125 666 l 1
 394.92578125 594 l 1
 136.92578125 594 l 1
 136.92578125 350 l 1
 384.92578125 350 l 1
 384.92578125 278 l 1
 136.92578125 278 l 1
 136.92578125 72 l 1
 404.92578125 72 l 1
 404.92578125 0 l 1
EndSplineSet
EndChar

StartChar: emacron
Encoding: 275 275 210
Width: 496
GlyphClass: 2
Flags: W
HStem: -10 71<181.549 332.136> 369 71<182.336 333.855> 500 68<134 362>
VStem: 39 73<185.034 298.29>
DStem2: 115 184 141 120 0.892157 0.451725<0 287.105>
LayerCount: 2
Fore
SplineSet
134 568 m 1
 362 568 l 1
 362 500 l 1
 134 500 l 1
 134 568 l 1
445 97 m 1
 408 31 342 -10 257 -10 c 0
 127 -10 39 87 39 215 c 0
 39 343 127 440 257 440 c 0
 345 440 433 391 457 280 c 1
 141 120 l 1
 166 85 204 61 257 61 c 0
 314 61 357 91 382 136 c 1
 445 97 l 1
372 312 m 1
 346 347 307 369 257 369 c 0
 169 369 112 299 112 215 c 0
 112 204 113 194 115 184 c 1
 372 312 l 1
EndSplineSet
EndChar

StartChar: Ebreve
Encoding: 276 276 211
Width: 449
GlyphClass: 2
Flags: W
HStem: 0 72<136.926 404.926> 278 72<136.926 384.926> 594 72<136.926 394.926> 738 57<174.557 291.294>
VStem: 60.9258 76<72 278 350 594> 84.9258 58<827.438 885> 322.926 58<827.438 885>
LayerCount: 2
Fore
SplineSet
142.92578125 885 m 1xf6
 142.92578125 835 182.92578125 795 232.92578125 795 c 0
 282.92578125 795 322.92578125 835 322.92578125 885 c 1
 380.92578125 885 l 1
 380.92578125 803 314.92578125 738 232.92578125 738 c 0
 150.92578125 738 84.92578125 803 84.92578125 885 c 1
 142.92578125 885 l 1xf6
404.92578125 0 m 1
 60.92578125 0 l 1
 60.92578125 666 l 1
 394.92578125 666 l 1
 394.92578125 594 l 1
 136.92578125 594 l 1
 136.92578125 350 l 1
 384.92578125 350 l 1
 384.92578125 278 l 1
 136.92578125 278 l 1
 136.92578125 72 l 1xfa
 404.92578125 72 l 1
 404.92578125 0 l 1
EndSplineSet
EndChar

StartChar: ebreve
Encoding: 277 277 212
Width: 496
GlyphClass: 2
Flags: W
HStem: -10 71<181.549 332.136> 369 71<182.336 333.855> 500 57<189.632 306.368>
VStem: 39 73<185.034 298.29> 100 58<589.438 647> 338 58<589.438 647>
DStem2: 115 184 141 120 0.892157 0.451725<0 287.105>
LayerCount: 2
Fore
SplineSet
158 647 m 1xec
 158 597 198 557 248 557 c 0
 298 557 338 597 338 647 c 1
 396 647 l 1
 396 565 330 500 248 500 c 0
 166 500 100 565 100 647 c 1
 158 647 l 1xec
445 97 m 1
 408 31 342 -10 257 -10 c 0
 127 -10 39 87 39 215 c 0xf4
 39 343 127 440 257 440 c 0
 345 440 433 391 457 280 c 1
 141 120 l 1
 166 85 204 61 257 61 c 0
 314 61 357 91 382 136 c 1
 445 97 l 1
372 312 m 1
 346 347 307 369 257 369 c 0
 169 369 112 299 112 215 c 0
 112 204 113 194 115 184 c 1
 372 312 l 1
EndSplineSet
EndChar

StartChar: Edotaccent
Encoding: 278 278 213
Width: 449
GlyphClass: 2
Flags: W
HStem: 0 72<136.926 404.926> 278 72<136.926 384.926> 594 72<136.926 394.926> 738 72<197.926 269.926> 748 72<195.926 267.926>
VStem: 60.9258 76<72 278 350 594> 195.926 74<748 810>
LayerCount: 2
Fore
SplineSet
269.92578125 810 m 1xf6
 269.92578125 738 l 1xf6
 195.92578125 748 l 1
 195.92578125 820 l 1xee
 269.92578125 810 l 1xf6
404.92578125 0 m 1
 60.92578125 0 l 1
 60.92578125 666 l 1
 394.92578125 666 l 1
 394.92578125 594 l 1
 136.92578125 594 l 1
 136.92578125 350 l 1
 384.92578125 350 l 1
 384.92578125 278 l 1
 136.92578125 278 l 1
 136.92578125 72 l 1
 404.92578125 72 l 1
 404.92578125 0 l 1
EndSplineSet
EndChar

StartChar: edotaccent
Encoding: 279 279 214
Width: 496
GlyphClass: 2
Flags: W
HStem: -10 71<181.549 332.136> 369 71<182.336 333.855> 500 72<213 285> 510 72<211 283>
VStem: 39 73<185.034 298.29> 211 74<510 572>
DStem2: 115 184 141 120 0.892157 0.451725<0 287.105>
LayerCount: 2
Fore
SplineSet
285 572 m 1xec
 285 500 l 1xec
 211 510 l 1
 211 582 l 1xdc
 285 572 l 1xec
445 97 m 1
 408 31 342 -10 257 -10 c 0
 127 -10 39 87 39 215 c 0
 39 343 127 440 257 440 c 0
 345 440 433 391 457 280 c 1
 141 120 l 1
 166 85 204 61 257 61 c 0
 314 61 357 91 382 136 c 1
 445 97 l 1
372 312 m 1
 346 347 307 369 257 369 c 0
 169 369 112 299 112 215 c 0
 112 204 113 194 115 184 c 1
 372 312 l 1
EndSplineSet
EndChar

StartChar: Eogonek
Encoding: 280 280 215
Width: 452
GlyphClass: 2
Flags: W
HStem: 0 72<139 362 387.936 407> 278 72<139 387> 594 72<139 397>
VStem: 63 76<72 278 350 594> 319 56<-121.868 -27.6159>
LayerCount: 2
Fore
SplineSet
403 0 m 1
 385 -24 375 -40 375 -72 c 0
 375 -107 403 -135 442 -157 c 1
 389 -202 l 1
 353 -183 319 -139 319 -99 c 0
 319 -48 351 -12 362 0 c 1
 63 0 l 1
 63 666 l 1
 397 666 l 1
 397 594 l 1
 139 594 l 1
 139 350 l 1
 387 350 l 1
 387 278 l 1
 139 278 l 1
 139 72 l 1
 407 72 l 1
 407 0 l 1
 403 0 l 1
EndSplineSet
EndChar

StartChar: eogonek
Encoding: 281 281 216
Width: 496
GlyphClass: 2
Flags: W
HStem: -10 71<181.549 333.166> 369 71<182.336 333.855>
VStem: 39 73<185.034 298.29> 320 56<-77.8676 2.61475>
DStem2: 115 184 141 120 0.892157 0.451725<0 287.105>
LayerCount: 2
Fore
SplineSet
372 312 m 1
 346 347 307 369 257 369 c 0
 169 369 112 299 112 215 c 0
 112 204 113 194 115 184 c 1
 372 312 l 1
407 48 m 0
 387 22 376 6 376 -28 c 0
 376 -63 404 -91 443 -113 c 1
 390 -158 l 1
 354 -139 320 -95 320 -55 c 0
 320 -32 326 -13 334 3 c 1
 310 -6 286 -10 257 -10 c 0
 127 -10 39 87 39 215 c 0
 39 343 127 440 257 440 c 0
 345 440 433 391 457 280 c 1
 141 120 l 1
 166 85 204 61 257 61 c 0
 314 61 357 91 382 136 c 1
 445 97 l 1
 435 79 422 62 407 48 c 0
EndSplineSet
EndChar

StartChar: Ecaron
Encoding: 282 282 217
Width: 449
GlyphClass: 2
Flags: W
HStem: 0 72<136.926 404.926> 278 72<136.926 384.926> 594 72<136.926 394.926>
VStem: 60.9258 76<72 278 350 594>
DStem2: 162.926 900 116.926 854 0.707107 -0.707107<0 101.116> 232.926 827 232.926 738 0.707107 0.707107<0 101.116>
LayerCount: 2
Fore
SplineSet
348.92578125 854 m 1
 232.92578125 738 l 1
 116.92578125 854 l 1
 162.92578125 900 l 1
 232.92578125 827 l 1
 302.92578125 900 l 1
 348.92578125 854 l 1
404.92578125 0 m 1
 60.92578125 0 l 1
 60.92578125 666 l 1
 394.92578125 666 l 1
 394.92578125 594 l 1
 136.92578125 594 l 1
 136.92578125 350 l 1
 384.92578125 350 l 1
 384.92578125 278 l 1
 136.92578125 278 l 1
 136.92578125 72 l 1
 404.92578125 72 l 1
 404.92578125 0 l 1
EndSplineSet
EndChar

StartChar: ecaron
Encoding: 283 283 218
Width: 496
GlyphClass: 2
Flags: W
HStem: -10 71<181.549 332.136> 369 71<182.336 333.855>
VStem: 39 73<185.034 298.29>
DStem2: 115 184 141 120 0.892157 0.451725<0 287.105> 178 662 132 616 0.707107 -0.707107<0 101.116> 248 589 248 500 0.707107 0.707107<0 101.116>
LayerCount: 2
Fore
SplineSet
364 616 m 1
 248 500 l 1
 132 616 l 1
 178 662 l 1
 248 589 l 1
 318 662 l 1
 364 616 l 1
445 97 m 1
 408 31 342 -10 257 -10 c 0
 127 -10 39 87 39 215 c 0
 39 343 127 440 257 440 c 0
 345 440 433 391 457 280 c 1
 141 120 l 1
 166 85 204 61 257 61 c 0
 314 61 357 91 382 136 c 1
 445 97 l 1
372 312 m 1
 346 347 307 369 257 369 c 0
 169 369 112 299 112 215 c 0
 112 204 113 194 115 184 c 1
 372 312 l 1
EndSplineSet
EndChar

StartChar: Gcircumflex
Encoding: 284 284 219
Width: 644
GlyphClass: 2
Flags: W
HStem: -14 75<281.395 490.288> 278 72<420 507> 603 75<281.395 491.585>
VStem: 39 78<228.578 435.422> 507 72<80.6396 278>
DStem2: 273 784 319 738 0.707107 0.707107<0 101.116> 389 900 389 811 0.707107 -0.707107<62.9325 164.049>
LayerCount: 2
Fore
SplineSet
420 278 m 1
 420 350 l 1
 579 350 l 1
 579 45 l 1
 524 8 458 -14 387 -14 c 0
 191 -14 39 142 39 332 c 0
 39 522 191 678 387 678 c 0
 447 678 503 663 552 636 c 1
 552 545 l 1
 507 581 450 603 387 603 c 0
 235 603 117 479 117 332 c 0
 117 185 235 61 387 61 c 0
 431 61 471 72 507 90 c 1
 507 278 l 1
 420 278 l 1
273 784 m 1
 389 900 l 1
 505 784 l 1
 459 738 l 1
 389 811 l 1
 319 738 l 1
 273 784 l 1
EndSplineSet
EndChar

StartChar: gcircumflex
Encoding: 285 285 220
Width: 448
GlyphClass: 2
Flags: W
HStem: -200 72<163.878 290.77> 92 74<164.004 289.257> 370 70<160.872 291.128>
VStem: 45 75<-84.0071 48.0819 206.265 329.259> 331 72<205.087 329.259>
DStem2: 108 546 154 500 0.707107 0.707107<0 101.116> 224 662 224 573 0.707107 -0.707107<62.9325 164.049>
LayerCount: 2
Fore
SplineSet
108 546 m 1
 224 662 l 1
 340 546 l 1
 294 500 l 1
 224 573 l 1
 154 500 l 1
 108 546 l 1
121 268 m 0
 121 209 167 166 226 166 c 0
 285 166 331 209 331 268 c 0
 331 327 285 370 226 370 c 0
 167 370 121 327 121 268 c 0
49 268 m 0
 49 366 128 440 226 440 c 0
 324 440 403 366 403 268 c 0
 403 210 375 160 332 129 c 1
 340 123 348 117 355 110 c 1
 304 59 l 1
 284 79 256 92 226 92 c 0
 166 92 120 42 120 -18 c 0
 120 -78 166 -128 226 -128 c 0
 256 -128 284 -115 304 -95 c 1
 355 -146 l 1
 322 -179 276 -200 226 -200 c 0
 126 -200 45 -118 45 -18 c 0
 45 42 75 96 120 129 c 1
 77 160 49 210 49 268 c 0
EndSplineSet
EndChar

StartChar: Gbreve
Encoding: 286 286 221
Width: 644
GlyphClass: 2
Flags: W
HStem: -14 75<281.395 490.288> 278 72<420 507> 603 75<281.395 491.585> 738 57<318.632 435.368>
VStem: 39 78<228.578 435.422> 229 58<827.438 885> 467 58<827.438 885> 507 72<80.6396 278>
LayerCount: 2
Fore
SplineSet
420 278 m 1xfd
 420 350 l 1
 579 350 l 1
 579 45 l 1
 524 8 458 -14 387 -14 c 0
 191 -14 39 142 39 332 c 0
 39 522 191 678 387 678 c 0
 447 678 503 663 552 636 c 1
 552 545 l 1
 507 581 450 603 387 603 c 0
 235 603 117 479 117 332 c 0
 117 185 235 61 387 61 c 0
 431 61 471 72 507 90 c 1
 507 278 l 1
 420 278 l 1xfd
287 885 m 1
 287 835 327 795 377 795 c 0
 427 795 467 835 467 885 c 1
 525 885 l 1xfe
 525 803 459 738 377 738 c 0
 295 738 229 803 229 885 c 1
 287 885 l 1
EndSplineSet
EndChar

StartChar: gbreve
Encoding: 287 287 222
Width: 448
GlyphClass: 2
Flags: W
HStem: -200 72<163.878 290.77> 92 74<164.004 289.257> 370 70<160.872 291.128> 500 57<157.632 274.368>
VStem: 45 75<-84.0071 48.0819 206.265 329.259> 68 58<589.438 647> 306 58<589.438 647> 331 72<205.087 329.259>
LayerCount: 2
Fore
SplineSet
126 647 m 1xf6
 126 597 166 557 216 557 c 0
 266 557 306 597 306 647 c 1
 364 647 l 1
 364 565 298 500 216 500 c 0
 134 500 68 565 68 647 c 1
 126 647 l 1xf6
121 268 m 0
 121 209 167 166 226 166 c 0
 285 166 331 209 331 268 c 0xf1
 331 327 285 370 226 370 c 0
 167 370 121 327 121 268 c 0
49 268 m 0
 49 366 128 440 226 440 c 0
 324 440 403 366 403 268 c 0
 403 210 375 160 332 129 c 1
 340 123 348 117 355 110 c 1
 304 59 l 1
 284 79 256 92 226 92 c 0
 166 92 120 42 120 -18 c 0
 120 -78 166 -128 226 -128 c 0
 256 -128 284 -115 304 -95 c 1
 355 -146 l 1
 322 -179 276 -200 226 -200 c 0
 126 -200 45 -118 45 -18 c 0
 45 42 75 96 120 129 c 1xf9
 77 160 49 210 49 268 c 0
EndSplineSet
EndChar

StartChar: Gdotaccent
Encoding: 288 288 223
Width: 644
GlyphClass: 2
Flags: W
HStem: -14 75<281.395 490.288> 278 72<420 507> 603 75<281.395 491.585> 738 72<338 410> 748 72<336 408>
VStem: 39 78<228.578 435.422> 336 74<748 810> 507 72<80.6396 278>
LayerCount: 2
Fore
SplineSet
420 278 m 1xe7
 420 350 l 1
 579 350 l 1
 579 45 l 1
 524 8 458 -14 387 -14 c 0
 191 -14 39 142 39 332 c 0
 39 522 191 678 387 678 c 0
 447 678 503 663 552 636 c 1
 552 545 l 1
 507 581 450 603 387 603 c 0
 235 603 117 479 117 332 c 0
 117 185 235 61 387 61 c 0
 431 61 471 72 507 90 c 1
 507 278 l 1
 420 278 l 1xe7
410 810 m 1xf7
 410 738 l 1xf7
 336 748 l 1
 336 820 l 1xef
 410 810 l 1xf7
EndSplineSet
EndChar

StartChar: gdotaccent
Encoding: 289 289 224
Width: 448
GlyphClass: 2
Flags: W
HStem: -200 72<163.878 290.77> 92 74<164.004 289.257> 370 70<160.872 291.128> 500 72<189 261> 510 72<187 259>
VStem: 45 75<-84.0071 48.0819 206.265 329.259> 187 74<510 572> 331 72<205.087 329.259>
LayerCount: 2
Fore
SplineSet
261 572 m 1xf7
 261 500 l 1xf7
 187 510 l 1
 187 582 l 1xef
 261 572 l 1xf7
121 268 m 0
 121 209 167 166 226 166 c 0
 285 166 331 209 331 268 c 0
 331 327 285 370 226 370 c 0
 167 370 121 327 121 268 c 0
49 268 m 0
 49 366 128 440 226 440 c 0
 324 440 403 366 403 268 c 0
 403 210 375 160 332 129 c 1
 340 123 348 117 355 110 c 1
 304 59 l 1
 284 79 256 92 226 92 c 0
 166 92 120 42 120 -18 c 0
 120 -78 166 -128 226 -128 c 0
 256 -128 284 -115 304 -95 c 1
 355 -146 l 1
 322 -179 276 -200 226 -200 c 0
 126 -200 45 -118 45 -18 c 0
 45 42 75 96 120 129 c 1
 77 160 49 210 49 268 c 0
EndSplineSet
EndChar

StartChar: uni0122
Encoding: 290 290 225
Width: 644
GlyphClass: 2
Flags: W
HStem: -14 75<281.395 490.288> 278 72<420 507> 603 75<281.395 491.585>
VStem: 39 78<228.578 435.422> 507 72<80.6396 278>
LayerCount: 2
Fore
SplineSet
286 -172 m 1
 348 -60 l 1
 414 -71 l 1
 341 -183 l 1
 286 -172 l 1
420 278 m 1
 420 350 l 1
 579 350 l 1
 579 45 l 1
 524 8 458 -14 387 -14 c 0
 191 -14 39 142 39 332 c 0
 39 522 191 678 387 678 c 0
 447 678 503 663 552 636 c 1
 552 545 l 1
 507 581 450 603 387 603 c 0
 235 603 117 479 117 332 c 0
 117 185 235 61 387 61 c 0
 431 61 471 72 507 90 c 1
 507 278 l 1
 420 278 l 1
EndSplineSet
EndChar

StartChar: uni0123
Encoding: 291 291 226
Width: 448
GlyphClass: 2
Flags: W
HStem: -200 72<163.878 290.77> 92 74<164.004 289.257> 370 70<160.872 291.128>
VStem: 45 75<-84.0071 48.0819 206.265 329.259> 331 72<205.087 329.259>
LayerCount: 2
Fore
SplineSet
121 268 m 0
 121 209 167 166 226 166 c 0
 285 166 331 209 331 268 c 0
 331 327 285 370 226 370 c 0
 167 370 121 327 121 268 c 0
49 268 m 0
 49 366 128 440 226 440 c 0
 324 440 403 366 403 268 c 0
 403 210 375 160 332 129 c 1
 340 123 348 117 355 110 c 1
 304 59 l 1
 284 79 256 92 226 92 c 0
 166 92 120 42 120 -18 c 0
 120 -78 166 -128 226 -128 c 0
 256 -128 284 -115 304 -95 c 1
 355 -146 l 1
 322 -179 276 -200 226 -200 c 0
 126 -200 45 -118 45 -18 c 0
 45 42 75 96 120 129 c 1
 77 160 49 210 49 268 c 0
318 589 m 1
 256 477 l 1
 190 488 l 1
 263 600 l 1
 318 589 l 1
EndSplineSet
EndChar

StartChar: Hcircumflex
Encoding: 292 292 227
Width: 644
GlyphClass: 2
Flags: W
HStem: 0 21G<63 139 505 581> 278 72<139 505> 646 20G<63 139 505 581>
VStem: 63 76<0 278 350 666> 505 76<0 278 350 666>
DStem2: 206 784 252 738 0.707107 0.707107<0 101.116> 322 900 322 811 0.707107 -0.707107<62.9325 164.049>
LayerCount: 2
Fore
SplineSet
206 784 m 1
 322 900 l 1
 438 784 l 1
 392 738 l 1
 322 811 l 1
 252 738 l 1
 206 784 l 1
505 0 m 1
 505 278 l 1
 139 278 l 1
 139 0 l 1
 63 0 l 1
 63 666 l 1
 139 666 l 1
 139 350 l 1
 505 350 l 1
 505 666 l 1
 581 666 l 1
 581 0 l 1
 505 0 l 1
EndSplineSet
EndChar

StartChar: hcircumflex
Encoding: 293 293 228
Width: 463
GlyphClass: 2
Flags: W
HStem: 0 21G<63 135 341 413> 368 72<173.445 302.432> 740 20G<63 135>
VStem: 63 72<0 328.373 385 740> 341 72<0 324.396>
DStem2: 122 866 168 820 0.707107 0.707107<0 101.116> 238 982 238 893 0.707107 -0.707107<62.9325 164.049>
LayerCount: 2
Fore
SplineSet
122 866 m 1
 238 982 l 1
 354 866 l 1
 308 820 l 1
 238 893 l 1
 168 820 l 1
 122 866 l 1
63 0 m 1
 63 760 l 1
 135 740 l 1
 135 385 l 1
 168 422 200 440 254 440 c 0
 346 440 413 374 413 253 c 2
 413 0 l 1
 341 0 l 1
 341 250 l 2
 341 318 305 368 238 368 c 0
 171 368 135 318 135 250 c 2
 135 0 l 1
 63 0 l 1
EndSplineSet
EndChar

StartChar: Hbar
Encoding: 294 294 229
Width: 644
GlyphClass: 2
Flags: W
HStem: 0 21G<63 139 505 581> 278 72<139 505> 501 65<4 63 139 505 581 640> 646 20G<63 139 505 581>
VStem: 63 76<0 278 350 501 566 666> 505 76<0 278 350 501 566 666>
LayerCount: 2
Fore
SplineSet
505 0 m 1
 505 278 l 1
 139 278 l 1
 139 0 l 1
 63 0 l 1
 63 501 l 1
 4 501 l 1
 4 566 l 1
 63 566 l 1
 63 666 l 1
 139 666 l 1
 139 566 l 1
 505 566 l 1
 505 666 l 1
 581 666 l 1
 581 566 l 1
 640 566 l 1
 640 501 l 1
 581 501 l 1
 581 0 l 1
 505 0 l 1
139 501 m 1
 139 350 l 1
 505 350 l 1
 505 501 l 1
 139 501 l 1
EndSplineSet
EndChar

StartChar: hbar
Encoding: 295 295 230
Width: 463
GlyphClass: 2
Flags: W
HStem: 0 21G<63 135 341 413> 368 72<173.445 302.432> 601 65<2 63 135 278> 740 20G<63 135>
VStem: 63 72<0 328.373 385 601 666 740> 341 72<0 324.396>
LayerCount: 2
Fore
SplineSet
63 601 m 1
 2 601 l 1
 2 666 l 1
 63 666 l 1
 63 760 l 1
 135 740 l 1
 135 666 l 1
 278 666 l 1
 278 601 l 1
 135 601 l 1
 135 385 l 1
 168 422 200 440 254 440 c 0
 346 440 413 374 413 253 c 2
 413 0 l 1
 341 0 l 1
 341 250 l 2
 341 318 305 368 238 368 c 0
 171 368 135 318 135 250 c 2
 135 0 l 1
 63 0 l 1
 63 601 l 1
EndSplineSet
EndChar

StartChar: Itilde
Encoding: 296 296 231
Width: 201
GlyphClass: 2
Flags: W
HStem: 0 21G<63 138> 646 20G<63 138> 740 72<92.0312 186.724> 775 73<19.9188 114.297>
VStem: 63 75<0 666>
DStem2: 62.5 844 56.5 772 0.955286 -0.295684<1.434 109.497>
LayerCount: 2
Fore
SplineSet
42.5 775 m 0xd8
 30.5 775 25.5 772 22.5 767 c 0
 18.5 761 15.5 748 13.5 738 c 1
 -52.5 763 l 1
 -50.5 772 l 2
 -37.5 820 -8.5 848 34.5 848 c 0xd8
 44.5 848 52.5 847 62.5 844 c 2
 141.5 817 l 2
 153.5 813 161.5 812 167.5 812 c 0
 180.5 812 185.5 821 187.5 838 c 2
 188.5 850 l 1
 253.5 832 l 1
 253.5 824 l 2
 253.5 777 222.5 740 178.5 740 c 0xe8
 167.5 740 155.5 741 140.5 746 c 2
 56.5 772 l 2
 52.5 773 45.5 775 42.5 775 c 0xd8
63 0 m 1
 63 666 l 1
 138 666 l 1
 138 0 l 1
 63 0 l 1
EndSplineSet
EndChar

StartChar: itilde
Encoding: 297 297 232
Width: 198
GlyphClass: 2
Flags: W
HStem: 0 21G<63 135> 502 72<90.5312 185.224> 537 73<18.4188 112.797>
VStem: 63 72<0 425>
DStem2: 61 606 55 534 0.955286 -0.295684<1.434 109.497>
LayerCount: 2
Fore
SplineSet
135 0 m 1x90
 63 0 l 1
 63 435 l 1
 135 425 l 1
 135 0 l 1x90
41 537 m 0xb0
 29 537 24 534 21 529 c 0
 17 523 14 510 12 500 c 1
 -54 525 l 1
 -52 534 l 2
 -39 582 -10 610 33 610 c 0xb0
 43 610 51 609 61 606 c 2
 140 579 l 2
 152 575 160 574 166 574 c 0
 179 574 184 583 186 600 c 2
 187 612 l 1
 252 594 l 1
 252 586 l 2
 252 539 221 502 177 502 c 0xd0
 166 502 154 503 139 508 c 2
 55 534 l 2
 51 535 44 537 41 537 c 0xb0
EndSplineSet
EndChar

StartChar: Imacron
Encoding: 298 298 233
Width: 201
GlyphClass: 2
Flags: W
HStem: 0 21G<63 138> 646 20G<63 138> 738 68<-18.5 209.5>
VStem: 63 75<0 666>
LayerCount: 2
Fore
SplineSet
-18.5 806 m 1
 209.5 806 l 1
 209.5 738 l 1
 -18.5 738 l 1
 -18.5 806 l 1
63 0 m 1
 63 666 l 1
 138 666 l 1
 138 0 l 1
 63 0 l 1
EndSplineSet
EndChar

StartChar: imacron
Encoding: 299 299 234
Width: 198
GlyphClass: 2
Flags: W
HStem: 0 21G<63 135> 500 68<-15 213>
VStem: 63 72<0 425>
LayerCount: 2
Fore
SplineSet
-15 568 m 1
 213 568 l 1
 213 500 l 1
 -15 500 l 1
 -15 568 l 1
135 0 m 1
 63 0 l 1
 63 435 l 1
 135 425 l 1
 135 0 l 1
EndSplineSet
EndChar

StartChar: Ibreve
Encoding: 300 300 235
Width: 201
GlyphClass: 2
Flags: W
HStem: 0 21G<63 138> 646 20G<63 138> 738 57<42.1316 158.868>
VStem: -47.5 58<827.438 885> 63 75<0 666> 190.5 58<827.438 885>
CounterMasks: 1 1c
LayerCount: 2
Fore
SplineSet
10.5 885 m 1
 10.5 835 50.5 795 100.5 795 c 0
 150.5 795 190.5 835 190.5 885 c 1
 248.5 885 l 1
 248.5 803 182.5 738 100.5 738 c 0
 18.5 738 -47.5 803 -47.5 885 c 1
 10.5 885 l 1
63 0 m 1
 63 666 l 1
 138 666 l 1
 138 0 l 1
 63 0 l 1
EndSplineSet
EndChar

StartChar: ibreve
Encoding: 301 301 236
Width: 198
GlyphClass: 2
Flags: W
HStem: 0 21G<63 135> 500 57<40.6316 157.368>
VStem: -49 58<589.438 647> 63 72<0 425> 189 58<589.438 647>
CounterMasks: 1 38
LayerCount: 2
Fore
SplineSet
135 0 m 1
 63 0 l 1
 63 435 l 1
 135 425 l 1
 135 0 l 1
9 647 m 1
 9 597 49 557 99 557 c 0
 149 557 189 597 189 647 c 1
 247 647 l 1
 247 565 181 500 99 500 c 0
 17 500 -49 565 -49 647 c 1
 9 647 l 1
EndSplineSet
EndChar

StartChar: Iogonek
Encoding: 302 302 237
Width: 201
GlyphClass: 2
Flags: W
HStem: 0 6.86719<80.5 120.5> 646 20G<63 138>
VStem: 33.5 56<-119 -24.3542> 63 75<0 666>
LayerCount: 2
Fore
SplineSet
80.5 6.8671875 m 1xe0
 120.5 6.8671875 l 1
 100.5 -19.1328125 89.5 -35.1328125 89.5 -69.1328125 c 0
 89.5 -104.1328125 117.5 -132.1328125 156.5 -154.1328125 c 1
 103.5 -199.1328125 l 1
 67.5 -180.1328125 33.5 -136.1328125 33.5 -96.1328125 c 0
 33.5 -34.1328125 80.5 6.8671875 80.5 6.8671875 c 1xe0
63 0 m 1xd0
 63 666 l 1
 138 666 l 1
 138 0 l 1
 63 0 l 1xd0
EndSplineSet
EndChar

StartChar: iogonek
Encoding: 303 303 238
Width: 198
GlyphClass: 2
Flags: W
HStem: 0 6.86719<79 119> 420 20G<63 135> 608 68<70 138> 630 70<60 130>
VStem: 32 56<-119 -24.3542> 63 72<0 430 630 676>
LayerCount: 2
Fore
SplineSet
79 6.8671875 m 1xc8
 119 6.8671875 l 1
 99 -19.1328125 88 -35.1328125 88 -69.1328125 c 0
 88 -104.1328125 116 -132.1328125 155 -154.1328125 c 1
 102 -199.1328125 l 1
 66 -180.1328125 32 -136.1328125 32 -96.1328125 c 0
 32 -34.1328125 79 6.8671875 79 6.8671875 c 1xc8
60 700 m 1xd0
 138 676 l 1
 138 608 l 1xe0
 60 630 l 1
 60 700 l 1xd0
135 0 m 1xc4
 63 0 l 1
 63 440 l 1
 135 430 l 1
 135 0 l 1xc4
EndSplineSet
EndChar

StartChar: Idotaccent
Encoding: 304 304 239
Width: 201
GlyphClass: 2
Flags: W
HStem: 0 21G<63 138> 589 77<59 142>
VStem: 63 75<0 518 589 666>
LayerCount: 2
Fore
SplineSet
59 666 m 1
 142 666 l 1
 142 589 l 1
 59 589 l 1
 59 666 l 1
63 518 m 1
 138 518 l 1
 138 0 l 1
 63 0 l 1
 63 518 l 1
EndSplineSet
EndChar

StartChar: dotlessi
Encoding: 305 305 240
Width: 198
GlyphClass: 1
Flags: W
HStem: 0 21G<63 135>
VStem: 63 72<0 425>
LayerCount: 2
Fore
SplineSet
135 0 m 1
 63 0 l 1
 63 435 l 1
 135 425 l 1
 135 0 l 1
EndSplineSet
EndChar

StartChar: IJ
Encoding: 306 306 241
Width: 387
GlyphClass: 2
Flags: W
HStem: -14 78<55.8214 186.009> 646 20G<55 133 249 327>
VStem: 55 78<210 666> 249 78<127.009 666>
LayerCount: 2
Fore
SplineSet
249 666 m 1
 327 666 l 1
 327 201 l 2
 327 82 231 -14 112 -14 c 0
 92 -14 73 -12 55 -7 c 1
 55 76 l 1
 72 68 91 64 112 64 c 0
 188 64 249 125 249 201 c 2
 249 666 l 1
55 210 m 1
 55 666 l 1
 133 666 l 1
 133 210 l 1
 55 210 l 1
EndSplineSet
EndChar

StartChar: ij
Encoding: 307 307 242
Width: 396
GlyphClass: 2
Flags: W
HStem: -220 21G<202 262.5> 0 21G<63 135> 420 20G<63 135 261 333> 608 68<70 138 268 336> 630 70<60 130 258 328>
VStem: 63 72<0 430 630 676> 261 72<-100.282 430 630 676>
LayerCount: 2
Fore
SplineSet
258 700 m 1xee
 336 676 l 1
 336 608 l 1xf6
 258 630 l 1
 258 700 l 1xee
180 -152 m 1
 240 -126 261 -71 261 -3 c 2
 261 440 l 1
 333 430 l 1
 333 -3 l 2
 333 -79 317 -174 208 -220 c 1
 196 -193 187 -170 180 -152 c 1
60 700 m 1xee
 138 676 l 1
 138 608 l 1xf6
 60 630 l 1
 60 700 l 1xee
135 0 m 1
 63 0 l 1
 63 440 l 1
 135 430 l 1
 135 0 l 1
EndSplineSet
EndChar

StartChar: Jcircumflex
Encoding: 308 308 243
Width: 387
GlyphClass: 2
Flags: W
HStem: -14 78<55.8214 186.009> 594 72<109 249>
VStem: 249 78<127.009 594>
DStem2: 105 784 151 738 0.707107 0.707107<0 101.116> 221 900 221 811 0.707107 -0.707107<62.9325 164.049>
LayerCount: 2
Fore
SplineSet
55 76 m 1
 72 68 91 64 112 64 c 0
 188 64 249 125 249 201 c 2
 249 594 l 1
 109 594 l 1
 109 666 l 1
 327 666 l 1
 327 201 l 2
 327 82 231 -14 112 -14 c 0
 92 -14 73 -12 55 -7 c 1
 55 76 l 1
105 784 m 1
 221 900 l 1
 337 784 l 1
 291 738 l 1
 221 811 l 1
 151 738 l 1
 105 784 l 1
EndSplineSet
EndChar

StartChar: jcircumflex
Encoding: 309 309 244
Width: 198
GlyphClass: 2
Flags: W
HStem: -220 21G<4 64.5> 420 20G<63 135>
VStem: 63 72<-100.282 430>
DStem2: -18 546 28 500 0.707107 0.707107<0 101.116> 98 662 98 573 0.707107 -0.707107<62.9325 164.049>
LayerCount: 2
Fore
SplineSet
-18 -152 m 1
 42 -126 63 -71 63 -3 c 2
 63 440 l 1
 135 430 l 1
 135 -3 l 2
 135 -79 119 -174 10 -220 c 1
 -2 -193 -11 -170 -18 -152 c 1
-18 546 m 1
 98 662 l 1
 214 546 l 1
 168 500 l 1
 98 573 l 1
 28 500 l 1
 -18 546 l 1
EndSplineSet
EndChar

StartChar: uni0136
Encoding: 310 310 245
Width: 516
GlyphClass: 2
Flags: W
HStem: 0 21G<63 139 412.512 461> 646 20G<63 139 394.215 455.125>
VStem: 63 76<0 277 365 666>
DStem2: 139 365 198 322 0.664801 0.74702<7.10139 410.826> 198 322 139 277 0.720275 -0.693688<0 399.569>
LayerCount: 2
Fore
SplineSet
272 -239 m 1
 222 -239 l 1
 267 -70 l 1
 337 -70 l 1
 272 -239 l 1
139 0 m 1
 63 0 l 1
 63 666 l 1
 139 666 l 1
 139 365 l 1
 412 672 l 1
 481 640 l 1
 198 322 l 1
 496 35 l 1
 433 -10 l 1
 139 277 l 1
 139 0 l 1
EndSplineSet
EndChar

StartChar: uni0137
Encoding: 311 311 246
Width: 433
GlyphClass: 2
Flags: W
HStem: 0 21G<63 135 336.143 378.259> 420 20G<309.262 415> 740 20G<63 135>
VStem: 63 72<0 186 234 740>
DStem2: 135 234 214 213 0.679543 0.733636<38.2775 282.281> 214 213 135 186 0.752577 -0.658505<0 255.97>
LayerCount: 2
Fore
SplineSet
235.5 -239 m 1
 185.5 -239 l 1
 230.5 -70 l 1
 300.5 -70 l 1
 235.5 -239 l 1
135 186 m 1
 135 0 l 1
 63 0 l 1
 63 760 l 1
 135 740 l 1
 135 234 l 1
 328 440 l 1
 415 430 l 1
 214 213 l 1
 411 44 l 1
 359 -10 l 1
 135 186 l 1
EndSplineSet
EndChar

StartChar: Lacute
Encoding: 313 313 247
Width: 387
GlyphClass: 2
Flags: W
HStem: 0 73<141 347> 646 20G<63 141>
VStem: 63 78<73 666>
DStem2: 155 784 201 738 0.689062 0.724703<0 166.705>
LayerCount: 2
Fore
SplineSet
155 784 m 1
 271 906 l 1
 317 860 l 1
 201 738 l 1
 155 784 l 1
63 0 m 1
 63 666 l 1
 141 666 l 1
 141 73 l 1
 347 73 l 1
 347 0 l 1
 63 0 l 1
EndSplineSet
EndChar

StartChar: lacute
Encoding: 314 314 248
Width: 198
GlyphClass: 2
Flags: W
HStem: 0 21G<63 135> 740 20G<63 128.455>
VStem: 63 72<0 738>
DStem2: 53 866 99 820 0.689062 0.724703<0 166.705>
LayerCount: 2
Fore
SplineSet
53 866 m 1
 169 988 l 1
 215 942 l 1
 99 820 l 1
 53 866 l 1
63 0 m 1
 63 760 l 1
 135 738 l 1
 135 0 l 1
 63 0 l 1
EndSplineSet
EndChar

StartChar: uni013B
Encoding: 315 315 249
Width: 387
GlyphClass: 2
Flags: W
HStem: 0 73<141 347> 646 20G<63 141>
VStem: 63 78<73 666>
LayerCount: 2
Fore
SplineSet
110 -162 m 1
 172 -50 l 1
 238 -61 l 1
 165 -173 l 1
 110 -162 l 1
63 0 m 1
 63 666 l 1
 141 666 l 1
 141 73 l 1
 347 73 l 1
 347 0 l 1
 63 0 l 1
EndSplineSet
EndChar

StartChar: uni013C
Encoding: 316 316 250
Width: 198
GlyphClass: 2
Flags: W
HStem: 0 21G<63 135> 740 20G<63 128.455>
VStem: 63 72<0 738>
LayerCount: 2
Fore
SplineSet
6 -162 m 1
 68 -50 l 1
 134 -61 l 1
 61 -173 l 1
 6 -162 l 1
63 0 m 1
 63 760 l 1
 135 738 l 1
 135 0 l 1
 63 0 l 1
EndSplineSet
EndChar

StartChar: Lcaron
Encoding: 317 317 251
Width: 387
GlyphClass: 2
Flags: W
HStem: 0 73<141 347> 646 20G<63 141 209.593 285>
VStem: 63 78<73 666>
LayerCount: 2
Fore
SplineSet
190 531 m 1
 213 666 l 1
 285 666 l 1
 239 531 l 1
 190 531 l 1
63 0 m 1
 63 666 l 1
 141 666 l 1
 141 73 l 1
 347 73 l 1
 347 0 l 1
 63 0 l 1
EndSplineSet
EndChar

StartChar: lcaron
Encoding: 318 318 252
Width: 244
GlyphClass: 2
Flags: W
HStem: 0 21G<63 135> 740 20G<63 128.455>
VStem: 63 72<0 738>
LayerCount: 2
Fore
SplineSet
63 0 m 1
 63 760 l 1
 135 738 l 1
 135 0 l 1
 63 0 l 1
184 605 m 1
 207 740 l 1
 279 740 l 1
 233 605 l 1
 184 605 l 1
EndSplineSet
EndChar

StartChar: Ldot
Encoding: 319 319 253
Width: 387
GlyphClass: 2
Flags: W
HStem: 0 73<141 347> 330 72<220 292> 340 72<222 294> 646 20G<63 141>
VStem: 63 78<73 666> 220 74<340 402>
LayerCount: 2
Fore
SplineSet
294 412 m 1xbc
 294 340 l 1xbc
 220 330 l 1
 220 402 l 1xdc
 294 412 l 1xbc
63 0 m 1
 63 666 l 1
 141 666 l 1
 141 73 l 1
 347 73 l 1
 347 0 l 1
 63 0 l 1
EndSplineSet
EndChar

StartChar: ldot
Encoding: 320 320 254
Width: 198
GlyphClass: 2
Flags: W
HStem: 0 21G<63 135> 400 72<170 242> 410 72<172 244> 740 20G<63 128.455>
VStem: 63 72<0 738> 170 74<410 472>
LayerCount: 2
Fore
SplineSet
244 482 m 1xbc
 244 410 l 1xbc
 170 400 l 1
 170 472 l 1xdc
 244 482 l 1xbc
63 0 m 1
 63 760 l 1
 135 738 l 1
 135 0 l 1
 63 0 l 1
EndSplineSet
EndChar

StartChar: Lslash
Encoding: 321 321 255
Width: 387
GlyphClass: 2
Flags: W
HStem: 0 73<141 347> 646 20G<63 141>
VStem: 63 78<73 264 397 666>
LayerCount: 2
Fore
SplineSet
63 264 m 1
 8 216 l 1
 8 301 l 1
 63 349 l 1
 63 666 l 1
 141 666 l 1
 141 397 l 1
 222 467 l 1
 222 382 l 1
 141 312 l 1
 141 73 l 1
 347 73 l 1
 347 0 l 1
 63 0 l 1
 63 264 l 1
EndSplineSet
EndChar

StartChar: lslash
Encoding: 322 322 256
Width: 198
GlyphClass: 2
Flags: W
HStem: 0 21G<63 135> 740 20G<63 128.455>
VStem: 63 72<0 286 409 738>
LayerCount: 2
Fore
SplineSet
63 286 m 1
 2 234 l 1
 2 309 l 1
 63 363 l 1
 63 760 l 1
 135 738 l 1
 135 409 l 1
 202 466 l 1
 202 388 l 1
 135 332 l 1
 135 0 l 1
 63 0 l 1
 63 286 l 1
EndSplineSet
EndChar

StartChar: Nacute
Encoding: 323 323 257
Width: 698
GlyphClass: 2
Flags: W
HStem: 0 21G<63 139> 646 20G<559 635>
VStem: 63 76<0 491> 559 76<165 666>
DStem2: 63 683 139 491 0.691602 -0.722278<191.239 717.175> 303 789 349 743 0.689062 0.724703<0 166.705>
LayerCount: 2
Fore
SplineSet
303 789 m 1
 419 911 l 1
 465 865 l 1
 349 743 l 1
 303 789 l 1
559 165 m 1
 559 666 l 1
 635 666 l 1
 635 -17 l 1
 139 491 l 1
 139 0 l 1
 63 0 l 1
 63 683 l 1
 559 165 l 1
EndSplineSet
EndChar

StartChar: nacute
Encoding: 324 324 258
Width: 463
GlyphClass: 2
Flags: W
HStem: 0 21G<63 135 341 413> 368 72<173.445 302.432> 648 20G<288.984 328>
VStem: 63 72<0 328.373 385 425> 341 72<0 324.396>
DStem2: 192 546 238 500 0.689062 0.724703<0 166.705>
LayerCount: 2
Fore
SplineSet
192 546 m 1
 308 668 l 1
 354 622 l 1
 238 500 l 1
 192 546 l 1
63 0 m 1
 63 425 l 1
 135 435 l 1
 135 385 l 1
 168 422 200 440 254 440 c 0
 346 440 413 374 413 253 c 2
 413 0 l 1
 341 0 l 1
 341 250 l 2
 341 318 305 368 238 368 c 0
 171 368 135 318 135 250 c 2
 135 0 l 1
 63 0 l 1
EndSplineSet
EndChar

StartChar: uni0145
Encoding: 325 325 259
Width: 698
GlyphClass: 2
Flags: W
HStem: 0 21G<63 139> 646 20G<559 635>
VStem: 63 76<0 491> 559 76<165 666>
DStem2: 63 683 139 491 0.691602 -0.722278<191.239 717.175>
LayerCount: 2
Fore
SplineSet
270 -132 m 1
 332 -20 l 1
 398 -31 l 1
 325 -143 l 1
 270 -132 l 1
559 165 m 1
 559 666 l 1
 635 666 l 1
 635 -17 l 1
 139 491 l 1
 139 0 l 1
 63 0 l 1
 63 683 l 1
 559 165 l 1
EndSplineSet
EndChar

StartChar: uni0146
Encoding: 326 326 260
Width: 463
GlyphClass: 2
Flags: W
HStem: 0 21G<63 135 341 413> 368 72<173.445 302.432>
VStem: 63 72<0 328.373 385 425> 341 72<0 324.396>
LayerCount: 2
Fore
SplineSet
63 0 m 1
 63 425 l 1
 135 435 l 1
 135 385 l 1
 168 422 200 440 254 440 c 0
 346 440 413 374 413 253 c 2
 413 0 l 1
 341 0 l 1
 341 250 l 2
 341 318 305 368 238 368 c 0
 171 368 135 318 135 250 c 2
 135 0 l 1
 63 0 l 1
160 -132 m 1
 222 -20 l 1
 288 -31 l 1
 215 -143 l 1
 160 -132 l 1
EndSplineSet
EndChar

StartChar: Ncaron
Encoding: 327 327 261
Width: 698
GlyphClass: 2
Flags: W
HStem: 0 21G<63 139> 646 20G<559 635>
VStem: 63 76<0 491> 559 76<165 666>
DStem2: 63 683 139 491 0.691602 -0.722278<191.239 717.175> 279 905 233 859 0.707107 -0.707107<0 101.116> 349 832 349 743 0.707107 0.707107<0 101.116>
LayerCount: 2
Fore
SplineSet
465 859 m 1
 349 743 l 1
 233 859 l 1
 279 905 l 1
 349 832 l 1
 419 905 l 1
 465 859 l 1
559 165 m 1
 559 666 l 1
 635 666 l 1
 635 -17 l 1
 139 491 l 1
 139 0 l 1
 63 0 l 1
 63 683 l 1
 559 165 l 1
EndSplineSet
EndChar

StartChar: ncaron
Encoding: 328 328 262
Width: 463
GlyphClass: 2
Flags: W
HStem: 0 21G<63 135 341 413> 368 72<173.445 302.432>
VStem: 63 72<0 328.373 385 425> 341 72<0 324.396>
DStem2: 168 662 122 616 0.707107 -0.707107<0 101.116> 238 589 238 500 0.707107 0.707107<0 101.116>
LayerCount: 2
Fore
SplineSet
354 616 m 1
 238 500 l 1
 122 616 l 1
 168 662 l 1
 238 589 l 1
 308 662 l 1
 354 616 l 1
63 0 m 1
 63 425 l 1
 135 435 l 1
 135 385 l 1
 168 422 200 440 254 440 c 0
 346 440 413 374 413 253 c 2
 413 0 l 1
 341 0 l 1
 341 250 l 2
 341 318 305 368 238 368 c 0
 171 368 135 318 135 250 c 2
 135 0 l 1
 63 0 l 1
EndSplineSet
EndChar

StartChar: Eng
Encoding: 330 330 263
Width: 698
GlyphClass: 2
Flags: W
HStem: -172 70<470 547.63> 0 21G<63 139> 646 20G<559 635>
VStem: 63 76<0 491> 559 76<-91.5435 59 165 666>
DStem2: 63 683 139 491 0.691602 -0.722278<191.239 717.175>
LayerCount: 2
Fore
SplineSet
561 59 m 1
 139 491 l 1
 139 0 l 1
 63 0 l 1
 63 683 l 1
 559 165 l 1
 559 666 l 1
 635 666 l 1
 635 -22 l 2
 635 -172 551 -172 470 -172 c 1
 470 -102 l 1
 525 -102 561 -102 561 -31 c 2
 561 59 l 1
EndSplineSet
EndChar

StartChar: eng
Encoding: 331 331 264
Width: 463
GlyphClass: 2
Flags: W
HStem: -131 70<249 329.72> 0 21G<63 135> 368 72<173.445 302.432>
VStem: 63 72<0 328.373 385 425> 341 72<-49.3876 324.396>
LayerCount: 2
Fore
SplineSet
341 250 m 2
 341 318 305 368 238 368 c 0
 171 368 135 318 135 250 c 2
 135 0 l 1
 63 0 l 1
 63 425 l 1
 135 435 l 1
 135 385 l 1
 168 422 200 440 254 440 c 0
 346 440 413 374 413 253 c 2
 413 20 l 2
 413 -131 330 -131 249 -131 c 1
 249 -61 l 1
 304 -61 341 -61 341 10 c 2
 341 250 l 2
EndSplineSet
EndChar

StartChar: Omacron
Encoding: 332 332 265
Width: 774
GlyphClass: 2
Flags: W
HStem: -14 75<281.395 492.605> 603 75<281.395 492.605> 738 68<273 501>
VStem: 39 78<228.578 435.422> 657 78<228.578 435.422>
LayerCount: 2
Fore
SplineSet
273 806 m 1
 501 806 l 1
 501 738 l 1
 273 738 l 1
 273 806 l 1
387 603 m 0
 235 603 117 479 117 332 c 0
 117 185 235 61 387 61 c 0
 539 61 657 185 657 332 c 0
 657 479 539 603 387 603 c 0
387 -14 m 0
 191 -14 39 142 39 332 c 0
 39 522 191 678 387 678 c 0
 583 678 735 522 735 332 c 0
 735 142 583 -14 387 -14 c 0
EndSplineSet
EndChar

StartChar: omacron
Encoding: 333 333 266
Width: 514
GlyphClass: 2
Flags: W
HStem: -10 71<181.181 332.819> 369 71<181.181 332.819> 500 68<143 371>
VStem: 39 73<134.61 295.39> 402 73<134.61 295.39>
LayerCount: 2
Fore
SplineSet
143 568 m 1
 371 568 l 1
 371 500 l 1
 143 500 l 1
 143 568 l 1
257 369 m 0
 175 369 112 302 112 215 c 0
 112 128 175 61 257 61 c 0
 339 61 402 128 402 215 c 0
 402 302 339 369 257 369 c 0
257 -10 m 0
 135 -10 39 84 39 215 c 0
 39 346 135 440 257 440 c 0
 379 440 475 346 475 215 c 0
 475 84 379 -10 257 -10 c 0
EndSplineSet
EndChar

StartChar: Obreve
Encoding: 334 334 267
Width: 774
GlyphClass: 2
Flags: W
HStem: -14 75<281.395 492.605> 603 75<281.395 492.605> 738 57<328.632 445.368>
VStem: 39 78<228.578 435.422> 239 58<827.438 885> 477 58<827.438 885> 657 78<228.578 435.422>
LayerCount: 2
Fore
SplineSet
297 885 m 1
 297 835 337 795 387 795 c 0
 437 795 477 835 477 885 c 1
 535 885 l 1
 535 803 469 738 387 738 c 0
 305 738 239 803 239 885 c 1
 297 885 l 1
387 603 m 0
 235 603 117 479 117 332 c 0
 117 185 235 61 387 61 c 0
 539 61 657 185 657 332 c 0
 657 479 539 603 387 603 c 0
387 -14 m 0
 191 -14 39 142 39 332 c 0
 39 522 191 678 387 678 c 0
 583 678 735 522 735 332 c 0
 735 142 583 -14 387 -14 c 0
EndSplineSet
EndChar

StartChar: obreve
Encoding: 335 335 268
Width: 514
GlyphClass: 2
Flags: W
HStem: -10 71<181.181 332.819> 369 71<181.181 332.819> 500 57<198.632 315.368>
VStem: 39 73<134.61 295.39> 109 58<589.438 647> 347 58<589.438 647> 402 73<134.61 295.39>
LayerCount: 2
Fore
SplineSet
167 647 m 1xec
 167 597 207 557 257 557 c 0
 307 557 347 597 347 647 c 1
 405 647 l 1
 405 565 339 500 257 500 c 0
 175 500 109 565 109 647 c 1
 167 647 l 1xec
257 369 m 0
 175 369 112 302 112 215 c 0
 112 128 175 61 257 61 c 0
 339 61 402 128 402 215 c 0xf2
 402 302 339 369 257 369 c 0
257 -10 m 0
 135 -10 39 84 39 215 c 0
 39 346 135 440 257 440 c 0
 379 440 475 346 475 215 c 0
 475 84 379 -10 257 -10 c 0
EndSplineSet
EndChar

StartChar: Ohungarumlaut
Encoding: 336 336 269
Width: 774
GlyphClass: 2
Flags: W
HStem: -14 75<281.395 492.605> 603 75<281.395 492.605>
VStem: 39 78<228.578 435.422> 657 78<228.578 435.422>
DStem2: 251 784 297 738 0.689062 0.724703<0 166.705> 431 784 477 738 0.689062 0.724703<0 166.705>
LayerCount: 2
Fore
SplineSet
431 784 m 1
 547 906 l 1
 593 860 l 1
 477 738 l 1
 431 784 l 1
251 784 m 1
 367 906 l 1
 413 860 l 1
 297 738 l 1
 251 784 l 1
387 603 m 0
 235 603 117 479 117 332 c 0
 117 185 235 61 387 61 c 0
 539 61 657 185 657 332 c 0
 657 479 539 603 387 603 c 0
387 -14 m 0
 191 -14 39 142 39 332 c 0
 39 522 191 678 387 678 c 0
 583 678 735 522 735 332 c 0
 735 142 583 -14 387 -14 c 0
EndSplineSet
EndChar

StartChar: ohungarumlaut
Encoding: 337 337 270
Width: 514
GlyphClass: 2
Flags: W
HStem: -10 71<181.181 332.819> 369 71<181.181 332.819> 648 20G<217.984 257 397.984 437>
VStem: 39 73<134.61 295.39> 402 73<134.61 295.39>
DStem2: 121 546 167 500 0.689062 0.724703<0 166.705> 301 546 347 500 0.689062 0.724703<0 166.705>
LayerCount: 2
Fore
SplineSet
301 546 m 1
 417 668 l 1
 463 622 l 1
 347 500 l 1
 301 546 l 1
121 546 m 1
 237 668 l 1
 283 622 l 1
 167 500 l 1
 121 546 l 1
257 369 m 0
 175 369 112 302 112 215 c 0
 112 128 175 61 257 61 c 0
 339 61 402 128 402 215 c 0
 402 302 339 369 257 369 c 0
257 -10 m 0
 135 -10 39 84 39 215 c 0
 39 346 135 440 257 440 c 0
 379 440 475 346 475 215 c 0
 475 84 379 -10 257 -10 c 0
EndSplineSet
EndChar

StartChar: OE
Encoding: 338 338 271
Width: 1047
GlyphClass: 2
Flags: W
HStem: -14 75<281.395 492.175> 0 74<734 1002> 278 72<734 982> 592 74<734 992> 603 75<281.395 492.175>
VStem: 39 78<228.578 435.422> 658 76<74 114 227.641 278 350 436.359 550 592>
LayerCount: 2
Fore
SplineSet
734 350 m 1x36
 982 350 l 1
 982 278 l 1
 734 278 l 1
 734 74 l 1
 1002 74 l 1
 1002 0 l 1
 658 0 l 1x76
 658 114 l 1
 595 36 498 -14 387 -14 c 0
 191 -14 39 142 39 332 c 0
 39 522 191 678 387 678 c 0xae
 498 678 595 628 658 550 c 1
 658 666 l 1
 992 666 l 1
 992 592 l 1
 734 592 l 1
 734 350 l 1x36
387 603 m 0xae
 235 603 117 479 117 332 c 0
 117 185 235 61 387 61 c 0
 539 61 657 185 657 332 c 0
 657 479 539 603 387 603 c 0xae
EndSplineSet
EndChar

StartChar: oe
Encoding: 339 339 272
Width: 859
GlyphClass: 2
Flags: W
HStem: -10 71<182.336 332.921 542.933 695.136> 369 71<182.336 332.921 543.72 696.855>
VStem: 39 73<131.71 298.29> 402 73<184.469 297.539>
DStem2: 478 184 504 120 0.892157 0.451725<0 287.105>
LayerCount: 2
Fore
SplineSet
257 369 m 0
 169 369 112 299 112 215 c 0
 112 131 169 61 257 61 c 0
 345 61 402 131 402 215 c 0
 402 299 345 369 257 369 c 0
735 312 m 1
 709 347 670 369 620 369 c 0
 532 369 475 299 475 215 c 0
 475 204 476 194 478 184 c 1
 735 312 l 1
808 97 m 1
 771 31 705 -10 620 -10 c 0
 539 -10 476 27 438 86 c 1
 400 27 337 -10 257 -10 c 0
 127 -10 39 87 39 215 c 0
 39 343 127 440 257 440 c 0
 337 440 400 403 438 344 c 1
 476 403 539 440 620 440 c 0
 708 440 796 391 820 280 c 1
 504 120 l 1
 529 85 567 61 620 61 c 0
 677 61 720 91 745 136 c 1
 808 97 l 1
EndSplineSet
EndChar

StartChar: Racute
Encoding: 340 340 273
Width: 477
GlyphClass: 2
Flags: W
HStem: 0 11G<63 139 377.222 430.122> 278 72<226 303.845> 594 72<139 303.845>
VStem: 63 76<0 278 350 594> 357 76<403.447 540.553>
DStem2: 214.5 784 260.5 738 0.689062 0.724703<0 166.705>
LayerCount: 2
Fore
SplineSet
214.5 784 m 1
 330.5 906 l 1
 376.5 860 l 1
 260.5 738 l 1
 214.5 784 l 1
237 350 m 2
 304 350 357 405 357 472 c 0
 357 539 304 594 237 594 c 2
 139 594 l 1
 139 350 l 1
 237 350 l 2
226 278 m 1
 467 31 l 1
 395 -10 l 1
 139 278 l 1
 139 0 l 1
 63 0 l 1
 63 666 l 1
 242 666 l 2
 349 666 433 579 433 472 c 0
 433 365 349 278 242 278 c 2
 226 278 l 1
EndSplineSet
EndChar

StartChar: racute
Encoding: 341 341 274
Width: 301
GlyphClass: 2
Flags: W
HStem: 0 21G<63 135> 368 72<164.642 270.162> 648 20G<244.064 283.08>
VStem: 63 72<0 346.278 385 425>
DStem2: 147.08 546 193.08 500 0.689062 0.724703<0 166.705>
LayerCount: 2
Fore
SplineSet
147.080078125 546 m 1
 263.080078125 668 l 1
 309.080078125 622 l 1
 193.080078125 500 l 1
 147.080078125 546 l 1
264 352 m 1
 252 362 233 368 213 368 c 0
 169 368 135 343 135 280 c 2
 135 0 l 1
 63 0 l 1
 63 425 l 1
 135 435 l 1
 135 385 l 1
 158 422 190 440 234 440 c 0
 254 440 274 432 289 422 c 1
 264 352 l 1
EndSplineSet
EndChar

StartChar: uni0156
Encoding: 342 342 275
Width: 477
GlyphClass: 2
Flags: W
HStem: 0 11G<63 139 377.222 430.122> 278 72<226 303.845> 594 72<139 303.845>
VStem: 63 76<0 278 350 594> 357 76<403.447 540.553>
LayerCount: 2
Fore
SplineSet
253 -239 m 1
 203 -239 l 1
 248 -70 l 1
 318 -70 l 1
 253 -239 l 1
237 350 m 2
 304 350 357 405 357 472 c 0
 357 539 304 594 237 594 c 2
 139 594 l 1
 139 350 l 1
 237 350 l 2
226 278 m 1
 467 31 l 1
 395 -10 l 1
 139 278 l 1
 139 0 l 1
 63 0 l 1
 63 666 l 1
 242 666 l 2
 349 666 433 579 433 472 c 0
 433 365 349 278 242 278 c 2
 226 278 l 1
EndSplineSet
EndChar

StartChar: uni0157
Encoding: 343 343 276
Width: 301
GlyphClass: 2
Flags: W
HStem: 0 21G<63 135> 368 72<164.642 270.162>
VStem: 63 72<0 346.278 385 425>
LayerCount: 2
Fore
SplineSet
264 352 m 1
 252 362 233 368 213 368 c 0
 169 368 135 343 135 280 c 2
 135 0 l 1
 63 0 l 1
 63 425 l 1
 135 435 l 1
 135 385 l 1
 158 422 190 440 234 440 c 0
 254 440 274 432 289 422 c 1
 264 352 l 1
1 -152 m 1
 63 -40 l 1
 129 -51 l 1
 56 -163 l 1
 1 -152 l 1
EndSplineSet
EndChar

StartChar: Rcaron
Encoding: 344 344 277
Width: 477
GlyphClass: 2
Flags: W
HStem: 0 11G<63 139 377.222 430.122> 278 72<226 303.845> 594 72<139 303.845>
VStem: 63 76<0 278 350 594> 357 76<403.447 540.553>
DStem2: 195 900 149 854 0.707107 -0.707107<0 101.116> 265 827 265 738 0.707107 0.707107<0 101.116>
LayerCount: 2
Fore
SplineSet
381 854 m 1
 265 738 l 1
 149 854 l 1
 195 900 l 1
 265 827 l 1
 335 900 l 1
 381 854 l 1
237 350 m 2
 304 350 357 405 357 472 c 0
 357 539 304 594 237 594 c 2
 139 594 l 1
 139 350 l 1
 237 350 l 2
226 278 m 1
 467 31 l 1
 395 -10 l 1
 139 278 l 1
 139 0 l 1
 63 0 l 1
 63 666 l 1
 242 666 l 2
 349 666 433 579 433 472 c 0
 433 365 349 278 242 278 c 2
 226 278 l 1
EndSplineSet
EndChar

StartChar: rcaron
Encoding: 345 345 278
Width: 301
GlyphClass: 2
Flags: W
HStem: 0 21G<63 135> 368 72<164.642 270.162>
VStem: 63 72<0 346.278 385 425>
DStem2: 123.08 662 77.0801 616 0.707107 -0.707107<0 101.116> 193.08 589 193.08 500 0.707107 0.707107<0 101.116>
LayerCount: 2
Fore
SplineSet
309.080078125 616 m 1
 193.080078125 500 l 1
 77.080078125 616 l 1
 123.080078125 662 l 1
 193.080078125 589 l 1
 263.080078125 662 l 1
 309.080078125 616 l 1
264 352 m 1
 252 362 233 368 213 368 c 0
 169 368 135 343 135 280 c 2
 135 0 l 1
 63 0 l 1
 63 425 l 1
 135 435 l 1
 135 385 l 1
 158 422 190 440 234 440 c 0
 254 440 274 432 289 422 c 1
 264 352 l 1
EndSplineSet
EndChar

StartChar: Sacute
Encoding: 346 346 279
Width: 477
GlyphClass: 2
Flags: W
HStem: -15 75<169.679 306.574> 601 77<173.327 322.897>
VStem: 67 78<464.565 572.826> 359 78<112.783 248.88>
DStem2: 201 784 247 738 0.689062 0.724703<0 166.705>
LayerCount: 2
Fore
SplineSet
201 784 m 1
 317 906 l 1
 363 860 l 1
 247 738 l 1
 201 784 l 1
237 60 m 0
 307 60 359 113 359 187 c 0
 359 340 67 327 67 511 c 0
 67 622 149 678 247 678 c 0
 330 678 388 631 402 613 c 1
 368 541 l 1
 351 562 310 601 247 601 c 0
 186 601 145 572 145 516 c 0
 145 388 437 402 437 187 c 0
 437 66 350 -15 237 -15 c 0
 131 -15 70 67 44 120 c 1
 108 162 l 1
 135 105 175 60 237 60 c 0
EndSplineSet
EndChar

StartChar: sacute
Encoding: 347 347 280
Width: 370
GlyphClass: 2
Flags: W
HStem: -10 68<125.054 235.047> 372 68<141.953 231.734> 648 20G<233.484 272.5>
VStem: 65 68<294.977 361.534> 261 69<84.4693 182.867>
DStem2: 136.5 546 182.5 500 0.689062 0.724703<0 166.705>
LayerCount: 2
Fore
SplineSet
136.5 546 m 1
 252.5 668 l 1
 298.5 622 l 1
 182.5 500 l 1
 136.5 546 l 1
184 372 m 0
 163 372 133 355 133 324 c 0
 133 300 164 288 224 264 c 0
 248.669921875 254.131835938 330 226 330 135 c 0
 330 56 268 -10 182 -10 c 0
 83 -10 44 78 35 97 c 1
 94 136 l 1
 101 119 115 58 181 58 c 0
 244 58 261 115 261 141 c 0
 261 185 214 198 169 214 c 0
 131 228 65 250 65 323 c 0
 65 381 108 440 184 440 c 0
 240 440 278 410 295 382 c 1
 241 337 l 1
 232 354 217 372 184 372 c 0
EndSplineSet
EndChar

StartChar: Scircumflex
Encoding: 348 348 281
Width: 477
GlyphClass: 2
Flags: W
HStem: -15 75<169.679 306.574> 601 77<173.327 322.897>
VStem: 67 78<464.565 572.826> 359 78<112.783 248.88>
DStem2: 131 784 177 738 0.707107 0.707107<0 101.116> 247 900 247 811 0.707107 -0.707107<62.9325 164.049>
LayerCount: 2
Fore
SplineSet
131 784 m 1
 247 900 l 1
 363 784 l 1
 317 738 l 1
 247 811 l 1
 177 738 l 1
 131 784 l 1
237 60 m 0
 307 60 359 113 359 187 c 0
 359 340 67 327 67 511 c 0
 67 622 149 678 247 678 c 0
 330 678 388 631 402 613 c 1
 368 541 l 1
 351 562 310 601 247 601 c 0
 186 601 145 572 145 516 c 0
 145 388 437 402 437 187 c 0
 437 66 350 -15 237 -15 c 0
 131 -15 70 67 44 120 c 1
 108 162 l 1
 135 105 175 60 237 60 c 0
EndSplineSet
EndChar

StartChar: scircumflex
Encoding: 349 349 282
Width: 370
GlyphClass: 2
Flags: W
HStem: -10 68<125.054 235.047> 372 68<141.953 231.734>
VStem: 65 68<294.977 361.534> 261 69<84.4693 182.867>
DStem2: 66.5 546 112.5 500 0.707107 0.707107<0 101.116> 182.5 662 182.5 573 0.707107 -0.707107<62.9325 164.049>
LayerCount: 2
Fore
SplineSet
66.5 546 m 1
 182.5 662 l 1
 298.5 546 l 1
 252.5 500 l 1
 182.5 573 l 1
 112.5 500 l 1
 66.5 546 l 1
184 372 m 0
 163 372 133 355 133 324 c 0
 133 300 164 288 224 264 c 0
 248.669921875 254.131835938 330 226 330 135 c 0
 330 56 268 -10 182 -10 c 0
 83 -10 44 78 35 97 c 1
 94 136 l 1
 101 119 115 58 181 58 c 0
 244 58 261 115 261 141 c 0
 261 185 214 198 169 214 c 0
 131 228 65 250 65 323 c 0
 65 381 108 440 184 440 c 0
 240 440 278 410 295 382 c 1
 241 337 l 1
 232 354 217 372 184 372 c 0
EndSplineSet
EndChar

StartChar: Scedilla
Encoding: 350 350 283
Width: 477
GlyphClass: 2
Flags: W
HStem: -15 75<169.679 306.574> 601 77<173.327 322.897>
VStem: 67 78<464.565 572.826> 359 78<112.783 248.88>
LayerCount: 2
Fore
SplineSet
237 60 m 0
 307 60 359 113 359 187 c 0
 359 340 67 327 67 511 c 0
 67 622 149 678 247 678 c 0
 330 678 388 631 402 613 c 1
 368 541 l 1
 351 562 310 601 247 601 c 0
 186 601 145 572 145 516 c 0
 145 388 437 402 437 187 c 0
 437 66 350 -15 237 -15 c 0
 131 -15 70 67 44 120 c 1
 108 162 l 1
 135 105 175 60 237 60 c 0
135 -162.900390625 m 1
 197 -50.900390625 l 1
 263 -61.900390625 l 1
 190 -173.900390625 l 1
 135 -162.900390625 l 1
EndSplineSet
EndChar

StartChar: scedilla
Encoding: 351 351 284
Width: 370
GlyphClass: 2
Flags: W
HStem: -10 68<125.054 235.047> 372 68<141.953 231.734>
VStem: 65 68<294.977 361.534> 261 69<84.4693 182.867>
LayerCount: 2
Fore
SplineSet
184 372 m 0
 163 372 133 355 133 324 c 0
 133 300 164 288 224 264 c 0
 248.669921875 254.131835938 330 226 330 135 c 0
 330 56 268 -10 182 -10 c 0
 83 -10 44 78 35 97 c 1
 94 136 l 1
 101 119 115 58 181 58 c 0
 244 58 261 115 261 141 c 0
 261 185 214 198 169 214 c 0
 131 228 65 250 65 323 c 0
 65 381 108 440 184 440 c 0
 240 440 278 410 295 382 c 1
 241 337 l 1
 232 354 217 372 184 372 c 0
90.5 -157.900390625 m 1
 152.5 -45.900390625 l 1
 218.5 -56.900390625 l 1
 145.5 -168.900390625 l 1
 90.5 -157.900390625 l 1
EndSplineSet
EndChar

StartChar: Scaron
Encoding: 352 352 285
Width: 477
GlyphClass: 2
Flags: W
HStem: -15 75<169.679 306.574> 601 77<173.327 322.897>
VStem: 67 78<464.565 572.826> 359 78<112.783 248.88>
DStem2: 177 900 131 854 0.707107 -0.707107<0 101.116> 247 827 247 738 0.707107 0.707107<0 101.116>
LayerCount: 2
Fore
SplineSet
363 854 m 1
 247 738 l 1
 131 854 l 1
 177 900 l 1
 247 827 l 1
 317 900 l 1
 363 854 l 1
237 60 m 0
 307 60 359 113 359 187 c 0
 359 340 67 327 67 511 c 0
 67 622 149 678 247 678 c 0
 330 678 388 631 402 613 c 1
 368 541 l 1
 351 562 310 601 247 601 c 0
 186 601 145 572 145 516 c 0
 145 388 437 402 437 187 c 0
 437 66 350 -15 237 -15 c 0
 131 -15 70 67 44 120 c 1
 108 162 l 1
 135 105 175 60 237 60 c 0
EndSplineSet
EndChar

StartChar: scaron
Encoding: 353 353 286
Width: 370
GlyphClass: 2
Flags: W
HStem: -10 68<125.054 235.047> 372 68<141.953 231.734>
VStem: 65 68<294.977 361.534> 261 69<84.4693 182.867>
DStem2: 112.5 662 66.5 616 0.707107 -0.707107<0 101.116> 182.5 589 182.5 500 0.707107 0.707107<0 101.116>
LayerCount: 2
Fore
SplineSet
298.5 616 m 1
 182.5 500 l 1
 66.5 616 l 1
 112.5 662 l 1
 182.5 589 l 1
 252.5 662 l 1
 298.5 616 l 1
184 372 m 0
 163 372 133 355 133 324 c 0
 133 300 164 288 224 264 c 0
 248.669921875 254.131835938 330 226 330 135 c 0
 330 56 268 -10 182 -10 c 0
 83 -10 44 78 35 97 c 1
 94 136 l 1
 101 119 115 58 181 58 c 0
 244 58 261 115 261 141 c 0
 261 185 214 198 169 214 c 0
 131 228 65 250 65 323 c 0
 65 381 108 440 184 440 c 0
 240 440 278 410 295 382 c 1
 241 337 l 1
 232 354 217 372 184 372 c 0
EndSplineSet
EndChar

StartChar: uni0162
Encoding: 354 354 287
Width: 452
GlyphClass: 2
Flags: W
HStem: 0 21G<187 263> 594 72<18 187 263 434>
VStem: 187 76<0 594>
LayerCount: 2
Fore
SplineSet
434 594 m 1
 263 594 l 1
 263 0 l 1
 187 0 l 1
 187 594 l 1
 18 594 l 1
 18 666 l 1
 434 666 l 1
 434 594 l 1
130 -151 m 1
 192 -39 l 1
 258 -50 l 1
 185 -162 l 1
 130 -151 l 1
EndSplineSet
EndChar

StartChar: uni0163
Encoding: 355 355 288
Width: 286
GlyphClass: 2
Flags: W
HStem: -10 73.9932<166.267 224> 369 66<35 85 157 241>
VStem: 85 72<71.4723 369 435 610>
LayerCount: 2
Fore
SplineSet
85 369 m 1
 35 369 l 1
 35 435 l 1
 85 435 l 1
 85 632 l 1
 157 610 l 1
 157 435 l 1
 241 435 l 1
 241 369 l 1
 157 369 l 1
 157 115 l 2
 157 72.1083984375 186.3671875 63.9931640625 213.635742188 63.9931640625 c 0
 230.233398438 63.9931640625 244 67 254 68 c 1
 224 -10 l 1
 146 -8 85 4 85 105 c 2
 85 369 l 1
40 -151 m 1
 102 -39 l 1
 168 -50 l 1
 95 -162 l 1
 40 -151 l 1
EndSplineSet
EndChar

StartChar: Tcaron
Encoding: 356 356 289
Width: 452
GlyphClass: 2
Flags: W
HStem: 0 21G<187 263> 594 72<18 187 263 434>
VStem: 187 76<0 594>
DStem2: 156 900 110 854 0.707107 -0.707107<0 101.116> 226 827 226 738 0.707107 0.707107<0 101.116>
LayerCount: 2
Fore
SplineSet
342 854 m 1
 226 738 l 1
 110 854 l 1
 156 900 l 1
 226 827 l 1
 296 900 l 1
 342 854 l 1
434 594 m 1
 263 594 l 1
 263 0 l 1
 187 0 l 1
 187 594 l 1
 18 594 l 1
 18 666 l 1
 434 666 l 1
 434 594 l 1
EndSplineSet
EndChar

StartChar: tcaron
Encoding: 357 357 290
Width: 286
GlyphClass: 2
Flags: W
HStem: -10 73.9932<166.267 224> 369 66<35 85 157 241>
VStem: 85 72<71.4723 369 435 610>
LayerCount: 2
Fore
SplineSet
214 485 m 1
 237 620 l 1
 309 620 l 1
 263 485 l 1
 214 485 l 1
85 369 m 1
 35 369 l 1
 35 435 l 1
 85 435 l 1
 85 632 l 1
 157 610 l 1
 157 435 l 1
 241 435 l 1
 241 369 l 1
 157 369 l 1
 157 115 l 2
 157 72.1083984375 186.3671875 63.9931640625 213.635742188 63.9931640625 c 0
 230.233398438 63.9931640625 244 67 254 68 c 1
 224 -10 l 1
 146 -8 85 4 85 105 c 2
 85 369 l 1
EndSplineSet
EndChar

StartChar: Tbar
Encoding: 358 358 291
Width: 452
GlyphClass: 2
Flags: W
HStem: 0 21G<187 263> 351 65<87 187 263 363> 594 72<18 187 263 434>
VStem: 187 76<0 351 416 594>
LayerCount: 2
Fore
SplineSet
434 594 m 1
 263 594 l 1
 263 416 l 1
 363 416 l 1
 363 351 l 1
 263 351 l 1
 263 0 l 1
 187 0 l 1
 187 351 l 1
 87 351 l 1
 87 416 l 1
 187 416 l 1
 187 594 l 1
 18 594 l 1
 18 666 l 1
 434 666 l 1
 434 594 l 1
EndSplineSet
EndChar

StartChar: tbar
Encoding: 359 359 292
Width: 286
GlyphClass: 2
Flags: W
HStem: -10 73.9932<166.267 224> 239 66<35 85 157 241> 369 66<35 85 157 241>
VStem: 35 206<239 305 369 435> 85 72<71.4358 239 305 369 435 610>
LayerCount: 2
Fore
SplineSet
85 305 m 1xe8
 85 369 l 1xe8
 35 369 l 1
 35 435 l 1xf0
 85 435 l 1
 85 632 l 1
 157 610 l 1
 157 435 l 1xe8
 241 435 l 1
 241 369 l 1xf0
 157 369 l 1
 157 305 l 1xe8
 241 305 l 1
 241 239 l 1xf0
 157 239 l 1
 157 115 l 2
 157 72 186.3671875 63.9931640625 213.635742188 63.9931640625 c 0
 230.233398438 63.9931640625 244 67 254 68 c 1
 224 -10 l 1
 146 -8 85 4 85 105 c 2
 85 239 l 1xe8
 35 239 l 1
 35 305 l 1xf0
 85 305 l 1xe8
EndSplineSet
EndChar

StartChar: Utilde
Encoding: 360 360 293
Width: 576
GlyphClass: 2
Flags: W
HStem: -14 76<211.909 364.091> 646 20G<55 133 443 521> 740 72<279.531 374.224> 775 73<207.419 301.797>
VStem: 55 78<144.2 666> 443 78<144.2 666>
DStem2: 250 844 244 772 0.955286 -0.295684<1.434 109.497>
LayerCount: 2
Fore
SplineSet
230 775 m 0xdc
 218 775 213 772 210 767 c 0
 206 761 203 748 201 738 c 1
 135 763 l 1
 137 772 l 2
 150 820 179 848 222 848 c 0xdc
 232 848 240 847 250 844 c 2
 329 817 l 2
 341 813 349 812 355 812 c 0
 368 812 373 821 375 838 c 2
 376 850 l 1
 441 832 l 1
 441 824 l 2
 441 777 410 740 366 740 c 0xec
 355 740 343 741 328 746 c 2
 244 772 l 2
 240 773 233 775 230 775 c 0xdc
133 229 m 2
 133 133 202 62 288 62 c 0
 374 62 443 133 443 229 c 2
 443 666 l 1
 521 666 l 1
 521 229 l 2
 521 90 417 -14 288 -14 c 0
 159 -14 55 90 55 229 c 2
 55 666 l 1
 133 666 l 1
 133 229 l 2
EndSplineSet
EndChar

StartChar: utilde
Encoding: 361 361 294
Width: 473
GlyphClass: 2
Flags: W
HStem: -10 72<163.3 298.827> 420 20G<50 122> 502 72<208.531 303.224> 537 73<136.419 230.797>
VStem: 50 72<105.204 430> 338 72<2 45 100.681 435>
DStem2: 179 606 173 534 0.955286 -0.295684<1.434 109.497>
LayerCount: 2
Fore
SplineSet
159 537 m 0xdc
 147 537 142 534 139 529 c 0
 135 523 132 510 130 500 c 1
 64 525 l 1
 66 534 l 2
 79 582 108 610 151 610 c 0xdc
 161 610 169 609 179 606 c 2
 258 579 l 2
 270 575 278 574 284 574 c 0
 297 574 302 583 304 600 c 2
 305 612 l 1
 370 594 l 1
 370 586 l 2
 370 539 339 502 295 502 c 0xec
 284 502 272 503 257 508 c 2
 173 534 l 2
 169 535 162 537 159 537 c 0xdc
338 45 m 1
 305 6 263 -10 214 -10 c 0
 120 -10 50 55 50 177 c 2
 50 440 l 1
 122 430 l 1
 122 180 l 2
 122 109 163 62 232 62 c 0
 298 62 338 105 338 179 c 2
 338 435 l 1
 410 435 l 1
 410 2 l 1
 338 -8 l 1
 338 45 l 1
EndSplineSet
EndChar

StartChar: Umacron
Encoding: 362 362 295
Width: 576
GlyphClass: 2
Flags: W
HStem: -14 76<211.909 364.091> 646 20G<55 133 443 521> 738 68<174 402>
VStem: 55 78<144.2 666> 443 78<144.2 666>
LayerCount: 2
Fore
SplineSet
174 806 m 1
 402 806 l 1
 402 738 l 1
 174 738 l 1
 174 806 l 1
133 229 m 2
 133 133 202 62 288 62 c 0
 374 62 443 133 443 229 c 2
 443 666 l 1
 521 666 l 1
 521 229 l 2
 521 90 417 -14 288 -14 c 0
 159 -14 55 90 55 229 c 2
 55 666 l 1
 133 666 l 1
 133 229 l 2
EndSplineSet
EndChar

StartChar: umacron
Encoding: 363 363 296
Width: 473
GlyphClass: 2
Flags: W
HStem: -10 72<163.3 298.827> 420 20G<50 122> 500 68<116 344>
VStem: 50 72<105.204 430> 338 72<2 45 100.681 435>
LayerCount: 2
Fore
SplineSet
116 568 m 1
 344 568 l 1
 344 500 l 1
 116 500 l 1
 116 568 l 1
338 45 m 1
 305 6 263 -10 214 -10 c 0
 120 -10 50 55 50 177 c 2
 50 440 l 1
 122 430 l 1
 122 180 l 2
 122 109 163 62 232 62 c 0
 298 62 338 105 338 179 c 2
 338 435 l 1
 410 435 l 1
 410 2 l 1
 338 -8 l 1
 338 45 l 1
EndSplineSet
EndChar

StartChar: Ubreve
Encoding: 364 364 297
Width: 576
GlyphClass: 2
Flags: W
HStem: -14 76<211.909 364.091> 646 20G<55 133 443 521> 738 57<229.632 346.368>
VStem: 55 78<144.2 666> 140 58<827.438 885> 378 58<827.438 885> 443 78<144.2 666>
LayerCount: 2
Fore
SplineSet
198 885 m 1
 198 835 238 795 288 795 c 0
 338 795 378 835 378 885 c 1
 436 885 l 1
 436 803 370 738 288 738 c 0
 206 738 140 803 140 885 c 1
 198 885 l 1
133 229 m 2
 133 133 202 62 288 62 c 0
 374 62 443 133 443 229 c 2
 443 666 l 1
 521 666 l 1
 521 229 l 2
 521 90 417 -14 288 -14 c 0
 159 -14 55 90 55 229 c 2
 55 666 l 1
 133 666 l 1
 133 229 l 2
EndSplineSet
EndChar

StartChar: ubreve
Encoding: 365 365 298
Width: 473
GlyphClass: 2
Flags: W
HStem: -10 72<163.3 298.827> 420 20G<50 122> 500 57<171.632 288.368>
VStem: 50 72<105.204 430> 82 58<589.438 647> 320 58<589.438 647> 338 72<2 45 100.681 435>
LayerCount: 2
Fore
SplineSet
140 647 m 1xec
 140 597 180 557 230 557 c 0
 280 557 320 597 320 647 c 1
 378 647 l 1
 378 565 312 500 230 500 c 0
 148 500 82 565 82 647 c 1
 140 647 l 1xec
338 45 m 1xf2
 305 6 263 -10 214 -10 c 0
 120 -10 50 55 50 177 c 2
 50 440 l 1
 122 430 l 1
 122 180 l 2
 122 109 163 62 232 62 c 0
 298 62 338 105 338 179 c 2
 338 435 l 1
 410 435 l 1
 410 2 l 1
 338 -8 l 1
 338 45 l 1xf2
EndSplineSet
EndChar

StartChar: Uring
Encoding: 366 366 299
Width: 576
GlyphClass: 2
Flags: W
HStem: -14 76<211.909 364.091> 646 20G<55 133 443 521> 738 47<244.723 330.693> 893 44<246.186 330.299>
VStem: 55 78<144.2 666> 189.5 45<795.915 881.512> 341.5 45<795.915 881.512> 443 78<144.2 666>
LayerCount: 2
Fore
SplineSet
234.5 838 m 0
 234.5 808 257.5 785 287.5 785 c 0
 317.5 785 341.5 808 341.5 838 c 0
 341.5 868 317.5 893 287.5 893 c 0
 257.5 893 234.5 868 234.5 838 c 0
287.5 738 m 0
 232.5 738 189.5 782 189.5 838 c 0
 189.5 893 232.5 937 287.5 937 c 0
 342.5 937 386.5 893 386.5 838 c 0
 386.5 782 342.5 738 287.5 738 c 0
133 229 m 2
 133 133 202 62 288 62 c 0
 374 62 443 133 443 229 c 2
 443 666 l 1
 521 666 l 1
 521 229 l 2
 521 90 417 -14 288 -14 c 0
 159 -14 55 90 55 229 c 2
 55 666 l 1
 133 666 l 1
 133 229 l 2
EndSplineSet
EndChar

StartChar: uring
Encoding: 367 367 300
Width: 473
GlyphClass: 2
Flags: W
HStem: -10 72<163.3 298.827> 420 20G<50 122> 500 47<186.723 272.693> 655 44<188.186 272.299>
VStem: 50 72<105.204 430> 131.5 45<557.915 643.512> 283.5 45<557.915 643.512> 338 72<2 45 100.681 435>
LayerCount: 2
Fore
SplineSet
176.5 600 m 0
 176.5 570 199.5 547 229.5 547 c 0
 259.5 547 283.5 570 283.5 600 c 0
 283.5 630 259.5 655 229.5 655 c 0
 199.5 655 176.5 630 176.5 600 c 0
229.5 500 m 0
 174.5 500 131.5 544 131.5 600 c 0
 131.5 655 174.5 699 229.5 699 c 0
 284.5 699 328.5 655 328.5 600 c 0
 328.5 544 284.5 500 229.5 500 c 0
338 45 m 1
 305 6 263 -10 214 -10 c 0
 120 -10 50 55 50 177 c 2
 50 440 l 1
 122 430 l 1
 122 180 l 2
 122 109 163 62 232 62 c 0
 298 62 338 105 338 179 c 2
 338 435 l 1
 410 435 l 1
 410 2 l 1
 338 -8 l 1
 338 45 l 1
EndSplineSet
EndChar

StartChar: Uhungarumlaut
Encoding: 368 368 301
Width: 576
GlyphClass: 2
Flags: W
HStem: -14 76<211.909 364.091> 646 20G<55 133 443 521>
VStem: 55 78<144.2 666> 443 78<144.2 666>
DStem2: 152 784 198 738 0.689062 0.724703<0 166.705> 332 784 378 738 0.689062 0.724703<0 166.705>
LayerCount: 2
Fore
SplineSet
332 784 m 1
 448 906 l 1
 494 860 l 1
 378 738 l 1
 332 784 l 1
152 784 m 1
 268 906 l 1
 314 860 l 1
 198 738 l 1
 152 784 l 1
133 229 m 2
 133 133 202 62 288 62 c 0
 374 62 443 133 443 229 c 2
 443 666 l 1
 521 666 l 1
 521 229 l 2
 521 90 417 -14 288 -14 c 0
 159 -14 55 90 55 229 c 2
 55 666 l 1
 133 666 l 1
 133 229 l 2
EndSplineSet
EndChar

StartChar: uhungarumlaut
Encoding: 369 369 302
Width: 473
GlyphClass: 2
Flags: W
HStem: -10 72<163.3 298.827> 420 20G<50 122> 648 20G<190.984 230 370.984 410>
VStem: 50 72<105.204 430> 338 72<2 45 100.681 435>
DStem2: 94 546 140 500 0.689062 0.724703<0 166.705> 274 546 320 500 0.689062 0.724703<0 166.705>
LayerCount: 2
Fore
SplineSet
274 546 m 1
 390 668 l 1
 436 622 l 1
 320 500 l 1
 274 546 l 1
94 546 m 1
 210 668 l 1
 256 622 l 1
 140 500 l 1
 94 546 l 1
338 45 m 1
 305 6 263 -10 214 -10 c 0
 120 -10 50 55 50 177 c 2
 50 440 l 1
 122 430 l 1
 122 180 l 2
 122 109 163 62 232 62 c 0
 298 62 338 105 338 179 c 2
 338 435 l 1
 410 435 l 1
 410 2 l 1
 338 -8 l 1
 338 45 l 1
EndSplineSet
EndChar

StartChar: Uogonek
Encoding: 370 370 303
Width: 576
GlyphClass: 2
Flags: W
HStem: -14 76<211.909 365.841> 646 20G<55 133 443 521>
VStem: 55 78<144.2 666> 362 56<-73.8676 1.43536> 443 78<144.2 666>
LayerCount: 2
Fore
SplineSet
133 229 m 2
 133 133 202 62 288 62 c 0
 374 62 443 133 443 229 c 2
 443 666 l 1
 521 666 l 1
 521 229 l 2
 521 157 493 94 448 50 c 1
 429 25 418 9 418 -24 c 0
 418 -59 446 -87 485 -109 c 1
 432 -154 l 1
 396 -135 362 -91 362 -51 c 0
 362 -31 367 -13 374 2 c 1
 347 -9 318 -14 288 -14 c 0
 159 -14 55 90 55 229 c 2
 55 666 l 1
 133 666 l 1
 133 229 l 2
EndSplineSet
EndChar

StartChar: uogonek
Encoding: 371 371 304
Width: 473
GlyphClass: 2
Flags: W
HStem: -10 72<163.3 298.827> 420 20G<50 122>
VStem: 50 72<105.204 430> 317 56<-124 -29.3542> 338 72<2 45 100.681 435>
LayerCount: 2
Fore
SplineSet
338 45 m 1xe8
 305 6 263 -10 214 -10 c 0
 120 -10 50 55 50 177 c 2
 50 440 l 1
 122 430 l 1
 122 180 l 2
 122 109 163 62 232 62 c 0
 298 62 338 105 338 179 c 2
 338 435 l 1
 410 435 l 1
 410 2 l 1
 338 -8 l 1
 338 45 l 1xe8
364 1.8671875 m 1
 404 1.8671875 l 1
 384 -24.1328125 373 -40.1328125 373 -74.1328125 c 0
 373 -109.1328125 401 -137.1328125 440 -159.1328125 c 1
 387 -204.1328125 l 1
 351 -185.1328125 317 -141.1328125 317 -101.1328125 c 0xf0
 317 -39.1328125 364 1.8671875 364 1.8671875 c 1
EndSplineSet
EndChar

StartChar: Wcircumflex
Encoding: 372 372 305
Width: 934
GlyphClass: 2
Flags: W
HStem: 652 20G<51 99.7179 361 409.718 834.282 883>
DStem2: 91 672 27 640 0.397451 -0.917623<3.92709 553.072> 312 165 312 -18 0.393742 0.919221<0 225.441> 401 672 337 640 0.397451 -0.917623<3.92709 234.852 327.341 553.072> 371 784 417 738 0.707107 0.707107<0 101.116> 487 900 487 811 0.707107 -0.707107<62.9325 164.049> 622 165 622 -18 0.397451 0.917623<0 549.145>
LayerCount: 2
Fore
SplineSet
371 784 m 1
 487 900 l 1
 603 784 l 1
 557 738 l 1
 487 811 l 1
 417 738 l 1
 371 784 l 1
843 672 m 1
 907 640 l 1
 622 -18 l 1
 467 343.859375 l 1
 312 -18 l 1
 27 640 l 1
 91 672 l 1
 312 165 l 1
 429.736328125 428.51171875 l 1
 337 640 l 1
 401 672 l 1
 622 165 l 1
 843 672 l 1
EndSplineSet
EndChar

StartChar: wcircumflex
Encoding: 373 373 306
Width: 671
GlyphClass: 2
Flags: W
HStem: 420 20G<14.476 91 243.202 320>
DStem2: 91 430 5 440 0.428171 -0.903698<0 318.163> 219.5 546 265.5 500 0.707107 0.707107<0 101.116> 222 140 336.599 223.456 0.428773 0.903412<0 124.532> 320 430 234 440 0.428171 -0.903698<0 106.637 193.76 318.163> 335.5 662 335.5 573 0.707107 -0.707107<62.9325 164.049> 451 140 451 -18 0.428772 0.903413<0 323.962>
LayerCount: 2
Fore
SplineSet
219.5 546 m 1
 335.5 662 l 1
 451.5 546 l 1
 405.5 500 l 1
 335.5 573 l 1
 265.5 500 l 1
 219.5 546 l 1
585 435 m 1
 666 435 l 1
 451 -18 l 1
 336.598632812 223.456054688 l 1
 222 -18 l 1
 5 440 l 1
 91 430 l 1
 222 140 l 1
 297.747070312 301.456054688 l 1
 234 440 l 1
 320 430 l 1
 451 140 l 1
 585 435 l 1
EndSplineSet
EndChar

StartChar: ycircumflex
Encoding: 375 375 308
Width: 440
GlyphClass: 2
Flags: W
DStem2: 86 435 5 435 0.422377 -0.90642<0 323.992> 56.3047 -199.911 135 -210 0.421731 0.906721<24.0404 289.919 377.24 701.235> 104 546 150 500 0.707107 0.707107<0 101.116> 220 662 220 573 0.707107 -0.707107<62.9325 164.049>
LayerCount: 2
Fore
SplineSet
104 546 m 1
 220 662 l 1
 336 546 l 1
 290 500 l 1
 220 573 l 1
 150 500 l 1
 104 546 l 1
178.3046875 63.0888671875 m 1
 5 435 l 1
 86 435 l 1
 220 140 l 1
 354 435 l 1
 435 435 l 1
 135 -210 l 1
 56.3046875 -199.911132812 l 1
 178.3046875 63.0888671875 l 1
EndSplineSet
EndChar

StartChar: Zacute
Encoding: 377 377 310
Width: 516
GlyphClass: 2
Flags: W
HStem: 0 74<158 480> 592 74<78 360>
DStem2: 30 0 158 74 0.486895 0.87346<126.959 677.764> 212 784 258 738 0.689062 0.724703<0 166.705>
LayerCount: 2
Fore
SplineSet
212 784 m 1
 328 906 l 1
 374 860 l 1
 258 738 l 1
 212 784 l 1
158 74 m 1
 480 74 l 1
 480 0 l 1
 30 0 l 1
 360 592 l 1
 78 592 l 1
 78 666 l 1
 486 666 l 1
 158 74 l 1
EndSplineSet
EndChar

StartChar: Zdotaccent
Encoding: 379 379 312
Width: 516
GlyphClass: 2
Flags: W
HStem: 0 74<158 480> 592 74<78 360> 738 72<223 295> 748 72<221 293>
VStem: 221 74<748 810>
DStem2: 30 0 158 74 0.486895 0.87346<126.959 677.764>
LayerCount: 2
Fore
SplineSet
295 810 m 1xe8
 295 738 l 1xe8
 221 748 l 1
 221 820 l 1xd8
 295 810 l 1xe8
158 74 m 1
 480 74 l 1
 480 0 l 1
 30 0 l 1
 360 592 l 1
 78 592 l 1
 78 666 l 1
 486 666 l 1
 158 74 l 1
EndSplineSet
EndChar

StartChar: Zcaron
Encoding: 381 381 314
Width: 516
GlyphClass: 2
Flags: W
HStem: 0 74<158 480> 592 74<78 360>
DStem2: 30 0 158 74 0.486895 0.87346<126.959 677.764> 188 900 142 854 0.707107 -0.707107<0 101.116> 258 827 258 738 0.707107 0.707107<0 101.116>
LayerCount: 2
Fore
SplineSet
374 854 m 1
 258 738 l 1
 142 854 l 1
 188 900 l 1
 258 827 l 1
 328 900 l 1
 374 854 l 1
158 74 m 1
 480 74 l 1
 480 0 l 1
 30 0 l 1
 360 592 l 1
 78 592 l 1
 78 666 l 1
 486 666 l 1
 158 74 l 1
EndSplineSet
EndChar

StartChar: longs
Encoding: 383 383 316
Width: 292
GlyphClass: 2
Flags: W
HStem: -8 21G<63 135> 410 66<3 63> 608 70<160.841 279>
VStem: 3 132<410 476> 63 72<0 410 476 583.5>
LayerCount: 2
Fore
SplineSet
63 514 m 2xe8
 63 618 104 678 225 678 c 2
 287 678 l 1
 279 608 l 1
 225 608 l 2
 165 608 135 578 135 514 c 2
 135 -8 l 1
 63 0 l 1
 63 410 l 1xe8
 3 410 l 1
 3 476 l 1xf0
 63 476 l 1
 63 514 l 2xe8
EndSplineSet
EndChar

StartChar: uni0189
Encoding: 393 393 317
Width: 562
GlyphClass: 2
Flags: W
HStem: 0 73<144 298.098> 278 72<0 70 144 226> 593 73<144 298.098>
VStem: 70 74<73 278 350 593> 457 75<233.602 432.398>
LayerCount: 2
Fore
SplineSet
144 73 m 1
 197 73 l 2
 343 73 457 192 457 333 c 0
 457 474 343 593 197 593 c 2
 144 593 l 1
 144 350 l 1
 226 350 l 1
 226 278 l 1
 144 278 l 1
 144 73 l 1
70 278 m 1
 0 278 l 1
 0 350 l 1
 70 350 l 1
 70 666 l 1
 197 666 l 2
 386 666 532 516 532 333 c 0
 532 150 386 0 197 0 c 2
 70 0 l 1
 70 278 l 1
EndSplineSet
EndChar

StartChar: florin
Encoding: 402 402 318
Width: 269
GlyphClass: 2
Flags: W
HStem: -220 21G<36 96.5> 369 66<55 95 167 257> 686 74<212.11 257>
VStem: 95 72<-100.282 369 435 640.375>
LayerCount: 2
Fore
SplineSet
95 369 m 1
 55 369 l 1
 55 435 l 1
 95 435 l 1
 95 578 l 2
 95 671 166 750 257 760 c 1
 257 686 l 1
 206 677 167 632 167 578 c 2
 167 435 l 1
 257 435 l 1
 257 369 l 1
 167 369 l 1
 167 -3 l 2
 167 -79 151 -174 42 -220 c 1
 30 -193 21 -170 14 -152 c 1
 74 -126 95 -71 95 -3 c 2
 95 369 l 1
EndSplineSet
EndChar

StartChar: uni01CD
Encoding: 461 461 319
Width: 618
GlyphClass: 2
Flags: W
HStem: -6 21G<18 102.571 515.429 600> 246 72<232 386>
DStem2: 18 6 94 -6 0.394902 0.918723<18.9879 293.156 371.151 572.441> 239 905 193 859 0.707107 -0.707107<0 101.116> 309 832 309 743 0.707107 0.707107<0 101.116> 309 683 309 504 0.394902 -0.918723<164.451 365.741 443.737 717.904>
LayerCount: 2
Fore
SplineSet
425 859 m 1
 309 743 l 1
 193 859 l 1
 239 905 l 1
 309 832 l 1
 379 905 l 1
 425 859 l 1
94 -6 m 1
 18 6 l 1
 309 683 l 1
 600 6 l 1
 524 -6 l 1
 416 246 l 1
 202 246 l 1
 94 -6 l 1
386 318 m 1
 309 504 l 1
 232 318 l 1
 386 318 l 1
EndSplineSet
EndChar

StartChar: uni01CE
Encoding: 462 462 320
Width: 432
GlyphClass: 2
Flags: W
HStem: -10 68<148.742 265.705> 242 68<148.742 265.705> 369 71<129 283.626>
VStem: 45 72<88.9534 211.047> 297 72<2 32 89.3091 210.691 263 355.631>
DStem2: 144 662 98 616 0.707107 -0.707107<0 101.116> 214 589 214 500 0.707107 0.707107<0 101.116>
LayerCount: 2
Fore
SplineSet
330 616 m 1
 214 500 l 1
 98 616 l 1
 144 662 l 1
 214 589 l 1
 284 662 l 1
 330 616 l 1
117 150 m 0
 117 98 155 58 207 58 c 0
 259 58 297 98 297 150 c 0
 297 202 259 242 207 242 c 0
 155 242 117 202 117 150 c 0
45 150 m 0
 45 245 109 310 194 310 c 0
 267 310 297 263 297 263 c 1
 297 362 285 369 188 369 c 2
 108 369 l 1
 129 440 l 1
 188 440 l 2
 318 440 369 413 369 268 c 2
 369 2 l 1
 297 -6 l 1
 297 32 l 1
 297 32 267 -10 194 -10 c 0
 109 -10 45 55 45 150 c 0
EndSplineSet
EndChar

StartChar: uni01CF
Encoding: 463 463 321
Width: 201
GlyphClass: 2
Flags: W
HStem: 0 21G<63 138> 646 20G<63 138>
VStem: 63 75<0 666>
DStem2: 30.5 900 -15.5 854 0.707107 -0.707107<0 101.116> 100.5 827 100.5 738 0.707107 0.707107<0 101.116>
LayerCount: 2
Fore
SplineSet
216.5 854 m 1
 100.5 738 l 1
 -15.5 854 l 1
 30.5 900 l 1
 100.5 827 l 1
 170.5 900 l 1
 216.5 854 l 1
63 0 m 1
 63 666 l 1
 138 666 l 1
 138 0 l 1
 63 0 l 1
EndSplineSet
EndChar

StartChar: uni01D0
Encoding: 464 464 322
Width: 198
GlyphClass: 2
Flags: W
HStem: 0 21G<63 135>
VStem: 63 72<0 425>
DStem2: 29 662 -17 616 0.707107 -0.707107<0 101.116> 99 589 99 500 0.707107 0.707107<0 101.116>
LayerCount: 2
Fore
SplineSet
215 616 m 1
 99 500 l 1
 -17 616 l 1
 29 662 l 1
 99 589 l 1
 169 662 l 1
 215 616 l 1
135 0 m 1
 63 0 l 1
 63 435 l 1
 135 425 l 1
 135 0 l 1
EndSplineSet
EndChar

StartChar: uni01D1
Encoding: 465 465 323
Width: 774
GlyphClass: 2
Flags: W
HStem: -14 75<281.395 492.605> 603 75<281.395 492.605>
VStem: 39 78<228.578 435.422> 657 78<228.578 435.422>
DStem2: 317 900 271 854 0.707107 -0.707107<0 101.116> 387 827 387 738 0.707107 0.707107<0 101.116>
LayerCount: 2
Fore
SplineSet
503 854 m 1
 387 738 l 1
 271 854 l 1
 317 900 l 1
 387 827 l 1
 457 900 l 1
 503 854 l 1
387 603 m 0
 235 603 117 479 117 332 c 0
 117 185 235 61 387 61 c 0
 539 61 657 185 657 332 c 0
 657 479 539 603 387 603 c 0
387 -14 m 0
 191 -14 39 142 39 332 c 0
 39 522 191 678 387 678 c 0
 583 678 735 522 735 332 c 0
 735 142 583 -14 387 -14 c 0
EndSplineSet
EndChar

StartChar: uni01D2
Encoding: 466 466 324
Width: 514
GlyphClass: 2
Flags: W
HStem: -10 71<181.181 332.819> 369 71<181.181 332.819>
VStem: 39 73<134.61 295.39> 402 73<134.61 295.39>
DStem2: 187 662 141 616 0.707107 -0.707107<0 101.116> 257 589 257 500 0.707107 0.707107<0 101.116>
LayerCount: 2
Fore
SplineSet
373 616 m 1
 257 500 l 1
 141 616 l 1
 187 662 l 1
 257 589 l 1
 327 662 l 1
 373 616 l 1
257 369 m 0
 175 369 112 302 112 215 c 0
 112 128 175 61 257 61 c 0
 339 61 402 128 402 215 c 0
 402 302 339 369 257 369 c 0
257 -10 m 0
 135 -10 39 84 39 215 c 0
 39 346 135 440 257 440 c 0
 379 440 475 346 475 215 c 0
 475 84 379 -10 257 -10 c 0
EndSplineSet
EndChar

StartChar: Aringacute
Encoding: 506 506 325
Width: 618
GlyphClass: 2
Flags: W
HStem: -6 21G<18 102.571 515.429 600> 246 72<232 386> 831.367 44<267.186 351.299>
VStem: 210.5 45<734.282 819.88> 362.5 45<734.282 819.88>
DStem2: 18 6 94 -6 0.388461 0.921465<18.4654 292.628 370.628 571.932> 263 981.366 309 935.366 0.689062 0.724703<0 166.705> 309 683 309 504 0.388461 -0.921465<164.942 366.246 444.246 718.409>
LayerCount: 2
Fore
SplineSet
263 981.366210938 m 1
 379 1103.36621094 l 1
 425 1057.36621094 l 1
 309 935.366210938 l 1
 263 981.366210938 l 1
255.5 776.3671875 m 0
 255.5 746.3671875 278.5 723.3671875 308.5 723.3671875 c 0
 338.5 723.3671875 362.5 746.3671875 362.5 776.3671875 c 0
 362.5 806.3671875 338.5 831.3671875 308.5 831.3671875 c 0
 278.5 831.3671875 255.5 806.3671875 255.5 776.3671875 c 0
308.5 676.3671875 m 0
 253.5 676.3671875 210.5 720.3671875 210.5 776.3671875 c 0
 210.5 831.3671875 253.5 875.3671875 308.5 875.3671875 c 0
 363.5 875.3671875 407.5 831.3671875 407.5 776.3671875 c 0
 407.5 720.3671875 363.5 676.3671875 308.5 676.3671875 c 0
94 -6 m 1
 18 6 l 1
 309 683 l 1
 600 6 l 1
 524 -6 l 1
 416 246 l 1
 202 246 l 1
 94 -6 l 1
386 318 m 1
 309 504 l 1
 232 318 l 1
 386 318 l 1
EndSplineSet
EndChar

StartChar: aringacute
Encoding: 507 507 326
Width: 432
GlyphClass: 2
Flags: W
HStem: -10 68<148.742 265.705> 242 68<148.742 265.705> 369 71<129 283.626> 500 47<170.723 256.693> 655 44<172.186 256.299> 759 21G<194 233.016>
VStem: 45 72<88.9534 211.047> 115.5 45<557.915 643.512> 267.5 45<557.915 643.512> 297 72<2 32 89.3091 210.691 263 355.631>
DStem2: 168 805 214 759 0.689062 0.724703<0 166.705>
LayerCount: 2
Fore
SplineSet
168 805 m 1xfc
 284 927 l 1
 330 881 l 1
 214 759 l 1
 168 805 l 1xfc
160.5 600 m 0xfd80
 160.5 570 183.5 547 213.5 547 c 0
 243.5 547 267.5 570 267.5 600 c 0
 267.5 630 243.5 655 213.5 655 c 0
 183.5 655 160.5 630 160.5 600 c 0xfd80
213.5 500 m 0
 158.5 500 115.5 544 115.5 600 c 0
 115.5 655 158.5 699 213.5 699 c 0
 268.5 699 312.5 655 312.5 600 c 0
 312.5 544 268.5 500 213.5 500 c 0
117 150 m 0xfe40
 117 98 155 58 207 58 c 0
 259 58 297 98 297 150 c 0
 297 202 259 242 207 242 c 0
 155 242 117 202 117 150 c 0xfe40
45 150 m 0
 45 245 109 310 194 310 c 0
 267 310 297 263 297 263 c 1
 297 362 285 369 188 369 c 2
 108 369 l 1
 129 440 l 1
 188 440 l 2
 318 440 369 413 369 268 c 2
 369 2 l 1
 297 -6 l 1
 297 32 l 1
 297 32 267 -10 194 -10 c 0
 109 -10 45 55 45 150 c 0
EndSplineSet
EndChar

StartChar: AEacute
Encoding: 508 508 327
Width: 786
GlyphClass: 2
Flags: W
HStem: 0 72<473 741> 206 72<261 397> 278 72<473 721> 594 72<473 731>
VStem: 397 76<72 206 350 514>
DStem2: 15 0 104 0 0.497541 0.86744<44.2811 280.689 363.544 635.925> 432 784 478 738 0.689062 0.724703<0 166.705>
LayerCount: 2
Fore
SplineSet
104 0 m 1xd8
 15 0 l 1
 397 666 l 1
 731 666 l 1
 731 594 l 1
 473 594 l 1
 473 350 l 1
 721 350 l 1
 721 278 l 1
 473 278 l 1xb8
 473 72 l 1
 741 72 l 1
 741 0 l 1
 397 0 l 1
 397 206 l 1
 220 206 l 1
 104 0 l 1xd8
397 514 m 1
 261 278 l 1
 397 278 l 1xd8
 397 514 l 1
432 784 m 1
 548 906 l 1
 594 860 l 1
 478 738 l 1
 432 784 l 1
EndSplineSet
EndChar

StartChar: aeacute
Encoding: 509 509 328
Width: 745
GlyphClass: 2
Flags: W
HStem: -10 68<148.742 264.783 434.339 575.799> 242 68<148.742 265.705> 369 71<109 273.341 429.864 582.281> 648 20G<426.484 465.5>
VStem: 45 72<88.9534 211.047> 297 64<184.469 210.691 263 297.539>
DStem2: 329.5 546 375.5 500 0.689062 0.724703<0 166.705> 364 184 390 120 0.892157 0.451725<0 287.105>
LayerCount: 2
Fore
SplineSet
329.5 546 m 1
 445.5 668 l 1
 491.5 622 l 1
 375.5 500 l 1
 329.5 546 l 1
117 150 m 0
 117 98 155 58 207 58 c 0
 259 58 297 98 297 150 c 0
 297 202 259 242 207 242 c 0
 155 242 117 202 117 150 c 0
621 312 m 1
 595 347 555 369 505 369 c 0
 417 369 361 299 361 215 c 0
 361 204 362 194 364 184 c 1
 621 312 l 1
168 368 m 2
 88 368 l 1
 109 440 l 1
 168 440 l 2
 261 440 314 421 336 361 c 1
 375 410 433 440 505 440 c 0
 593 440 682 391 706 280 c 1
 390 120 l 1
 415 86 452 61 505 61 c 0
 562 61 606 91 631 136 c 1
 694 97 l 1
 657 31 590 -10 505 -10 c 0
 432 -10 374 21 335 70 c 1
 311 23 267 -10 194 -10 c 0
 109 -10 45 55 45 150 c 0
 45 245 109 310 194 310 c 0
 267 310 297 263 297 263 c 1
 297 362 265 368 168 368 c 2
EndSplineSet
EndChar

StartChar: Oslashacute
Encoding: 510 510 329
Width: 774
GlyphClass: 2
Flags: W
HStem: -14 75<281.15 492.605> 603 75<281.395 492.85>
VStem: 39 78<228.196 435.422> 657 78<228.578 435.804>
DStem2: 91 24 143 -18 0.634389 0.773014<0.521608 82.785 157.747 693.988 768.95 851.213> 341 800 387 754 0.689062 0.724703<0 166.705>
LayerCount: 2
Fore
SplineSet
341 800 m 1
 457 922 l 1
 503 876 l 1
 387 754 l 1
 341 800 l 1
387 603 m 0
 235 603 117 479 117 332 c 0
 117 261 145 195 191 146 c 1
 532 561 l 1
 490 588 441 603 387 603 c 0
142 86 m 1
 78 149 39 236 39 332 c 0
 39 522 191 678 387 678 c 0
 459 678 525 656 580 620 c 1
 631 682 l 1
 683 640 l 1
 632 578 l 1
 696 515 735 428 735 332 c 0
 735 142 583 -14 387 -14 c 0
 315 -14 249 8 194 44 c 1
 143 -18 l 1
 91 24 l 1
 142 86 l 1
242 103 m 1
 284 76 333 61 387 61 c 0
 539 61 657 185 657 332 c 0
 657 403 629 469 583 518 c 1
 242 103 l 1
EndSplineSet
EndChar

StartChar: oslashacute
Encoding: 511 511 330
Width: 514
GlyphClass: 2
Flags: W
HStem: -10 71<181.687 330.03> 369 71<184.122 331.213> 653 20G<307.984 347>
VStem: 39 73<132.635 295.699> 402 73<134.301 297.558>
DStem2: 53 26 99 -15 0.653761 0.756701<0 57.2656 130.38 422.387 495.125 552.767> 211 551 257 505 0.689062 0.724703<0 166.705>
LayerCount: 2
Fore
SplineSet
211 551 m 1
 327 673 l 1
 373 627 l 1
 257 505 l 1
 211 551 l 1
258 369 m 0
 172 369 112 299 112 215 c 0
 112 181 122 149 139 124 c 1
 332 348 l 1
 310 361 285 369 258 369 c 0
89 68 m 1
 57 108 39 158 39 215 c 0
 39 343 132 440 257 440 c 0
 304 440 343 427 379 404 c 1
 415 445 l 1
 461 404 l 1
 425 362 l 1
 457 323 475 272 475 215 c 0
 475 87 382 -10 257 -10 c 0
 209 -10 169 4 135 26 c 1
 99 -15 l 1
 53 26 l 1
 89 68 l 1
181 83 m 1
 202 69 229 61 257 61 c 0
 342 61 402 131 402 215 c 0
 402 249 392 281 375 306 c 1
 181 83 l 1
EndSplineSet
EndChar

StartChar: uni0218
Encoding: 536 536 331
Width: 477
GlyphClass: 2
Flags: W
HStem: -15 75<169.679 306.574> 601 77<173.327 322.897>
VStem: 67 78<464.565 572.826> 359 78<112.783 248.88>
LayerCount: 2
Fore
SplineSet
237 60 m 0
 307 60 359 113 359 187 c 0
 359 340 67 327 67 511 c 0
 67 622 149 678 247 678 c 0
 330 678 388 631 402 613 c 1
 368 541 l 1
 351 562 310 601 247 601 c 0
 186 601 145 572 145 516 c 0
 145 388 437 402 437 187 c 0
 437 66 350 -15 237 -15 c 0
 131 -15 70 67 44 120 c 1
 108 162 l 1
 135 105 175 60 237 60 c 0
199.5 -244 m 1
 149.5 -244 l 1
 194.5 -75 l 1
 264.5 -75 l 1
 199.5 -244 l 1
EndSplineSet
EndChar

StartChar: uni0219
Encoding: 537 537 332
Width: 370
GlyphClass: 2
Flags: W
HStem: -10 68<125.054 235.047> 372 68<141.953 231.734>
VStem: 65 68<294.977 361.534> 261 69<84.4693 182.867>
LayerCount: 2
Fore
SplineSet
175 -239 m 1
 125 -239 l 1
 170 -70 l 1
 240 -70 l 1
 175 -239 l 1
184 372 m 0
 163 372 133 355 133 324 c 0
 133 300 164 288 224 264 c 0
 248.669921875 254.131835938 330 226 330 135 c 0
 330 56 268 -10 182 -10 c 0
 83 -10 44 78 35 97 c 1
 94 136 l 1
 101 119 115 58 181 58 c 0
 244 58 261 115 261 141 c 0
 261 185 214 198 169 214 c 0
 131 228 65 250 65 323 c 0
 65 381 108 440 184 440 c 0
 240 440 278 410 295 382 c 1
 241 337 l 1
 232 354 217 372 184 372 c 0
EndSplineSet
EndChar

StartChar: uni021A
Encoding: 538 538 333
Width: 452
GlyphClass: 2
Flags: W
HStem: -229 21G<144 201.811> 0 21G<187 263> 594 72<18 187 263 434>
VStem: 187 76<-75.7209 -60 0 594>
LayerCount: 2
Fore
SplineSet
434 594 m 1
 263 594 l 1
 263 0 l 1
 187 0 l 1
 187 594 l 1
 18 594 l 1
 18 666 l 1
 434 666 l 1
 434 594 l 1
194 -229 m 1
 144 -229 l 1
 190 -60 l 1
 260 -60 l 1
 194 -229 l 1
EndSplineSet
EndChar

StartChar: uni021B
Encoding: 539 539 334
Width: 286
GlyphClass: 2
Flags: W
HStem: -229 21G<78 135.574> -10 73.9932<166.267 224> 369 66<35 85 157 241>
VStem: 85 72<71.4723 369 435 610>
LayerCount: 2
Fore
SplineSet
85 369 m 1
 35 369 l 1
 35 435 l 1
 85 435 l 1
 85 632 l 1
 157 610 l 1
 157 435 l 1
 241 435 l 1
 241 369 l 1
 157 369 l 1
 157 115 l 2
 157 72.1083984375 186.3671875 63.9931640625 213.635742188 63.9931640625 c 0
 230.233398438 63.9931640625 244 67 254 68 c 1
 224 -10 l 1
 146 -8 85 4 85 105 c 2
 85 369 l 1
128 -229 m 1
 78 -229 l 1
 122 -60 l 1
 192 -60 l 1
 128 -229 l 1
EndSplineSet
EndChar

StartChar: uni0237
Encoding: 567 567 335
Width: 198
GlyphClass: 2
Flags: W
HStem: -220 21G<4 64.5> 420 20G<63 135>
VStem: 63 72<-100.282 430>
LayerCount: 2
Fore
SplineSet
-18 -152 m 1
 42 -126 63 -71 63 -3 c 2
 63 440 l 1
 135 430 l 1
 135 -3 l 2
 135 -79 119 -174 10 -220 c 1
 -2 -193 -11 -170 -18 -152 c 1
EndSplineSet
EndChar

StartChar: uni0261
Encoding: 609 609 336
Width: 538
GlyphClass: 2
Flags: W
HStem: -200 74<188.837 335.276> -10 72<184.416 340.088> 368 72<184.416 339.701>
VStem: 39 73<136.035 293.965> 403 72<-55.4559 52 381 425> 412 63<136.33 293.67>
LayerCount: 2
Fore
SplineSet
132 -36 m 1xf8
 153 -88 203 -126 262 -126 c 0
 340 -126 403 -60 403 18 c 2
 403 52 l 1
 368 17 326 -10 262 -10 c 0
 135 -10 39 86 39 215 c 0
 39 344 135 440 262 440 c 0
 324 440 368 413 403 381 c 1
 403 435 l 1
 475 425 l 1
 475 13 l 2
 475 -105 380 -200 262 -200 c 0
 175 -200 100 -149 67 -74 c 1
 132 -36 l 1xf8
262 62 m 0
 350 62 412 132 412 215 c 0xf4
 412 298 350 368 262 368 c 0
 174 368 112 298 112 215 c 0
 112 132 174 62 262 62 c 0
EndSplineSet
EndChar

StartChar: circumflex
Encoding: 710 710 337
Width: 420
GlyphClass: 2
Flags: W
HStem: 460 162
VStem: 94 232
DStem2: 94 506 140 460 0.707107 0.707107<0 101.116> 210 622 210 533 0.707107 -0.707107<62.9325 164.049>
LayerCount: 2
Fore
SplineSet
94 506 m 1
 210 622 l 1
 326 506 l 1
 280 460 l 1
 210 533 l 1
 140 460 l 1
 94 506 l 1
EndSplineSet
EndChar

StartChar: caron
Encoding: 711 711 338
Width: 420
GlyphClass: 2
Flags: W
HStem: 447 162
VStem: 94 232
DStem2: 140 609 94 563 0.707107 -0.707107<0 101.116> 210 536 210 447 0.707107 0.707107<0 101.116>
LayerCount: 2
Fore
SplineSet
326 563 m 1
 210 447 l 1
 94 563 l 1
 140 609 l 1
 210 536 l 1
 280 609 l 1
 326 563 l 1
EndSplineSet
EndChar

StartChar: breve
Encoding: 728 728 339
Width: 420
GlyphClass: 2
Flags: W
HStem: 462 57<151.632 268.368>
VStem: 62 58<551.438 609> 300 58<551.438 609>
LayerCount: 2
Fore
SplineSet
120 609 m 1
 120 559 160 519 210 519 c 0
 260 519 300 559 300 609 c 1
 358 609 l 1
 358 527 292 462 210 462 c 0
 128 462 62 527 62 609 c 1
 120 609 l 1
EndSplineSet
EndChar

StartChar: dotaccent
Encoding: 729 729 340
Width: 420
GlyphClass: 2
Flags: W
HStem: 637 72<175 247> 647 72<173 245>
VStem: 173 74<647 709>
LayerCount: 2
Fore
SplineSet
247 709 m 1xa0
 247 637 l 1xa0
 173 647 l 1
 173 719 l 1x60
 247 709 l 1xa0
EndSplineSet
EndChar

StartChar: ring
Encoding: 730 730 341
Width: 419
GlyphClass: 2
Flags: W
HStem: 391 47<166.223 252.193> 546 44<167.686 251.799>
VStem: 111 45<448.915 534.512> 263 45<448.915 534.512>
LayerCount: 2
Fore
SplineSet
156 491 m 0
 156 461 179 438 209 438 c 0
 239 438 263 461 263 491 c 0
 263 521 239 546 209 546 c 0
 179 546 156 521 156 491 c 0
209 391 m 0
 154 391 111 435 111 491 c 0
 111 546 154 590 209 590 c 0
 264 590 308 546 308 491 c 0
 308 435 264 391 209 391 c 0
EndSplineSet
EndChar

StartChar: ogonek
Encoding: 731 731 342
Width: 420
GlyphClass: 2
Flags: W
HStem: -326 206
VStem: 163 56<-245.868 -151.221>
LayerCount: 2
Fore
SplineSet
210 -120 m 1
 250 -120 l 1
 230 -146 219 -162 219 -196 c 0
 219 -231 247 -259 286 -281 c 1
 233 -326 l 1
 197 -307 163 -263 163 -223 c 0
 163 -161 210 -120 210 -120 c 1
EndSplineSet
EndChar

StartChar: tilde
Encoding: 732 732 343
Width: 420
GlyphClass: 2
Flags: W
HStem: 490 72<201.531 296.224> 525 73<129.419 223.797>
VStem: 57 306
DStem2: 172 594 166 522 0.955286 -0.295684<1.434 109.497>
LayerCount: 2
Fore
SplineSet
152 525 m 0x60
 140 525 135 522 132 517 c 0
 128 511 125 498 123 488 c 1
 57 513 l 1
 59 522 l 2
 72 570 101 598 144 598 c 0x60
 154 598 162 597 172 594 c 2
 251 567 l 2
 263 563 271 562 277 562 c 0
 290 562 295 571 297 588 c 2
 298 600 l 1
 363 582 l 1
 363 574 l 2
 363 527 332 490 288 490 c 0xa0
 277 490 265 491 250 496 c 2
 166 522 l 2
 162 523 155 525 152 525 c 0x60
EndSplineSet
EndChar

StartChar: hungarumlaut
Encoding: 733 733 344
Width: 420
GlyphClass: 2
Flags: W
HStem: 508 168
DStem2: 39 554 85 508 0.689062 0.724703<0 166.705> 219 554 265 508 0.689062 0.724703<0 166.705>
LayerCount: 2
Fore
SplineSet
219 554 m 1
 335 676 l 1
 381 630 l 1
 265 508 l 1
 219 554 l 1
39 554 m 1
 155 676 l 1
 201 630 l 1
 85 508 l 1
 39 554 l 1
EndSplineSet
EndChar

StartChar: gravecomb
Encoding: 768 768 345
Width: 420
GlyphClass: 1
Flags: W
HStem: 508 168
VStem: 129 162
DStem2: 175 676 129 630 0.689062 -0.724703<1.63949 168.345>
LayerCount: 2
Fore
SplineSet
291 554 m 1
 245 508 l 1
 129 630 l 1
 175 676 l 1
 291 554 l 1
EndSplineSet
EndChar

StartChar: acutecomb
Encoding: 769 769 346
Width: 420
GlyphClass: 1
Flags: W
HStem: 508 168
VStem: 129 162
DStem2: 129 554 175 508 0.689062 0.724703<0 166.705>
LayerCount: 2
Fore
SplineSet
129 554 m 1
 245 676 l 1
 291 630 l 1
 175 508 l 1
 129 554 l 1
EndSplineSet
EndChar

